<?xml version="1.0" encoding="UTF-8"?>
<svg id="Layer_2" data-name="Layer 2" xmlns="http://www.w3.org/2000/svg" xmlns:xlink="http://www.w3.org/1999/xlink" viewBox="0 0 1508.16 873.13">
  <defs>
    <style>
      .cls-1 {
        fill: #fc7365;
      }

      .cls-2 {
        fill: #2b8ee3;
      }

      .cls-3 {
        fill: #fff001;
      }

      .cls-4 {
        stroke: url(#linear-gradient);
        stroke-miterlimit: 10;
        stroke-width: 14px;
      }
    </style>
    <linearGradient id="linear-gradient" x1="366.85" y1="-179.57" x2="1094.05" y2="1079.98" gradientUnits="userSpaceOnUse">
      <stop offset="0" stop-color="#fc7365"/>
      <stop offset=".46" stop-color="#fff001"/>
      <stop offset="1" stop-color="#2b8ee3"/>
    </linearGradient>
  </defs>
  <g id="Layer_1-2" data-name="Layer 1">
    <g>
      <path class="cls-4" d="M879.46,7H76.31C38.03,7,7,38.02,7,76.29v720.55c0,38.27,31.03,69.29,69.31,69.29h1355.53c38.28,0,69.31-31.02,69.31-69.29V185.43c0-38.27-31.03-69.29-69.31-69.29h-389.52c-19.82,0-38.69-8.48-51.84-23.3l-59.18-62.54c-13.15-14.82-32.02-23.3-51.84-23.3Z"/>
      <rect class="cls-1" x="1013.32" y="4.03" width="141.05" height="78.29" rx="39.15" ry="39.15"/>
      <rect class="cls-3" x="1189.74" y="4.03" width="141.05" height="78.29" rx="39.15" ry="39.15"/>
      <rect class="cls-2" x="1366.16" y="4.03" width="141.05" height="78.29" rx="39.15" ry="39.15"/>
    </g>
  </g>
</svg>