<?xml version="1.0" encoding="UTF-8"?>
<svg id="Layer_2" data-name="Layer 2" xmlns="http://www.w3.org/2000/svg" viewBox="0 0 1508.82 868.95">
  <g id="Layer_1-2" data-name="Layer 1">
    <g>
      <path d="M881.02,2.97H69.99C31.34,2.97,0,34.24,0,72.81v726.3c0,38.57,31.34,69.84,69.99,69.84h1368.83c38.66,0,69.99-31.27,69.99-69.84V182.82c0-38.57-31.34-69.84-69.99-69.84h-393.34c-20.01,0-39.07-8.55-52.35-23.48l-59.76-63.04c-13.28-14.94-32.34-23.48-52.35-23.48Z"/>
      <rect x="1013.09" y="0" width="141.05" height="78.29" rx="39.15" ry="39.15"/>
      <rect x="1189.51" y="0" width="141.05" height="78.29" rx="39.15" ry="39.15"/>
      <rect x="1365.93" y="0" width="141.05" height="78.29" rx="39.15" ry="39.15"/>
    </g>
  </g>
</svg>