<?xml version="1.0" encoding="UTF-8"?>
<svg id="Layer_2" data-name="Layer 2" xmlns="http://www.w3.org/2000/svg" viewBox="0 0 59.48 71.71">
  <defs>
    <style>
      .cls-1 {
        opacity: .75;
      }

      .cls-1, .cls-2 {
        fill: #fff;
      }

      .cls-3 {
        fill: #112d7a;
      }

      .cls-4, .cls-5 {
        fill: #2a8fe3;
      }

      .cls-5 {
        opacity: .46;
      }
    </style>
  </defs>
  <g id="Layer_1-2" data-name="Layer 1">
    <g>
      <path class="cls-4" d="M8.63,63.78c4.91,3.33,11.1,3.79,16.87,3.72s12.33-1.02,17.36-4.56c2.46-1.73,4.55-4,5.82-6.75.37-.8-.81-1.49-1.19-.69-2.23,4.81-6.9,7.91-11.88,9.34-2.94.85-5.99,1.18-9.03,1.28-2.85.09-5.75.05-8.58-.37-3.08-.46-6.09-1.38-8.68-3.14-.73-.5-1.42.69-.69,1.19h0Z"/>
      <path class="cls-4" d="M47.33,57.45c-1.39,2.44-3.3,4.56-5.62,6.14l1.37,1.77c2-2.03,4.08-3.97,6.24-5.82l-1.59-1.59c-1.83,1.67-3.66,3.36-5.72,4.74s-4.21,2.27-6.58,2.86c-4.65,1.16-9.47,1.78-14.26,1.35-2.65-.24-5.27-.86-7.74-1.87l-.6,2.17c5.44,1.9,11.21,2.59,16.94,2.84v-2.26c-2.85-.08-5.68-.44-8.46-1.08-1.25-.29-1.96,1.36-.87,2.06,1.84,1.18,4.06,1.35,6.19,1.45v-2.26c-1.59-.06-3.18-.08-4.78-.09-1.26,0-1.54,1.89-.3,2.21,6.38,1.69,13.28.87,19.11-2.23.54-.29.7-1.03.4-1.54-.33-.56-.99-.66-1.54-.4-.92.43-2.02.4-3.02.48-1.19.1-2.4.29-3.41.99-.75.52-.73,1.82.27,2.06,2.66.65,5.29-.14,7.8-1.01l-.87-2.06c-1.72,1.09-3.72,1.52-5.69,1.95-1.26.27-.95,2.21.3,2.21,1.84,0,3.66-.39,5.42-.9s3.46-1,5.05-1.81,2.9-2.02,4.19-3.2,2.64-2.38,3.73-3.77c1.28-1.62,1.93-3.52,2.51-5.48l-2.17-.6c-.07.33-.21.49-.52.7-.39.26-.76.4-1.2.55-1.04.35-2.07.46-3.15.58-1.33.15-1.75,1.59-2.3,2.62-.61,1.13-1.21,2.27-1.82,3.4s.89,2.36,1.77,1.37c1.79-2.02,3.65-4.04,5.91-5.55l-1.37-1.77c-2.89,2.99-5.77,5.99-8.66,8.98l1.59,1.59c2.3-2.59,4.68-5.11,7.13-7.56,1.03-1.03-.55-2.6-1.59-1.59-1.48,1.42-3,2.81-4.55,4.16-.75.65-1.51,1.3-2.28,1.94-.63.52-1.27,1.02-2.08,1.22l1.27,1.66c.98-1.96,2.43-3.63,4.28-4.83l-1.37-1.77c-1.64,1.87-3.27,3.75-4.91,5.62-.96,1.1.49,2.54,1.59,1.59,1.49-1.28,3.01-2.51,4.58-3.7.79-.6,1.59-1.19,2.4-1.76.7-.49,1.38-.94,2.24-1.07l-1.39-1.39c-.21.67-.57,1.25-1.05,1.76-.42.44-.44,1.16,0,1.59.47.47,1.12.38,1.59,0,2.1-1.67,3.99-3.58,5.65-5.69.38-.48.47-1.13,0-1.59-.39-.39-1.22-.48-1.59,0-1.66,2.11-3.55,4.02-5.65,5.69l1.59,1.59c.76-.79,1.3-1.71,1.63-2.75.29-.9-.6-1.51-1.39-1.39-.97.15-1.85.65-2.65,1.2-.86.6-1.7,1.22-2.53,1.85-1.72,1.3-3.4,2.65-5.04,4.05l1.59,1.59c1.64-1.87,3.27-3.75,4.91-5.62.37-.42.45-1.02.09-1.48-.33-.42-.97-.6-1.45-.29-2.16,1.4-3.93,3.33-5.09,5.64-.44.87.28,1.9,1.27,1.66s1.84-.82,2.64-1.45,1.63-1.35,2.43-2.04c1.65-1.43,3.26-2.9,4.83-4.41l-1.59-1.59c-2.45,2.45-4.83,4.97-7.13,7.56-.96,1.08.58,2.65,1.59,1.59,2.89-2.99,5.77-5.99,8.66-8.98.86-.89-.27-2.5-1.37-1.77-2.43,1.62-4.44,3.73-6.37,5.9l1.77,1.37c.61-1.13,1.21-2.27,1.82-3.4.15-.28.3-.57.45-.85.14-.26.37-.57.45-.85.11-.35-.61.14-.37.18.12.02.3-.02.42-.02.34-.02.67-.07,1-.11,1.97-.28,4.95-1.05,5.44-3.33.31-1.41-1.76-2-2.17-.6-.44,1.5-.89,3-1.8,4.3s-2.17,2.38-3.32,3.45-2.36,2.24-3.74,3.06-2.93,1.23-4.44,1.69c-1.77.54-3.57,1.02-5.43,1.01l.3,2.21c2.16-.46,4.34-.98,6.23-2.17,1.03-.66.39-2.5-.87-2.06-2.09.72-4.37,1.55-6.6,1.01l.27,2.06c.86-.59,1.86-.65,2.87-.72,1.23-.09,2.42-.22,3.55-.75l-1.14-1.95c-5.29,2.81-11.58,3.53-17.37,2l-.3,2.21c1.59,0,3.18.03,4.78.09.61.02,1.13-.53,1.13-1.13,0-.64-.52-1.1-1.13-1.13-1.74-.09-3.55-.18-5.05-1.14l-.87,2.06c2.97.69,6.01,1.08,9.06,1.16,1.45.04,1.45-2.19,0-2.26-5.54-.24-11.08-.92-16.34-2.76-.57-.2-1.23.23-1.39.79-.18.65.22,1.16.79,1.39,4.66,1.9,9.79,2.36,14.77,1.94,2.54-.21,5.07-.63,7.55-1.21s4.99-1.44,7.24-2.82c2.53-1.56,4.75-3.57,6.93-5.57.45-.41.42-1.18,0-1.59-.46-.46-1.13-.4-1.59,0-2.16,1.85-4.24,3.79-6.24,5.82-.87.88.28,2.51,1.37,1.77,2.64-1.8,4.85-4.16,6.43-6.95.72-1.26-1.23-2.4-1.95-1.14h0Z"/>
      <path class="cls-4" d="M34.48,48.55c1.95,4.05,6.13,6.44,10.5,6.9s9.35-.68,11.57-4.59c1.36-2.4,1.87-5.36,1.93-8.08.03-1.14-1.74-1.14-1.76,0-.05,2.16-.43,4.41-1.29,6.4-.75,1.73-2.08,2.97-3.82,3.68-3.62,1.48-8.17,1.23-11.53-.79-1.75-1.05-3.17-2.56-4.06-4.4-.21-.43-.82-.54-1.21-.32-.44.26-.52.78-.32,1.21h0Z"/>
      <path class="cls-4" d="M56.4,48.68c0,1.43-.83,2.66-1.89,3.56-.59.5-1.27.88-1.96,1.23-.36.18-.72.35-1.08.51-.24.1-.74.42-.97.4l.62.26-.05-.06.26.62v-.08c-.09.21-.18.42-.26.62l.05-.05c.83-.78-.42-2.03-1.25-1.25-.47.44-.38,1.24.18,1.57s1.18-.05,1.7-.27c1.09-.46,2.18-.95,3.15-1.62,1.82-1.26,3.26-3.17,3.26-5.45,0-1.14-1.76-1.14-1.76,0h0Z"/>
      <path class="cls-4" d="M35.61,49.83c3.02,2.66,7.15,4.02,11.16,3.54s7.37-2.53,9.74-5.63c1.33-1.74,2.74-4.19,2.12-6.44-.3-1.09-2.01-.63-1.7.47.25.9-.05,1.78-.43,2.59-.36.77-.79,1.51-1.29,2.19-.95,1.31-2.19,2.43-3.56,3.28-2.88,1.78-6.35,2.3-9.62,1.45-1.9-.49-3.69-1.41-5.16-2.71-.85-.75-2.1.5-1.25,1.25h0Z"/>
      <path class="cls-4" d="M47.14,54.4c1.02.14,1.84-.11,2.75-.55.84-.4,1.66-.84,2.46-1.31s1.54-.93,2.29-1.43,1.54-1.03,1.36-2.09c-.08-.47-.66-.73-1.09-.62-.5.14-.7.61-.62,1.09l.02.12v-.47c-.02.13-.36.3-.49.39-.27.18-.55.37-.83.54-.58.37-1.17.73-1.77,1.07s-1.15.64-1.74.93c-.56.28-1.22.7-1.88.61-.47-.07-.95.11-1.09.62-.11.41.14,1.02.62,1.09h0Z"/>
      <path class="cls-4" d="M43.65,54.37c2.75-.06,5.5-.59,8.05-1.62,2.12-.85,4.68-2.05,5.27-4.49.27-1.1-1.43-1.57-1.7-.47-.47,1.92-2.89,2.84-4.54,3.45-2.27.85-4.66,1.31-7.08,1.36-1.13.02-1.14,1.79,0,1.76h0Z"/>
      <path class="cls-4" d="M33.28,8.28c5.2,2.22,9.74,5.75,13.27,10.17s5.92,9.78,6.91,15.41c.35,1.99.6,4,1.09,5.97s1.37,3.79,1.82,5.76c.25,1.11,1.95.64,1.7-.47-.4-1.79-1.19-3.46-1.68-5.23s-.74-3.54-1.03-5.32c-.5-3.07-1.26-6.03-2.48-8.9-2.27-5.34-5.86-10.13-10.35-13.8-2.54-2.08-5.34-3.82-8.36-5.11-.44-.19-.95-.13-1.21.32-.22.37-.12,1.02.32,1.21h0Z"/>
      <path class="cls-4" d="M58.38,43.39l-2.11-7.64c-.7-2.52-1.33-5.07-2.18-7.54s-1.85-4.66-3.02-6.88c-1.07-2.04-2.23-4.05-3.63-5.88-.78-1.01-1.62-1.97-2.57-2.82-.49-.43-1.12-1.12-1.85-.92s-.99,1.17-.45,1.72c.8.81,2.05-.44,1.25-1.25l-.05-.05.26.62v-.08c-.04.15-.08.3-.12.45l.04-.07-.32.32.07-.04-.68.09c.32.05.78.63,1.02.86.37.36.73.73,1.08,1.12.66.74,1.25,1.54,1.81,2.36,1.19,1.76,2.22,3.64,3.17,5.53s1.85,4,2.53,6.1,1.28,4.44,1.9,6.66l2.16,7.83c.3,1.09,2.01.63,1.7-.47h0Z"/>
      <path class="cls-4" d="M49.7,32.91c1.58-.57,3.19-1.07,4.82-1.49,1.1-.28.63-1.98-.47-1.7-1.63.42-3.24.91-4.82,1.49-.45.16-.75.6-.62,1.09.12.43.64.78,1.09.62h0Z"/>
      <path class="cls-4" d="M51.76,30.89c1.04,3.35,1.93,6.74,2.64,10.17.31,1.51.56,3.06.21,4.58-.31,1.37-1,2.59-2.04,3.54-.84.77.41,2.01,1.25,1.25,1.17-1.07,2.01-2.49,2.42-4.02.45-1.68.33-3.38.01-5.08-.69-3.69-1.68-7.34-2.79-10.91-.34-1.08-2.04-.62-1.7.47h0Z"/>
      <path class="cls-4" d="M48.57,32.4c-.06,2.19-1.46,4.11-3.45,4.97-.44.19-.54.83-.32,1.21.26.45.77.51,1.21.32,2.55-1.1,4.25-3.74,4.33-6.5.03-1.14-1.73-1.14-1.76,0h0Z"/>
      <path class="cls-4" d="M3.91,52.75c3.1,1.69,6.68,2.33,10.18,1.82,3.31-.49,6.42-2.07,8.82-4.38.64-.61-.33-1.58-.97-.97-2.2,2.12-5.03,3.53-8.06,4.01s-6.47-.13-9.28-1.65c-.78-.42-1.47.76-.69,1.19h0Z"/>
      <path class="cls-4" d="M6.92,54.51c3.01,1.23,6.29,1.56,9.5,1.06l-.36-1.32c-1.29.39-2.61-.09-3.89-.29-.94-.15-3.43-.45-3.31,1.11.05.66.69,1.06,1.2,1.37.58.34,1.22.6,1.87.77,1.32.33,2.72.3,4.02-.1.51-.16.74-1,.16-1.25-1.17-.51-2.37-.91-3.62-1.18-.71-.15-1.28.93-.53,1.25,1.01.44,2.62.94,3.65.29.53-.33.73-1.03.29-1.52-.4-.46-1.08-.37-1.55-.07-.54.34-.83,1.06-.37,1.59.41.48,1.03.33,1.52.1,1.21-.56,2.33-1.3,3.36-2.14l-1.08-.83c-.25.34-.56.62-.91.85l.83,1.08c.55-.6,1-1.25,1.35-1.98.31-.65-.54-1.47-1.08-.83-.79.95-1.67,1.82-2.61,2.61l1.17.49c.04-.5.21-.93.48-1.35l-1.25-.53c-.18.86-.35,2.77,1.09,2.51.99-.18,1.81-1.35,2.23-2.18.33-.65-.56-1.47-1.08-.83-.68.83-1.29,1.72-1.8,2.67-.36.67.52,1.4,1.08.83.86-.87,1.72-1.74,2.58-2.6l-1.15-.67c-.07.45-.14.9-.22,1.35-.11.67.6,1.14,1.15.67,1.22-1.07,2.07-2.51,2.42-4.1l-1.25.16c.14.26-1.15,1.32-1.33,1.49-.56.53-1.14,1.05-1.73,1.55l.97.97c.87-.86,1.64-1.81,2.3-2.83.37-.57-.37-1.31-.94-.94-.86.56-1.62,1.23-2.26,2.04l1.08.83c.37-.57.84-1.05,1.41-1.42l-1.01-.78c-.42,1.05-.96,2.06-1.58,3.01-.45.69.51,1.32,1.08.83.69-.59,1.37-1.18,2.06-1.77s-.3-1.53-.97-.97l-1.54,1.29c-.68.57.3,1.54.97.97l1.54-1.29-.97-.97c-.69.59-1.37,1.18-2.06,1.77l1.08.83c.68-1.06,1.25-2.17,1.71-3.34.22-.56-.53-1.08-1.01-.78-.77.5-1.41,1.14-1.91,1.91-.42.64.59,1.45,1.08.83.57-.71,1.22-1.32,1.99-1.82l-.94-.94c-.6.93-1.3,1.78-2.08,2.56-.64.63.31,1.53.97.97.82-.69,1.61-1.42,2.37-2.18.68-.69,1.44-1.52.91-2.53-.27-.51-1.13-.41-1.25.16-.3,1.38-1.01,2.57-2.07,3.49l1.15.67c.07-.45.14-.9.22-1.35.1-.64-.62-1.19-1.15-.67-.86.87-1.72,1.74-2.58,2.6l1.08.83c.45-.84.98-1.65,1.58-2.39l-1.08-.83c-.24.47-.53.89-.91,1.24-.06.06-.2.13-.24.21-.15.06-.12.13.09.2.15.19.21.21.18.05.05-.1,0-.33,0-.45.01-.18.04-.35.07-.53.16-.76-.82-1.19-1.25-.53-.41.62-.62,1.3-.67,2.04-.05.65.76.83,1.17.49.95-.79,1.82-1.66,2.61-2.61l-1.08-.83c-.3.63-.66,1.19-1.13,1.71-.51.55.15,1.52.83,1.08.56-.37,1.01-.81,1.41-1.34.2-.27.07-.7-.18-.89-.29-.22-.63-.16-.9.05-.89.72-1.89,1.38-2.93,1.85-.03.01-.29.11-.29.12,0-.01.79,1.23.34.23-.32-.71-.01-.24-.3-.29-.12-.02-.25,0-.36,0-.58-.01-1.17-.14-1.71-.37l-.53,1.25c1.13.24,2.24.58,3.29,1.05l.16-1.25c-.97.3-1.99.38-2.99.17-.5-.1-.98-.25-1.44-.48-.23-.11-.46-.24-.67-.38.02.01-.3-.22-.29-.23l-.17.44c.07-.02.15-.04.22-.05,1-.19,2.03.12,3,.31,1.05.2,2.12.33,3.16,0,.86-.26.49-1.46-.36-1.32-2.96.46-6,.07-8.77-1.06-.35-.14-.75.15-.84.48-.11.39.14.71.48.84h0Z"/>
      <path class="cls-4" d="M21.55,59.47c4.24.61,8.52.57,12.74-.15.43-.07.64-.66.41-1.01-1.62-2.45-1.69-5.56-3.06-8.14-.39-.74-1.37-.19-1.25.53.39,2.48.78,4.96,1.17,7.43l1.25-.53c-.32-.73-.63-1.46-.95-2.19-.28-.65-1.28-.29-1.28.35,0,.72.1,1.43.3,2.12l1.32-.36c-.14-.45-.2-.87-.18-1.34h-1.37c-.02.73.14,1.4.44,2.05.37.8,1.56.1,1.19-.69-.2-.43-.27-.88-.26-1.36.03-.88-1.33-.88-1.37,0-.03.58.05,1.15.23,1.7.27.84,1.57.49,1.32-.36-.17-.58-.25-1.15-.25-1.76l-1.28.35c.32.73.63,1.46.95,2.19.14.31.58.4.86.28.34-.14.45-.47.4-.81-.39-2.48-.78-4.96-1.17-7.43l-1.25.53c1.37,2.58,1.43,5.66,3.06,8.14l.41-1.01c-3.96.67-8.03.73-12.01.15-.37-.05-.73.09-.84.48-.09.32.11.79.48.84h0Z"/>
      <path class="cls-4" d="M33.25,58.65l.17-.41c.06-.15.01-.39-.07-.53s-.25-.28-.41-.32c-.18-.04-.37-.03-.53.07l-.14.11c-.09.09-.14.19-.18.3l-.17.41c-.06.15-.01.39.07.53s.25.28.41.32c.18.04.37.03.53-.07l.14-.11c.09-.09.14-.19.18-.3h0Z"/>
      <path class="cls-4" d="M38.82,57.39v1.28c0,.52.58.86,1.03.59.53-.32,1.04-.7,1.46-1.16s.9-1,1.1-1.58c.21-.63-.26-1.26-.94-1.15-.63.11-1.09.76-1.51,1.19l1.15.3c-.01-.12,0-.24.02-.35.17-.89-.99-1.17-1.32-.36-.12.29-.17.59-.15.91.05.88,1.42.88,1.37,0-.01-.21.02-.35.1-.54l-1.32-.36c-.07.38-.07.7-.02,1.08.07.53.82.63,1.15.3.16-.16.32-.32.48-.48.08-.08.16-.16.24-.24.19-.14.16-.17-.1-.08l-.41-.32c.06-.39.05-.5-.04-.32-.02.05-.05.09-.08.13-.07.11-.13.22-.21.32-.14.21-.3.4-.48.58-.35.37-.75.68-1.19.94l1.03.59v-1.28c.01-.88-1.36-.88-1.37,0h0Z"/>
      <path class="cls-4" d="M47.6,41.19l.06-.05-.49.2c-.28-.54-.44-.63-.47-.28l-.04.16c-.04.19-.09.38-.14.57-.1.35-.21.7-.32,1.04l1.32.36c.12-.5.19-1.01.21-1.52.02-.72-.92-.88-1.28-.35-.2.3-.4.6-.6.9-.49.74.69,1.42,1.19.69.24-.36.42-.76.52-1.18.15-.62-.69-1.23-1.15-.67-.28.34-.48.68-.61,1.1-.27.84,1.05,1.2,1.32.36.06-.18.13-.34.26-.49l-1.15-.67c-.08.32-.2.58-.38.85l1.19.69c.2-.3.4-.6.6-.9l-1.28-.35c-.01.4-.06.77-.16,1.15-.21.86,1.04,1.2,1.32.36.24-.7.58-1.55.59-2.29,0-.84-.87-1.18-1.48-.69-.29.23-.24.73,0,.97.28.29.68.23.97,0h0Z"/>
      <path class="cls-4" d="M23.26,25.03c.92.78,1.45,1.94,1.9,3.03.52,1.26.67,2.54.25,3.86-.27.84,1.06,1.21,1.32.36.48-1.53.35-3.11-.25-4.59-.53-1.31-1.15-2.71-2.25-3.64-.67-.57-1.65.4-.97.97h0Z"/>
      <path class="cls-4" d="M27.42,31.78v-.11c-.06.16-.12.32-.19.49.28-.33,1.11-.31,1.5-.3.57,0,1.14.1,1.7.19.86.15,1.24-1.17.36-1.32s-1.82-.31-2.74-.21c-.8.09-1.92.3-2.01,1.27-.08.88,1.3.87,1.37,0h0Z"/>
      <path class="cls-4" d="M45.56,25.42c1.57,1.49,2.65,3.38,3.14,5.49.2.86,1.52.5,1.32-.36-.54-2.32-1.76-4.45-3.5-6.09-.64-.61-1.61.36-.97.97h0Z"/>
      <path class="cls-4" d="M29.23,46.16c.8,3.39,1.81,6.73,3.03,10,.3.82,1.63.47,1.32-.36-1.21-3.27-2.22-6.6-3.03-10-.2-.86-1.53-.5-1.32.36h0Z"/>
      <path class="cls-2" d="M4.87,40.55c.59,4.09,4.71,6.01,8.22,7.1.85.26,1.21-1.06.36-1.32-3.08-.96-6.74-2.53-7.26-6.15-.05-.37-.52-.57-.84-.48-.4.1-.53.48-.48.84h0Z"/>
      <path class="cls-2" d="M16.81,47.34v.08c0,.09.02.18.06.26.03.09.07.16.14.22.06.07.14.11.22.14.08.04.17.06.26.06l.18-.02c.12-.03.22-.09.3-.18l.11-.14c.06-.11.09-.22.09-.35v-.08c0-.09-.02-.18-.06-.26-.03-.09-.07-.16-.14-.22-.06-.07-.14-.11-.22-.14-.08-.04-.17-.06-.26-.06l-.18.02c-.12.03-.22.09-.3.18l-.11.14c-.06.11-.09.22-.09.35h0Z"/>
      <path class="cls-2" d="M45.11,44.41c-1.1-.93-2.44-.7-3.71-.28-.84.27-.48,1.6.36,1.32.7-.23,1.72-.62,2.37-.07s1.65-.4.97-.97h0Z"/>
      <path class="cls-2" d="M37.92,45.92l-.08.17c-.05.08-.08.16-.08.26-.02.09-.02.18.01.27.02.09.06.17.12.23.05.07.11.13.19.18l.16.07c.12.03.24.03.36,0l.16-.07c.1-.06.19-.14.25-.25l.08-.17c.05-.08.08-.16.08-.26.02-.09.02-.18-.01-.27-.02-.09-.06-.17-.12-.23-.05-.07-.11-.13-.19-.18l-.16-.07c-.12-.03-.24-.03-.36,0l-.16.07c-.1.06-.19.14-.25.25h0Z"/>
      <path class="cls-2" d="M51.24,44.13c.54-1.02.65-2.2.23-3.28-.31-.82-1.64-.46-1.32.36.28.75.28,1.51-.09,2.23-.41.78.77,1.48,1.19.69h0Z"/>
      <path class="cls-1" d="M21.35,30.11c.17.33-.07-.26,0-.03.03.11.07.21.1.32.02.08.02.2.06.26-.03-.28-.04-.34-.03-.19,0,.04,0,.09,0,.13,0,.2-.04.41-.02.61-.04-.39.03-.24-.01-.05-.03.11-.05.22-.09.33s-.08.22-.11.33c-.08.25.16-.31.03-.08-.12.2-.22.42-.35.61-.03.04-.21.26-.2.29-.02-.07.25-.28.04-.07-.16.17-.33.34-.5.5s-.02.06.05-.03c-.06.08-.24.17-.33.23-.2.13-.41.25-.62.36-.12.06-.24.11-.36.17-.21.11.31-.11-.05.02-.23.08-.45.16-.68.23-.49.15-.99.27-1.49.36-.27.05-.53.09-.8.13-.22.03-.12.03.04,0-.16.03-.32.04-.48.06-.98.12-1.79.66-1.93,1.7-.12.86.44,2.02,1.4,2.15,1.43.2,2.86.16,4.23-.34s2.58-1.23,3.52-2.29c1.92-2.16,2.64-5.17,1.91-7.97l-3.58,1.51c.12.17.23.34.33.52.17.33.09,0,0-.04.02,0,.09.26.08.26.02.09.04.18.07.26.11.38-.02-.13,0-.12.09.08.03.64.02.75,0,.09.03.36,0,.08-.03-.3-.01.07-.03.15-.04.18-.09.36-.14.54,0,.03-.06.23-.09.26l.09-.21c-.03.06-.06.13-.09.19-.1.21-.24.4-.35.6-.14.24.32-.34.01-.01-.06.07-.12.14-.19.21-.14.15-.29.28-.44.41-.35.32.23-.14-.02.01-.11.06-.21.14-.31.21-.21.13-.44.24-.66.35-.24.12,0,.07.05-.02-.02.03-.23.09-.28.1-.22.07-.43.14-.65.19s-.45.1-.67.14c-.3.06.04.04.07,0-.02.03-.42.04-.46.04-.46.03-.92,0-1.38-.01-.12,0-.34.04.05.01-.08,0-.24-.04-.31-.06-.1-.02-.2-.06-.3-.08-.39-.09.2.17-.11-.05-.01,0-.4-.31-.19-.11.19.17-.05-.06-.09-.11-.08-.08-.27-.36-.04-.02-.06-.09-.12-.17-.17-.26s-.1-.18-.15-.27c-.19-.32,0,.07.03.09-.13-.15-.18-.55-.22-.73-.02-.08-.1-.36-.02-.08.09.31,0-.09,0-.15-.01-.19-.01-.37,0-.56,0-.01,0-.25.02-.28l-.03.24c.01-.07.02-.14.04-.21.05-.23.11-.45.18-.67l.02-.07c.08-.2.06-.17-.04.08,0-.06.1-.21.12-.25.09-.17.19-.32.28-.48.22-.39-.2.21-.01,0,.08-.08.15-.18.23-.26.07-.07.13-.13.2-.19.28-.27-.28.13.09-.08.09-.05.18-.11.27-.16.44-.26-.37.15.1-.04.25-.1.09.09-.08-.02.03.02.38,0,.42,0,.38,0-.08.02-.11-.02.01.02.38.1.41.11s.23.06.27.09c-.24-.11-.27-.12-.07-.03l.13.06c1.04.49,2.05,1.13,3.2,1.36,1,.2,2.17-.29,2.41-1.37.26-1.15-.35-1.98-1.37-2.41-1.2-.51-2.66-.3-3.78.31-1.29.71-2.01,2.03-2.17,3.46-.15,1.34.4,2.98,1.59,3.72.79.5,1.81.52,2.63.08.69-.37,1.19-.98,1.64-1.61.85-1.18,1.12-2.77.33-4.06-.94-1.54-3.1-2.05-4.47-.76-1.19,1.12-1.68,3.1-.93,4.58.59,1.17,1.92,1.85,3.21,1.76,3.16-.21,4.28-4.33,1.99-6.36s-5.8-1-7.11,1.6c-.76,1.5-.5,3.27.86,4.32,1.23.95,2.94.96,4.23.12,2.33-1.51,2.57-5.09.46-6.89-1.19-1.02-2.69-1.41-4.23-1.11-1.38.27-2.6,1.25-3.33,2.43-.9,1.47-.89,3.31.33,4.6,1.16,1.22,2.83,1.41,4.42,1.3l-.52-3.85c-.38.11-.76.23-1.14.31-.09.02-.8.13-.31.08-.16.02-.33.03-.5.04-.11,0-.22,0-.33,0-.23-.02-.22-.02.04.01-.12.03-.35-.09-.47-.13.42.15-.13-.07-.2-.16.31.37.01-.04-.08-.13-.09-.11-.07-.07.08.11-.06-.08-.11-.16-.16-.24-.05-.08-.09-.17-.13-.26.09.22.11.27.06.13-.02-.1-.18-.4-.13-.49.03.29.04.31.01.07,0-.08,0-.17,0-.25,0-.11.09-.68,0-.23.04-.19.08-.38.14-.57.03-.09.26-.63.07-.24.1-.2.2-.4.32-.59.5-.84.25-1.94-.51-2.53s-1.89-.55-2.57.15c-1.39,1.44-2.24,3.44-2.14,5.46s.99,3.98,2.53,5.28c.75.64,1.76.78,2.57.15s.93-1.63.51-2.53l-.28-.59-3.39,1.98c.94,1.29,2.21,2.26,3.8,2.61.96.21,1.92-.21,2.31-1.14s0-1.88-.8-2.45c-.22-.15-.44-.31-.66-.47-.05-.04-.46-.37-.12-.08-.08-.07-.17-.13-.25-.2-.22-.19-.44-.39-.64-.6-.09-.1-.18-.2-.26-.3.18.2.08.12-.02-.05-.07-.11-.14-.22-.21-.34-.03-.05-.2-.46-.11-.21s-.05-.17-.06-.22c-.04-.13-.07-.26-.1-.39-.02-.08-.03-.16-.05-.24l.03.2c-.05-.11-.03-.37-.03-.49,0-.27,0-.55.02-.82,0-.05.04-.52.02-.23s.04-.23.04-.23c.05-.27.11-.54.17-.81s.15-.52.22-.78c-.1.36-.03.07.03-.04.2-.35.06,0-.02,0,0,0,.29-.29.29-.29,0,.06-.33.22-.07.06.12-.07.23-.14.36-.21.05-.03.42-.21.15-.08s.13-.05.16-.06c.11-.04.22-.08.34-.11.25-.08.5-.15.75-.22l-1.51-3.58c-1.49.93-2.74,2.25-3.5,3.84l3.39,1.98c.16-.35.32-.69.5-1.03.1-.19.21-.38.33-.56.06-.09.12-.18.18-.27-.13.16-.14.19-.05.08.13-.12.25-.26.38-.39-.32.31.06-.03.17-.09.45-.25-.2.07.17-.06.22-.05.2-.05-.07,0,.1,0,.2,0,.3,0l-.52-3.85c-2.25.5-4.39,1.78-5.85,3.57l3.28.87c-.03-.1-.06-.19-.08-.29.03.27.04.3.03.07.02-.22.01-.2-.02.07.02-.1.05-.2.08-.3.09-.37-.18.24.05-.11.05-.08.44-.63.13-.26.21-.26.45-.48.7-.7.17-.13.14-.12-.07.05.07-.05.15-.11.23-.16.12-.08.23-.15.36-.21.15-.08.33-.21.5-.25-.48.11-.08.04.05,0,.25-.08.82-.34,1.08-.26l-.24.03c.09-.01.19-.02.28-.02.19-.01.37-.02.56-.01.14,0,.28.02.42.02.22.02.19.02-.11-.02.09.01.18.03.27.05.32.06.63.16.94.27.2.08.17.07-.08-.04.09.04.17.08.25.12.13.07.25.13.37.21.14.08.37.19.47.31-.21-.16-.23-.18-.06-.04.05.05.11.09.16.14.21.19.64.5.73.77-.14-.19-.17-.23-.09-.12.04.06.08.11.12.17.11.16.21.32.31.48.08.14.16.29.24.44.03.06.06.13.09.19.09.2.08.17-.03-.08.18.21.23.68.3.95.04.15.13.4.11.56-.04-.29-.04-.32-.02-.1,0,.09.01.19.02.28.06,1.02.86,2.01,1.96,1.96,1.01-.05,2.02-.86,1.96-1.96-.14-2.5-1.24-4.95-3.2-6.56l-1.39,3.35c.44.01-.43-.11-.03,0l-.24-.1c.14.09.14.08,0-.02-.13-.11-.13-.11,0,0l.09.09s.09.1.13.15c.09.11.06.07-.1-.13.11.03.3.49.35.59.12.24.23.48.34.73.03.07.18.45.04.1.05.14.11.27.16.41.11.3.21.61.29.92.04.14.06.28.09.42.05.22,0-.3,0,.07,0,.17,0,.34,0,.51,0-.34,0-.02-.04.15l3.85.52c.04-1.15.08-2.29.11-3.44l-3.65.99c.16.33-.02-.14.04.08.03.14.09.27.12.41.03.11.05.22.07.33-.1-.43,0,.06,0,.15h3.92c-.2-1.67-.68-3.25-1.64-4.65-.58-.85-1.75-1.3-2.68-.7-.84.54-1.32,1.78-.7,2.68.17.25.33.51.47.77.07.12.12.24.19.37.24.47-.12-.36.06.14.09.26.18.52.25.79.04.16.08.32.11.48.02.1.08.6.03.13.12,1.02.82,2.01,1.96,1.96,1.03-.05,2.01-.86,1.96-1.96s-.3-2-.76-2.95c-.36-.74-1.44-1.15-2.21-.9-.84.27-1.41,1-1.44,1.89-.04,1.15-.08,2.29-.11,3.44-.07,2.2,3.32,2.67,3.85.52s-.18-3.93-1.01-5.78c-.73-1.63-1.96-3.06-3.87-3.11-.78-.02-1.5.51-1.79,1.21s-.19,1.65.41,2.14c.36.29.68.62.98.97.14.17.06.1-.02-.03.07.11.15.21.22.32.13.19.24.39.35.6.05.09.09.18.14.27.12.24.06.02-.02-.05.11.09.18.51.22.65.06.22.11.45.16.67.08.38,0-.24,0,0,0,.13.02.25.03.38h3.92c-.18-3.1-1.89-6.16-4.72-7.58s-6.41-1.08-8.96.95c-1.59,1.26-2.7,3.43-2.07,5.46.21.66.69,1.18,1.37,1.37.62.17,1.48.02,1.91-.5.29-.36.6-.69.94-1,.09-.09.2-.16.29-.25.21-.19-.37.26.03-.02.19-.13.38-.26.57-.38s.4-.23.6-.34c.09-.05.18-.09.27-.13.33-.17-.2.07.02-.01.46-.17.91-.31,1.39-.42.95-.21,1.53-1.24,1.4-2.15-.13-.98-.94-1.66-1.93-1.7-2.66-.1-4.3,2.11-5.29,4.27-.43.93-.3,2.15.7,2.68.87.46,2.21.29,2.68-.7.14-.3.3-.59.48-.87.09-.15.19-.3.3-.44-.22.25-.04.06.08-.07.2-.23.42-.44.65-.64.14-.13.3-.31.08-.07.13-.14.35-.24.51-.34.83-.52,1.19-1.54.8-2.45s-1.36-1.39-2.31-1.14c-1.33.36-2.75.85-3.7,1.91-1.13,1.26-1.45,3.07-1.6,4.7s.14,3.25.99,4.58,2.12,2.27,3.4,3.17l1.51-3.58c-.23-.05-.44-.12-.66-.19-.25-.08.27.16.05.01-.1-.07-.23-.12-.33-.19-.09-.05-.17-.11-.25-.17.13.09.19.17.04.02-.09-.09-.18-.18-.27-.27-.07-.07-.28-.36-.03-.02-.6-.83-1.73-1.32-2.68-.7s-1.18,1.69-.7,2.68l.28.59,3.08-2.38c-.28-.23-.53-.49-.76-.77.21.26.04.04-.05-.11-.08-.13-.16-.27-.23-.4-.05-.09-.09-.18-.14-.28l.08.18c-.09-.13-.13-.36-.17-.51-.04-.14-.14-.38-.12-.53l.03.21c-.01-.1-.02-.21-.02-.31,0-.15,0-.31,0-.46,0-.1.01-.21.02-.31l-.03.21c0-.34.17-.73.27-1.05.13-.39-.17.29.05-.1.08-.14.14-.27.23-.41s.17-.26.26-.39c-.29.39.13-.12.2-.19l-3.08-2.38c-1.35,2.28-1.49,5.11.26,7.21s4.55,1.81,6.89,1.1c.94-.28,1.54-1.18,1.4-2.15-.12-.91-.95-1.77-1.93-1.7-.36.02-.72.02-1.08.04-.51.03.3.12-.19-.01-.03,0-.31-.05-.34-.1l.22.09c-.08-.04-.16-.08-.24-.13l.18.14c-.07-.06-.13-.12-.2-.19l.14.19c-.11-.19-.1-.15.02.12-.11-.38-.05.44,0-.02-.04.51,0,.02.07-.07-.28.39,0,.03.06-.05l.08-.12c.12-.18.11-.16-.04.05,0,0,.17-.18.2-.21l.11-.1c.16-.14.14-.12-.06.04.04-.08.29-.18.37-.22.39-.23-.38.08.06-.01.07-.02.14-.04.21-.05.15-.03.09-.02-.17.02.01-.02.41-.02.41,0l-.25-.04c.09.02.18.03.27.06l.13.04c.2.07.17.06-.09-.05.03,0,.24.13.24.13.38.2-.25-.3.04.02l.1.09c.14.16.13.13-.05-.08.03.01.22.32.2.35l-.1-.22c.03.08.05.17.07.25.12.4.04-.41-.01,0v.13c-.02.22-.01.18.02-.13-.01,0-.07.38-.11.38-.02,0,.23-.45.03-.11-.21.36.32-.25,0,.02-.35.29.39-.21-.05.05-.4.24.35-.05-.11.03l.22-.03c-.23,0-.21,0,.06.03-.41-.07.33.22-.01,0,.49.33-.11-.24.25.24-.2-.27.05.1.06.23.01.09-.03.58.01.17l-.08.17c.05-.1.1-.19.16-.28.21-.41-.26.21.07-.08.09-.08.18-.17.27-.26.11-.09.07-.07-.1.08.08-.06.17-.11.25-.15.36-.24-.35.04.08-.03l.14-.04c.22-.04.19-.04-.09.01.03-.05.5.06.16-.01s.15.04.15.06l-.21-.09c.08.04.17.08.25.13.38.19-.24-.28.03.05-.29-.34-.11-.11-.03,0,.07.13.04.07-.08-.18.05.21.05.16,0-.15v.13c0,.22,0,.17.04-.14l-.03.12c-.06.2-.04.16.07-.12-.16.28.07-.05.1-.09-.29.29.39-.16.02,0l.25-.1c-.21.05-.15.06.17,0h-.12c-.21,0-.16,0,.16.04-.33-.08.12.05.13.08-.07-.03-.14-.07-.2-.12.16.09.29.21.37.38-.17-.27.05.23.05.31-.04-.44-.14.31.02-.12.13-.36.02-.05-.02,0l.08-.15c.12-.19.11-.18-.04.01l-.15.12c-.3.17-.61.22-.93.13l-.24-.11c.18.11.14.08-.1-.08-.28-.28-.14-.22-.08-.09-.09-.15-.14-.32-.12-.5,0,.23,0,.2.03-.07l-.04.15c-.07.21-.06.19.02-.05,0,.04-.34.55-.19.32.16-.24-.13.16-.14.17-.07.08-.14.15-.22.22.29-.27.66-.34,1.11-.21l.53.29c.16.23.19.25.07.07-.08-.16-.09-.16-.02-.02.06.15.06.14,0-.02l-.03-.13c-.04-.22-.04-.18.01.11,0-.09,0-.18,0-.28.02-.22.01-.18-.02.11-.02-.02.09-.38.11-.4l-.09.22c.04-.08.09-.16.14-.24l-.14.18c.06-.07.12-.14.19-.2-.22.16-.24.18-.07.06.08-.05.16-.09.24-.13-.05-.01-.36.1-.08.05.09-.03.18-.05.27-.07-.29.03-.33.04-.11.02h.14c.22.01.18,0-.11-.03.05-.05.47.14.53.17l1.04-3.78c-.25-.05-.63-.1-.84-.25.3.21.17.08.06.02-.13-.07-.27-.13-.41-.2-.64-.32-1.27-.65-1.94-.92-1.38-.55-2.87-.48-4.18.22-2.27,1.22-3.57,4.07-3.28,6.59.17,1.45.69,2.87,1.76,3.92,1.12,1.1,2.62,1.47,4.15,1.51,2.56.08,5.39-.74,7.15-2.7,1.92-2.13,2.6-5.64.82-8.08-.58-.8-1.49-1.21-2.45-.8-.9.38-1.39,1.36-1.14,2.31.06.23.15.5.16.74,0-.25-.03-.25-.01,0,0,.13.01.25.01.38,0,.23-.02.45-.03.68,0,.25.08-.37,0,0-.03.12-.05.25-.08.37-.05.22-.11.44-.19.65-.02.07-.05.14-.08.21-.05.13-.03.09.06-.12,0,.07-.1.21-.13.27-.11.22-.24.44-.37.65-.03.05-.27.4-.11.17s-.12.14-.13.15c-.15.17-.31.33-.48.48-.09.08-.18.18-.29.24.22-.13.15-.12-.03,0-.21.14-.42.27-.65.39-.06.03-.29.18-.34.17.06.02.33-.12.05-.02-.24.08-.47.16-.72.23-.12.03-.24.06-.37.08-.05.01-.1.02-.15.03-.15.02-.1.02.15-.02,0,.02-.62.04-.68.04-.13,0-.25,0-.38,0-.12,0-.59-.06-.08.01l-.52,3.85c2.74-.32,5.63-.87,7.69-2.87s2.79-5,1.5-7.55c-.46-.92-1.83-1.25-2.68-.7-.94.6-1.2,1.7-.7,2.68h0Z"/>
      <path class="cls-1" d="M43.94,29.14c.34-1.37-.3-2.77-1.54-3.44-1.31-.71-2.75-.41-3.86.52-1.69,1.41-1.98,4.03-1.12,5.94.44.98,1.38,1.92,2.46,2.17,1.66.38,2.95-.82,3.47-2.3.69-1.96-.26-4.29-1.85-5.52-1.14-.88-2.61-1.25-3.94-.55-.93.49-1.58,1.45-1.79,2.46-.43,2.01.45,4.18,2.01,5.49,1,.85,2.28,1.57,3.63,1.27,1.25-.28,2.19-1.53,2.47-2.73.48-2.07-.43-4.38-1.98-5.78-1.01-.92-2.29-1.48-3.67-1.19-1.13.24-2.11,1.1-2.63,2.11-1.08,2.08-.85,4.92,1.08,6.45.98.78,2.14,1.21,3.4,1.04s2.29-.84,2.99-1.86c1.42-2.1.22-4.67-1.5-6.15-1.04-.89-2.33-1.66-3.76-1.27-1.24.34-2.07,1.36-2.48,2.54-.71,2.03-.04,4.62,1.55,6.06,1.77,1.6,4.51,2,6.36.3s1.7-4.27.98-6.39c-.4-1.2-.86-2.32-1.91-3.09-.72-.52-1.71-.77-2.6-.67-2.18.24-3.96,1.92-3.86,4.22s1.96,4.47,4.38,4.43,4.12-2.46,3.9-4.79c-.12-1.24-.57-2.32-1.09-3.43-.46-1-1.82-1.15-2.68-.7-.46.24-.92.48-1.38.72-1.3.67-1.26,2.7,0,3.39.8.43,1.78.61,2.65.27.6-.23,1.26-.67,1.37-1.37.14-.92.07-1.75-.47-2.54s-1.28-1.29-2.17-1.48c-1.61-.34-3.2.26-4.45,1.26-2.15,1.71-2.89,4.72-2.1,7.3.4,1.31,1.14,2.6,2.2,3.47,1.19.98,2.83,1.61,4.36,1.04,1.43-.53,2.47-1.75,2.83-3.23s.06-3.05-.26-4.54c-.3-1.38-.81-2.7-1.78-3.75-1.09-1.18-2.65-1.68-4.22-1.42-3.1.52-4.45,3.63-4.72,6.42s1.17,5.4,3.7,6.65c1.31.65,2.7.93,4.15,1.01,1.2.06,2.63.09,3.76-.35,1.84-.72,2.53-2.5,2.05-4.36-.32-1.25-.98-2.5-1.65-3.6s-1.51-2.23-2.42-3.2c-.51-.55-1.08-1.04-1.77-1.33-.77-.33-1.58-.4-2.41-.3-2.54.31-5.15,1.71-5.92,4.31-.46,1.55-.05,3.12.62,4.53.53,1.11,1.27,2.27,2.22,3.06,1.26,1.05,2.71,1.38,4.31,1.54,1.39.14,2.87.13,4.2-.35s2.53-1.37,3.19-2.64c.77-1.48.67-3.13-.08-4.6-.66-1.29-1.87-2.23-3.07-2.99-1.14-.72-2.39-1.42-3.73-1.7-1.46-.3-2.98-.19-4.3.54-1.2.67-2.06,1.88-2.38,3.21s-.22,2.55.02,3.82.75,2.59,1.59,3.65c1.81,2.27,4.92,2.3,7.55,1.92,1.35-.19,2.61-.66,3.67-1.53s1.67-2.07,1.96-3.33c.58-2.57.24-5.68-1.59-7.69-.85-.94-2.01-1.52-3.14-2.05l-.99,3.65c.46.02-.26-.09-.02,0,.06.02.31.03.35.1-.07-.12-.31-.15,0,0,.11.06.21.13.31.19.31.18-.14-.15.01.01.08.09.18.17.27.26.04.04.31.36.14.14s.09.15.1.16c.15.24.27.49.39.74-.08-.16-.07-.18,0,0,.05.13.09.26.14.4.18.56.31,1.14.44,1.72l3.78-1.04c-.38-1.38-1.12-2.64-2.16-3.63-.61-.58-1.64-.78-2.38-.31s-1.19,1.37-.9,2.21l.55,1.61,3.58-1.51c-.9-1.7-3.29-2.05-4.76-.91-.82.64-1.24,1.57-1.29,2.6s.4,1.93,1.03,2.7l1.91-3.28c-.38-.08-.8-.15-1.2-.13-.3.01-.04.04.12.08.12.06.14.07.06.03-.13-.08-.06-.03.2.15.04.04.27.37.14.15.11.3.15.37.11.22-.02-.1-.02-.07,0,.1.02.19.03.21.02.05l-.05.31s.13-.42,0-.07c-.07.15-.08.18-.03.09.08-.13.03-.06-.14.19-.06.06-.37.24-.12.11-.61.33.12.01-.27.11-.18.02-.19.03-.02.03l-.28-.03c.34.07-.26-.17-.06-.05.32.18-.05-.04-.04-.07,0,0,.18.18.17.18-.11-.09-.18-.2-.21-.33-.22-.51-.1-1.04.37-1.58l.87-.5-.09.03h1.04c.28.15.31.16.07.03l-.16-.09c-.19-.11-.38-.22-.57-.33-.35-.2-.7-.41-1.05-.61l.97,1.69.03-.43c.06-.82-.65-1.71-1.44-1.89-.91-.21-1.67.17-2.21.9l1.29-.74.32.05c.24.07.44.23.59.43.32.42.32.83.12,1.26-.1.12-.08.11.04-.03l-.17.13s.25-.13.25-.14c0,.07-.39.11-.08.05.09-.02.43-.01.15-.04s.02.01.09.01c.1,0,.19.01.29.01.25,0-.46-.1-.01,0,.1.02.2.04.29.07.2.05.39.11.58.18.01,0,.46.18.19.07s.16.08.17.08c.73.35,1.51.36,2.18-.15.59-.46.95-1.31.7-2.06-.45-1.39-1.35-2.54-2.6-3.3s-2.72-.97-4.18-.74c-.96.15-1.52,1.28-1.4,2.15.14,1.02.94,1.61,1.93,1.7.55.05-.39-.09.15.02.11.02.22.04.33.07.3.07.59.18.89.27.28.08-.39-.2.08.03.13.06.25.12.38.19.27.15.53.31.78.49.68.48,1.83.29,2.38-.31.58-.63.79-1.62.31-2.38-.85-1.33-2.23-2.38-3.82-2.61-.55-.08-1.01-.09-1.51.2-.41.24-.79.7-.9,1.17-.23,1,.3,2.16,1.37,2.41.28.07.56.15.83.25-.18-.07-.14-.07,0,.02s.3.17.45.26l1.98-3.39c-1.96-.85-3.89-1.6-6.06-1.22-.94.16-1.95.61-2.63,1.3-.48.48-.79,1.17-.78,1.86.02,1.02.67,1.74,1.6,2.06.97.34,2.19-.38,2.41-1.37.25-1.09-.33-2.05-1.37-2.41l-.08-.03.87.5-.05-.06.5.87-.15,1.13c-.06.12-.15.21-.26.28-.1.07-.11.08-.02.02.06-.04.12-.08.19-.12.03-.02.23-.15.27-.14-.09-.04-.33.12.03.01.12-.04.24-.06.37-.09.26-.06.03-.05-.07,0,.16-.09.58-.01.77,0,.22,0,.11-.02-.04-.02.13,0,.3.05.43.08.26.06.51.13.76.21.28.09.55.2.83.3.15.06.2.08.02,0,.16.07.32.14.49.21.94.41,2.15.31,2.68-.7.51-.96.23-2.11-.7-2.68-.68-.42-1.45-.74-2.23-.93l-1.04,3.78c.22.03.44.07.65.14.07.02.14.05.21.07l-.2-.08c.09,0,.26.14.32.18.04.02.32.21.11.06-.23-.16.1.09.14.13.02.02.21.2.2.22-.14-.19-.16-.22-.08-.1.04.06.08.12.12.19l2.68-2.68c-1.36-.96-2.93-1.45-4.58-1.6l.52,3.85c-.12.02-.38.03-.12.02.11,0,.23,0,.34,0,.07,0,.37-.01.08,0-.27,0-.01,0,.07.02.13.03.46.2.59.18-.09.02-.34-.17-.1-.03.1.06.2.11.3.17.08.05.15.1.23.15.21.13-.25-.23-.07-.05.06.06.36.43.43.43-.05,0-.22-.33-.06-.07.05.08.1.15.15.23.02.04.26.37.08.13-.15-.2.02.05.05.15l2.88-2.21c-2.06-.97-4.75-1.57-6.56.25-1.07,1.08-1.4,3.01-.2,4.14.51.49,1.19.77,1.9.78.93.01,1.62-.48,2.14-1.2l-3.65-.99-.03.43c-.05.67.41,1.37.97,1.69.66.38,1.32.8,2,1.15,1.27.66,2.97.11,3.26-1.4.39-1.99-1.5-3.69-3.4-3.7-1.8-.01-3.27,1.46-3.22,3.27.02.83.35,1.63.94,2.21.35.35.82.59,1.29.71.3.08.63.1.94.11.11,0,.69.08.24-.01.83.17,1.79-.1,2.21-.9s.27-1.67-.31-2.38c.16.22.19.24.07.06.1.26.11.29.04.09-.09-.4.08.41,0-.01-.07-.38-.07.36.02,0-.03.16-.11.3-.24.41.11-.11.1-.1-.03.01-.14.1-.15.12-.01.04-.3.12-.36.15-.16.09l-.3.04c.07,0,.15,0,.22,0-.34-.06-.41-.06-.2,0l-.27-.11c.17.11.12.07-.15-.12-.19-.27-.23-.31-.13-.13.46.86,1.59,1.16,2.45.8s1.45-1.38,1.14-2.31l-.55-1.61-3.28,1.91c.17.16.32.34.48.51s-.17-.27.02.04c.07.11.14.22.21.33.12.19.26.41.32.62-.05-.15-.09-.24-.03-.03.05.15.09.3.14.45.27.99,1.4,1.7,2.41,1.37s1.61-1.34,1.37-2.41c-.32-1.45-.72-2.94-1.61-4.15-1.05-1.41-2.51-2.35-4.29-2.44-.82-.04-1.71.64-1.89,1.44s.1,1.85.9,2.21c.39.18.78.36,1.16.56.21.11.42.23.62.37.05.03.33.22.13.08-.22-.15.13.11.17.15.09.09.47.52.22.19.12.17.23.34.33.53.04.09.1.19.14.28-.14-.41-.05-.11-.03-.03.07.25.15.5.2.76.02.07.06.23.06.31.03-.37-.02-.18,0-.05.02.21.04.41.05.62.02.4.09.97-.04,1.34.13-.38.03-.21,0-.08-.02.1-.04.19-.06.29-.04.19-.11.38-.16.57-.11.4,0-.07.04-.06,0,0-.11.23-.13.26-.04.08-.09.17-.14.25-.04.06-.08.12-.12.18-.08.12-.05.08.09-.11.01.02-.37.41-.42.42.24-.07.19-.13.04-.04-.08.05-.17.11-.25.16s-.18.09-.26.14c-.37.19.06-.03.06-.02-.01.08-.64.2-.72.22-.2.05-.4.08-.6.12-.41.07.05,0,.06,0-.03.02-.25.03-.31.03-.46.04-.93.07-1.39.07-.21,0-.42,0-.63-.02-.06,0-.27,0-.31-.03.12.09.31.06.06,0-.2-.04-.39-.1-.59-.15-.39-.1.02.04.05.04-.09,0-.32-.16-.4-.21-.07-.04-.21-.11-.25-.17.02.03.3.29.05.01-.07-.07-.14-.14-.21-.22-.14-.15-.15-.05.03.04-.13-.07-.24-.38-.31-.51-.04-.07-.11-.19-.13-.27.12.46,0-.01-.02-.1-.13-.38-.23-.77-.31-1.17-.03-.16-.03-.42-.1-.57.13.24.03.3.02.09-.01-.15-.02-.29-.03-.43,0-.19,0-.38,0-.58,0-.06.04-.25.02-.28.02.05-.1.46,0,.1.04-.18.09-.36.14-.54.08-.28-.06.03-.04.09-.02-.07.17-.3.2-.36.13-.24-.06,0-.06.07,0-.03.19-.2.19-.2.12-.13.08-.2-.05.03.03-.05.22-.13.25-.16.08-.05.3-.23-.07,0,.07-.04.21-.07.28-.1.1-.03.19-.05.29-.07.36-.09-.24,0,0,0s.45-.01.68,0c.16,0,.26-.07-.07-.01.08-.01.28.06.34.07.22.05.44.13.65.2.07.02.35.13,0,0,.13.05.26.12.39.18.44.22.86.46,1.28.72.19.12.38.24.57.36.09.06.19.13.28.19.04.03.4.31.21.15s.09.08.13.12c.08.07.17.15.25.23s.15.17.23.25c.22.2-.21-.36.04.05.11.18.22.36.31.56-.04-.08-.1-.35-.03-.02.01.06.11.49.06.2-.04-.27,0,.06,0,.13,0,.1-.09.38,0,.12.12-.37-.27.49-.06.18.17-.26-.08.11-.1.14-.06.12-.07.28.06-.05-.07.17-.33.33-.46.46-.19.19.29-.17.05-.04-.08.05-.16.11-.25.15s-.17.09-.26.14c-.23.14.36-.1.06-.02-.23.06-.45.14-.68.19-.1.02-.49.07-.09.03-.15.02-.29.03-.44.03-.48.02-.95,0-1.42-.03-.23-.02-.47-.05-.7-.07-.31-.03.31.06,0,0-.17-.04-.34-.06-.51-.1-.11-.03-.22-.06-.33-.09-.05-.02-.39-.14-.17-.05s-.1-.06-.15-.08c-.09-.05-.18-.12-.27-.17-.24-.13.21.22.03.02-.07-.08-.15-.14-.23-.21s-.14-.15-.21-.23c-.13-.15-.19-.25-.04-.03-.26-.37-.51-.76-.73-1.16-.11-.2-.21-.41-.31-.61-.14-.26.08.28,0,0-.04-.13-.1-.27-.14-.4-.03-.11-.05-.22-.08-.33-.1-.35-.01-.06,0,.03-.01-.14-.02-.27-.01-.41,0-.07.06-.4,0-.15s.02-.04.04-.1c.02-.08.06-.17.08-.25.07-.24-.2.31-.04.11.06-.08.11-.19.16-.28.19-.34-.07.11-.08.08,0-.02.15-.17.17-.19.06-.06.12-.12.19-.18.03-.03.37-.29.11-.1-.24.17.24-.15.3-.19.13-.07.4-.28.55-.28-.23,0-.29.11-.09.04.09-.03.17-.06.26-.09.17-.06.35-.1.53-.14.09-.02.18-.03.27-.05.43-.1-.33,0,0,0,.11,0,.22-.02.34-.02.2,0,.34.02.06-.03.11.02.21.05.32.08-.32-.09-.13-.03-.02.02-.27-.14-.1-.09,0,0,.08.08.16.15.24.23.35.36.68.74,1,1.13.24.28.05.06,0,0,.07.09.13.18.2.27.13.18.26.36.39.55.28.42.54.85.79,1.29.22.39.41.79.6,1.2.16.34.03.06,0,0,.04.1.09.21.13.31.09.24.16.48.23.73.03.1.05.38,0-.07.04.32.02,0,.04-.09-.07.33.01,0,.05-.07.08-.14.2-.23.33-.31-.3.17.07-.02.11-.02-.05,0-.2.07-.26.08-.01,0-.24.07-.27.06.27-.03.33-.04.18-.03-.07,0-.14.01-.21.02-.47.03-.94.05-1.41.05-.24,0-.47,0-.71-.02-.12,0-.23-.02-.35-.03-.07,0-.6-.11-.18-.02-.46-.1-.91-.2-1.36-.34-.37-.11.06,0,.07.04,0-.01-.22-.1-.26-.12-.22-.11-.43-.23-.63-.36-.03-.02-.24-.16-.24-.16,0-.02.36.32.06.04-.14-.13-.28-.26-.41-.4-.02-.03-.18-.22-.19-.21.05-.02.21.31.05.06-.06-.09-.26-.59-.34-.62.06.02.13.43.04.07-.03-.11-.06-.22-.09-.33s-.05-.22-.06-.33c.01.09.02.38.02.01,0-.23,0-.46,0-.69,0-.11.02-.23.03-.34.04-.56-.08.38.02-.13.08-.42.18-.82.31-1.22.03-.09.15-.33-.02.03.05-.09.09-.19.14-.28s.1-.18.15-.27c.06-.1.35-.43.06-.11.08-.09.31-.41.43-.42,0,0-.4.24-.03.04.09-.05.18-.1.26-.15.21-.12.04-.11-.05.02.03-.03.27-.08.29-.08.27-.08-.01-.06-.08,0,0,0,.53-.06.18-.02-.25.03,0,0,.1.03l.07.02c.2.07.18.06-.08-.04.03,0,.24.13.25.14.17.09.17,0-.05-.06.05.01.41.4.4.4-.02.01-.26-.4-.05-.05.06.1.13.2.19.3.05.09.1.19.15.29.14.25-.08-.28,0,0,.07.24.16.48.23.72.13.47.22.95.32,1.43.02.12.05.25.07.37,0,.05.07.44.04.21s.01.15.02.21c0,.12.02.25.02.37,0,.16,0,.31-.02.47,0-.07.07-.31,0-.01-.02.09-.05.18-.07.27-.09.35.13-.2,0,0-.05.08-.1.16-.14.25-.1.24.24-.24.06-.06-.06.06-.13.13-.19.2-.16.19.3-.15.07-.06-.09.04-.32.1-.08.05l.1-.05c-.22.05-.19.06.09.01-.05.04-.26-.04-.29,0,.03-.06.45.1.03-.01-.07-.02-.35-.14-.11-.03s-.04-.03-.1-.07c-.09-.05-.17-.11-.25-.16-.23-.14.22.22.04.02-.13-.15-.29-.3-.43-.43-.21-.2.24.4-.02-.03-.07-.12-.15-.23-.22-.34-.05-.09-.11-.19-.16-.28-.03-.05-.18-.36-.07-.13s-.03-.08-.05-.14c-.04-.1-.07-.2-.1-.31-.06-.21-.1-.42-.15-.63-.07-.28,0,.33,0,.04,0-.13-.02-.27-.02-.4s.02-.27.01-.4c-.01-.29-.07.32-.01.04.04-.2.08-.39.14-.58.03-.09.06-.18.09-.27.08-.26-.17.31-.03.08.11-.18.21-.37.32-.56.18-.3-.03,0-.06.05.06-.1.16-.19.23-.27.13-.14.27-.26.41-.39.2-.18-.29.18-.06.05.08-.05.16-.1.24-.15s.17-.08.25-.13c.2-.12-.36.11-.01,0,.1-.03.2-.06.29-.09.38-.13,0-.04-.03-.02,0,0,.3-.04.33-.01l-.2-.04c.08.01.16.03.24.06.24.05-.16-.1-.2-.12-.28-.1.14.16-.05-.06l-.07-.09c.08.16.09.16.02.01-.02-.23-.07-.36-.03-.61l1.37-1.37c-.35.13.25.03.02.03-.16,0,.28.05.35.09v3.39c.46-.24.92-.48,1.38-.72l-2.68-.7c.07.16.14.32.21.47-.18-.4.05.13.07.17.1.27.16.55.25.82.16.48.02-.23.02.07,0,.14,0,.29.01.43.04.43.12-.4,0,.02-.02.07-.03.13-.06.2-.05.14-.02.09.08-.15,0,.03-.17.36-.2.36.17,0,.21-.31.01-.03-.13.19.39-.2.04-.02-.39.19.42-.06-.01,0h.11c.17-.03.15-.03-.05-.02l.19.03c-.11-.02-.22-.05-.32-.09.34.11.09.04,0-.03-.12-.08-.08-.04.14.12-.06-.05-.13-.11-.19-.17-.32-.26.19.36-.01,0-.04-.07-.09-.15-.13-.22-.23-.35.09.41,0,0-.02-.09-.04-.22-.08-.31-.1-.21,0,.48.02.09v-.12c.01-.22,0-.17-.03.15,0,0,.05-.21.06-.24.07-.2.05-.16-.06.12.04-.07.08-.14.12-.21.05.14-.32.32-.05.09.2-.17-.43.24-.08.06l.1-.06c.18-.09.13-.08-.16.05.04,0,.17-.06.22-.07.33-.09.19.09-.07-.01.07.03.27,0,.34,0,.25,0-.04.12-.18-.02.07.02.15.04.22.06-.29-.13-.34-.16-.16-.07,0,0,.16.12.19.12l-.22-.16c.13.14.11.1-.05-.1.1.08.14.25.21.35.17.25-.14-.41.03.06.23.65.42,1.29.59,1.97.07.3.01-.43,0,.1,0,.17,0,.34,0,.5,0,.41.02-.09.02-.09.04.07-.09.35-.11.42-.1.43.22-.3-.03.06-.02.03-.14.25-.15.24l.13-.17c-.06.07-.13.14-.2.2.22-.15.23-.17.05-.05l-.12.07.21-.09c-.09.03-.17.06-.26.07l.25-.03c-.09,0-.18.01-.28.01-.28.03.03.06.11.03-.08.04-.33-.08-.41-.1-.43-.1.23.15,0,0-.1-.06-.21-.12-.31-.18-.4-.21.26.28-.06-.04-.04-.04-.3-.26-.3-.31l.12.16c-.06-.08-.12-.17-.17-.25-.07-.11-.12-.23-.18-.33-.14-.24.11.43,0-.03-.04-.15-.08-.3-.12-.44-.04-.13-.14-.27,0,.07-.05-.11-.02-.33-.02-.46,0-.02.04-.52,0-.19-.03.3.07-.26.09-.32.08-.42-.22.31.02-.04.07-.11.2-.23-.07.06.29-.31-.38.14,0-.03-.22.1-.35.07-.57.1l-.1-.02c.21.06.2.05-.02-.03.15.07.28.17.42.26-.29-.17-.09-.08-.02,0,.16.14.32.28.47.43.09.09.18.2.27.29.21.2-.22-.37.03.04.08.13.16.26.24.4.21.36-.01-.05-.02-.05l.04.14c.05.22.05.19,0-.09.06.07-.07.63.02.07-.04.26.08,0,.06-.08-.04.08-.08.16-.13.24.17-.21.19-.24.05-.08l-.1.09.18-.14s-.31.21-.36.21c.35,0,.21-.11.01-.04-.26.09.49-.02.04-.02s.38.14-.05,0c-.07-.02-.21-.04-.27-.09l.21.08c-.09-.04-.17-.09-.25-.15.2.17.22.18.05.04-.05-.05-.11-.1-.15-.15-.2-.15.2.38,0,0-.05-.08-.21-.49-.07-.08-.03-.1-.06-.21-.1-.31-.17-.43-.03.35-.03-.11,0-.12-.05-.37,0-.48-.02.04-.1.44,0,.04.03-.11.05-.38.13-.47-.11.23-.11.25-.02.06l.07-.13.07-.12c.12-.18.11-.16-.05.06,0-.09.49-.39.02-.06.11-.08.3-.11-.1.01.4-.13-.4-.07.04-.01l-.23-.03c.17.05.19.05.05,0-.26-.04.11.07.17.1.41.2-.23-.26.09.07.11.11.22.22.33.33.35.36-.21-.34.05.06.05.08.11.16.16.24.08.12.14.26.22.38.24.41-.1-.38.04.07.04.14.26.57.19.69l-.03-.24c0,.07.01.14.01.21,0,.07,0,.14,0,.21-.02.22,0,.18.03-.12.01.01-.08.38-.1.39l.05-.11c.07-.15.06-.15-.02.01-.36.28.34-.25-.04.06l.16-.13c.22-.13.44-.18.67-.15h.11c-.21-.07-.2-.06.04.03-.08,0-.31-.17-.38-.21-.05-.03-.2-.11-.24-.16.21.16.23.17.06.04-.07-.06-.14-.13-.21-.2-.08-.09-.16-.18-.24-.27-.19-.2.23.39,0,0-.1-.18-.32-.42-.35-.63l.09.2c-.03-.09-.06-.18-.09-.27,0-.03-.08-.39-.1-.4.05,0,.02.52.03.15,0-.08,0-.17,0-.25.02-.22,0-.17-.03.15.01,0,.04-.21.05-.24.02-.08.05-.16.08-.23-.12.28-.14.33-.04.15.13-.27-.06.08-.1.13.15-.14.1-.11-.14.09.18-.1.13-.08-.16.06l-.25.02c.19,0,.21,0,.05-.01-.16-.02-.14,0,.05.04-.22-.09-.23-.08-.03.02l.14.09c-.17-.13-.19-.14-.04-.01.07.08.25.19.27.3l-.14-.18c.05.07.1.15.15.23.05.09.12.29.19.36l-.1-.22c.03.08.06.17.08.26.14.49-.01,0,.03,0,0,0,.01.36.01.39.02.4.08-.45-.02.05-.08.4-.01-.08.04-.05-.04.08-.08.15-.13.22.07-.14.18-.24.31-.31l.62-.02c.63.09.8.06.5-.09.6.37-.15-.04-.07-.11.09-.09.22.37.09.09-.04-.07-.08-.15-.12-.23.11.27.13.31.06.11-.02-.1-.05-.21-.08-.32-.03-.15-.02-.09.02.2,0-.09-.01-.18-.01-.26,0-.11.01-.22.01-.33.01-.15,0-.09-.03.19.02-.09.03-.17.06-.26l.04-.13c.07-.2.05-.17-.05.09.02-.12.14-.26.2-.37l.08-.12c-.17.21-.18.24-.04.08.13-.12.13-.13,0-.02-.13.09-.12.09.02,0-.56.22.29.03-.36.07.33-.02-.24-.06-.36-.13.38.21-.28-.31.01,0-.25-.27-.37-.63-.27-1-.25.99.32,2.17,1.37,2.41s2.15-.3,2.41-1.37h0Z"/>
      <path class="cls-2" d="M18.01,44.92c1.31.48,2.23.93,3.09,2-.1-.13.18.26.21.3.08.12.16.24.23.37.15.25.29.51.42.77.09.18.17.36.25.53.1.23,0-.03.09.22.12.3.23.6.34.91s.21.61.31.92c.05.14.09.28.14.42s.07.42.16.53c.05.06.02.07.07-.07-.05.13-.16.26-.24.37-.2.29-.4.57-.58.88-.33.58-.65,1.34-1.03,1.8-.12.15-.4.38-.52.46-.23.15.02,0-.21.11-.17.04-.19.05-.06.03-.17,0-.19,0-.07.02l-.36,2.7c1.74-.1,3.48-.2,5.22-.31.88-.05,2.07.09,2.76-.54.45-.4.63-1,.46-1.59-.2-.68-.78-1.01-1.46-1.08l1.32,1.01c-.58-1.78-1.02-3.59-1.34-5.43-.13-.73-1.02-1.14-1.69-.96-.78.21-1.07.95-.96,1.69.17,1.12.17,2.34-.02,3.45h2.65l-.36-1.9c-.23-1.23-1.92-1.24-2.51-.33-.44.68-.83,1.38-1.18,2.12-.52,1.11.33,2.26,1.55,2.02.81-.16,1.65-.12,2.46.1l-.33-2.51c-.62.27-1.05.73-1.46,1.25-.29.38-.22,1,0,1.39.27.46.69.62,1.19.68.87.1,1.72.04,2.58-.12.56-.1,1.04-.76,1.01-1.32-.09-1.69-.42-3.36-.72-5.02s-.59-3.22-.89-4.83c-.14-.75-.18-1.64-.49-2.34-.44-.98-1.37-1.14-2.33-1.12-1.7.03-3.39.05-5.09.08-1.32.02-1.93,1.9-.69,2.56.75.4,1.5.46,2.3.64.1.02.2.05.3.08.16.05.2.06.11.04.05.02.33.25.18.11.21.19.27.27.46.63.3.55.53,1.23.77,1.98.27.82.49,1.64.68,2.48.17.72,1,1.15,1.69.96.78-.22,1.07-.95.96-1.69-.26-1.69-.51-3.38-.77-5.07l-2.65.73,1.36,5.56c.18.72.99,1.15,1.69.96s1.14-.97.96-1.69c-.45-1.85-.91-3.71-1.36-5.56-.18-.72-.99-1.15-1.69-.96-.78.22-1.07.95-.96,1.69.26,1.69.51,3.38.77,5.07l2.65-.73c-.4-1.75-.89-3.68-1.8-5.24-.47-.82-1.14-1.46-2.02-1.8-.4-.16-.8-.23-1.22-.3-.37-.06-.8-.13-1.02-.25l-.69,2.56c1.01-.02,2.02-.03,3.03-.05.49,0,.98-.02,1.47-.02.26,0,.52,0,.78-.01.11,0,.22,0,.33,0-.14-.03-.14-.02.01.04l-.61-.35c-.13-.32-.16-.36-.1-.13l.07.38.14.76c.08.44.16.88.24,1.33.18.98.36,1.96.54,2.93.34,1.86.77,3.73.87,5.62l1.01-1.32c-.61.11-1.23.1-1.85.02l1.19,2.07c-.09.12.19-.13.06-.05.13-.08.27-.15.41-.22.49-.21.73-.89.66-1.37-.08-.53-.45-1-.98-1.14-1.3-.34-2.61-.36-3.92-.1l1.55,2.02c.35-.73.74-1.44,1.18-2.12l-2.51-.33.36,1.9c.25,1.29,2.43,1.33,2.65,0,.27-1.65.27-3.25.02-4.91l-2.65.73c.32,1.84.77,3.66,1.34,5.43.2.63.69.95,1.32,1.01h.08c-.32-.13-.65-.26-.97-.39l.05.06-.35-.61.02.09v-.73l-.03.09.35-.61-.09.07.61-.35c.18-.05.06,0-.07,0-.16.01-.32.02-.48.03-.29.02-.58.03-.87.05-.58.03-1.16.07-1.74.1-1.16.07-2.32.14-3.48.2-.68.04-1.27.49-1.35,1.19-.07.61.3,1.41.98,1.51,1.72.25,3.1-.6,4.05-2,.39-.58.67-1.22,1.03-1.83s.86-1.13.99-1.86c.14-.81-.12-1.56-.37-2.32-.2-.61-.41-1.23-.66-1.82-.52-1.27-1.13-2.45-2.03-3.5-1.11-1.29-2.59-1.97-4.16-2.54-.7-.25-1.5.29-1.69.96-.21.76.26,1.43.96,1.69h0Z"/>
      <path class="cls-5" d="M21.21,48.99c.65,1.23,1.29,2.47,1.9,3.73.31.63.61,1.26.9,1.89.13.29.27.57.4.86,0,0,.19.42.14.31.09.21-.03.11.01,0l2.29-.61c-.92-.92-2.13-.7-3.27-.42s-2.34.57-3.51.85l.73,2.65c.96-.26,1.91-.65,2.51-1.49.67-.94.52-2.24.55-3.33.02-.74-.65-1.37-1.37-1.37-.81,0-1.29.63-1.37,1.37.02-.14-.01.06-.02.1-.02.1-.04.2-.07.3s-.06.2-.09.3c-.05.16-.02.08-.06.18-.15.36-.42.75-.59.95-.74.85-.29,2.38.97,2.34,1.05-.03,2.09-.12,3.13-.26.5-.07.92-.22,1.19-.68.24-.41.26-.98,0-1.39-.29-.46-.57-.92-.82-1.4-.11-.21-.21-.43-.32-.64l-.08-.16q.02.08,0,0c-.02-.08-.02-.08-.01,0,.03.24-.04.47-.22.68l-2.29-.61c.33,1.18.67,2.36,1,3.54l1.32-1.74c-1.27.15-2.44.36-3.44,1.23-.9.78-.18,2.38.97,2.34,1.53-.05,3.07-.1,4.6-.14,1.13-.04,1.88-1.51.97-2.34-2.01-1.85-2.77-4.48-3.54-7.15l-2.51,1.06,4.39,7.5c.37.64,1.24.87,1.88.49s.86-1.23.49-1.88c-1.54-2.71-3.09-5.42-4.63-8.14l-2.16,1.66c.08.07.29.28.3.29,0,0,.14.22.19.3.2.33.39.67.58,1,.38.68.75,1.36,1.11,2.04.74,1.4,1.42,2.83,2.06,4.28.3.68,1.29.84,1.88.49.7-.41.79-1.2.49-1.88-.67-1.5-1.38-2.98-2.15-4.44-.38-.71-.77-1.42-1.17-2.12s-.76-1.4-1.36-1.9c-.52-.44-1.24-.55-1.8-.11s-.7,1.16-.35,1.77l4.63,8.14,2.37-1.39c-1.46-2.5-2.92-5-4.39-7.5-.78-1.33-2.94-.46-2.51,1.06.87,3.01,1.87,6.18,4.25,8.36l.97-2.34c-1.53.05-3.07.1-4.6.14l.97,2.34c-.09.06-.07.04.07-.05.08-.05.17-.1.25-.14-.16.07.24-.07.29-.08.41-.11.58-.12.88-.16.86-.1,1.59-.8,1.32-1.74-.33-1.18-.67-2.36-1-3.54-.13-.46-.49-.83-.96-.96-.52-.14-.93.04-1.34.35-.86.67-.58,1.81-.2,2.64.35.76.77,1.49,1.22,2.2l1.19-2.07c-1.04.14-2.08.22-3.13.26l.97,2.34c.95-1.09,1.47-2.33,1.63-3.76h-2.75c-.01.41-.02.83-.03,1.24,0,.12,0,.4,0,.44l-.04.17c.06-.14.05-.13-.02,0,.08-.1.08-.12.02-.05-.07.06-.06.06.04-.02-.1.07-.22.13-.33.19.23-.12-.11.04-.16.06-.16.06-.33.1-.5.15-.72.19-1.15.98-.96,1.69s.97,1.13,1.69.96c.92-.22,1.83-.44,2.75-.67.43-.1.86-.22,1.3-.31.06-.02.13-.03.2-.04-.14.01-.13.02.04,0,.27-.04-.06,0-.17-.11.78.77,1.95.35,2.29-.61.32-.89-.11-1.72-.47-2.51-.33-.72-.67-1.44-1.01-2.15-.69-1.43-1.41-2.84-2.15-4.24-.35-.65-1.26-.86-1.88-.49-.66.39-.84,1.22-.49,1.88h0Z"/>
      <g>
        <path class="cls-3" d="M38.43,56.43c-.06.02-.12.05-.18.07-.04-.16-.14-.3-.27-.39.16,0,.32.09.42.24.02.03.03.05.04.08Z"/>
        <path class="cls-3" d="M38.22,56.57v-.05c-.05-.14-.14-.27-.27-.37l-.12-.09h.15c.18,0,.36.11.46.27.02.03.03.06.04.09l.02.04-.04.02c-.06.02-.12.05-.19.07l-.05.02ZM38.14,56.2c.06.07.11.15.14.24.03-.01.06-.02.09-.03,0,0,0-.02-.02-.03-.05-.08-.13-.14-.21-.18Z"/>
      </g>
      <g>
        <path class="cls-3" d="M55.7,29.89c.06-.23.03-.51.19-.68.19-.21.28-.51.2-.79-.07-.26-.26-.46-.51-.56-.23-.09-.42-.27-.48-.51-.31-1.05-.51-1.54-1.08-2.95-2.54-6.36-5.18-9.67-11.36-14.18-1.67-1.22-5.48-3.32-12.11-3.59-.48-.02-.95-.03-1.42-.03-.42,0-.77-.32-.8-.73-.1-1.22.43-2.58,1.1-3.47.47-.62,1.13-1.13,1.89-1.32.6-.15,1.35-.07,1.63.56.25.58,1.09.08.85-.5-.36-.84-1.34-1.18-2.2-1.1-1.15.1-1.97.77-2.64,1.4-.36.33-1.16,1.14-1.68,2.46-.42,1.06-.48,1.99-.48,2.57-1.41.19-3.32.56-5.48,1.38-2.16.82-7.42,3.18-11.18,8.53-3.58,5.09-4.9,11.61-4.93,13.34,0,0-.03,1.77-.69,3.18-.26.55-.6,1.04-.6,1.04-.11.16-.22.3-.34.46-.67.82-1.59,2.11-2.31,3.87-.57,1.38-1.66,4.12-1.01,7.51.37,1.92,1.31,3.95,3.19,6.02.18.2.36.39.54.57,0,.01,0,.03,0,.04,0,0-.09,4.06,2.24,8.25,4.84,8.68,16.36,10.15,20.18,10.65.77.1,3.33.43,6.7.3,9.32-.38,14.04-3.27,14.04-3.27,0,0,7.26-4.41,9.8-12.71.28-.91.33-1.16.33-1.16.09-.44.1-.66.25-1,.18-.41.43-.65.5-.75.73-.98.95-2.1,1.16-3.16.55-2.78.04-5.64-.17-6.73-.38-2.03-.97-3.6-1.38-4.57-.36-.83-.71-1.52-1-2.02-.9-4.44-1.05-5.98-.93-6.38ZM12.01,16.28c1.39-1.73,3.68-4.52,7.75-6.48,4.48-2.16,8.49-2.06,10.46-1.99,2.64.09,7.27.68,11.91,3.62,3.25,2.06,5.17,4.43,6.05,5.53,2.39,2.99,3.67,5.99,4.51,7.94.58,1.36,1,2.52,1.27,3.35-.61.18-1.26.39-1.92.64-.97.36-1.86.75-2.66,1.13-.15-.64-.45-1.65-1.07-2.77-.58-1.04-2.73-4.56-6.85-5.32-3.03-.55-6.1.43-8.25,2.64-1.57,1.61-2.56,3.74-2.59,5.91-1.43-.36-2.47-.55-3.91-.21-.12-1.64-.77-3.34-1.65-4.71-1.64-2.55-4.8-3.86-7.83-3.91-3.09-.05-6.09,1.5-7.83,4.05-.47.69-.84,1.44-1.11,2.23-.51-.25-1.03-.5-1.54-.75.63-2.7,2.01-6.87,5.26-10.91ZM51.79,62.29c-6.18,7.47-15.81,7.92-19.57,8.1-2.2.1-18.78.67-24.81-10.05-1.09-1.93-1.76-4.11-2.01-6.49,1.45,1.33,4.99,4.19,9.82,4.21.91,0,1.75-.09,2.51-.25.39.21.98.5,1.74.75,2.32.76,3.37.19,7.53.09,2.56-.07,4.38.09,4.63-.64.1-.3.04-1.02-.25-1.26-.09-.08-.2-.12-.2-.12-.17-.07-.15-.08-.34-.05-.35-2.75,0-.29-.42-3.03.48,2.5-.12-.17.54,2.29.16.61,1.57.24,1.4-.37-1.14-4.2-2.23-8.4-2.81-12.72-.01-.1-.05-.18-.1-.24.03-.06.04-.13.04-.21-.01-.57-.62-.59-1.04-.55-.36.04-.73.07-1.09.1,0-.05,0-.09,0-.14-.06-.35-.15-.73-.19-1.09-.02.03-.05.06-.08.09,0,0-.01.01-.02.02-.03.02-.05.04-.08.06,0-.05-.01-.1-.03-.16.05-.02.09-.04.14-.06.02-.07.04-.14.05-.2,0,.08,0,.16.02.25.09-.15.07-.34,0-.5-.06-.14-.2-.24-.35-.27-.22-.05-.43.03-.55.23-.04.06-.06.13-.08.2-.31.1-.56.44-.6.8-.03.27-.04.55-.04.83-.31,0-.62,0-.93-.01-.27,0-.53-.01-.8-.02,0-.02,0-.05-.02-.07-.17-.54-.29-1.08-.37-1.64-.03-.23-.3-.37-.52-.36,0,0,0,0,0,0-.15-.16-.41-.2-.6-.08-.55.35-.47,1.3-.47,1.87,0,.07,0,.14,0,.2-.55-.02-1.1-.03-1.65-.03h0c-.07-.29-.13-.59-.17-.89h0s0-.04,0-.05c-.02-.17-.1-.33-.23-.42,0-.12-.04-.24-.16-.34-.26-.23-.59-.29-.89-.11-.37.23-.41.67-.44,1.07-.02.26-.02.52-.01.78-.45.03-.9.06-1.35.12-.32.04-.56.28-.47.62.11.47.23.93.34,1.4-1.17-.24-2.29-.25-3.13-.19-.28.02-.51.22-.55.49-.06.39.25.71.62.68,1.8-.12,6.15.03,7.59,4.05.55,1.54.39,3.15-.45,4.54-.97,1.6-2.68,2.68-4.7,2.96-4.25.59-7.86-1.02-11.71-5.24-1.08-1.18-2.63-3.28-3.03-6.33-.54-4.21,1.55-8.07,2.45-9.1.12-.14.59-.65,1.02-1.47.37-.7.56-1.36.66-1.74.45-1.68.75-3.4.89-4.21.26.03.57.09.92.21.24.08.45.18.63.27-.44,1.88-.31,3.89.46,5.67,1.22,2.84,4,4.5,7,4.81.63.07.62-.92,0-.98-2.28-.24-4.48-1.4-5.68-3.4-1.43-2.38-1.36-5.49-.08-7.92,2.03-3.87,6.28-4.37,6.65-4.41,2.57-.26,5.71.61,7.48,3.07,1.53,2.13,1.93,5.29,1.28,6.41-.06.11-.3.48-.17.81.16.42,1.2.94,1.33.47.17-.62.35-1.39.37-2.02,1.46-.38,2.59-.31,4.02.12.1.7.3,1.4.63,2.08.27.57,1.12.07.85-.49-1.17-2.42-.44-5.21,1.2-7.23,1.57-1.92,4.36-3.33,7.01-3.1,4.05.36,6.04,3.69,6.29,4.14,1.43,2.5,1.43,5.54.2,7.93-.84,1.62-2.04,2.57-2.73,3.03-.32-.08-.64-.11-.89.05-.13.09-.25.22-.35.38-.63.15-1.28.23-1.94.25-.63.03-.63,1.01,0,.98.47-.02.93-.07,1.39-.15-.3.57-.61,1.13-.92,1.7-.08.14-.08.27-.04.39-1.97.15-3.92.9-4.84,1.89-1.09,1.18-1.76,2.42-2,3.7-.37,2.03.38,4.02,2.23,5.91.1.1.21.21.31.31-.06.04-.12.09-.15.16-.22.49-.44.98-.66,1.47-.22.15-.32.44-.03.82.13.57.24,1.05.37,1.62-.06.34.3.62.61.52.85-.26,1.67-.58,2.48-.95.08-.04.14-.09.19-.15.08-.04.16-.1.22-.2.19-.32.39-.63.61-.93,1,.43,2.09.76,3.27.98,2.98.57,5.47.25,6.16.14,1.92-.31,3.9-.81,5.74-2.63-.55,2.11-1.67,5.2-4.11,8.15ZM19.12,57.38c.72-.31,2.1-1.04,3.1-2.56,1.11-1.67,1.62-4.08.74-6.11-.47-1.09-1.22-1.81-1.99-2.54-1.11-1.06-2.04-1.5-2.36-1.64-.32-.14-.65-.26-.97-.35.1-.11.16-.26.11-.45-.07-.29-.14-.58-.21-.86.29-.03.58-.05.87-.06.08.38.19.75.33,1.12.23.58,1.18.33.95-.26-.11-.29-.21-.59-.29-.89.84-.02,1.68,0,2.52.03.05.38.12.75.21,1.12.15.61,1.1.35.95-.26-.06-.25-.12-.53-.17-.82,0,0,.02,0,.03,0,.88.03,1.76.07,2.64.07,0,.34.02.69.02,1.02,0,.63.98.63.98,0v-1.04c.29,0,.58-.02.86-.04.06,0,.11,0,.17-.01.79,4.63,1.48,9.28,2.07,13.94-.39.06-.78.13-1.17.2-1.18.2-2.35.4-3.54.55-1.5.19-2.29.29-3.4.23-1.03-.06-1.87-.22-2.46-.37ZM22.23,40.51c.1.01.19.02.29.04.01.08.02.15.04.23-.06-.02-.13-.06-.18-.12-.05-.05-.1-.1-.14-.15ZM22.73,40.64s.03-.04.05-.06c.01,0,.03,0,.04,0-.03.02-.06.04-.09.06ZM22.8,41.85h0s0-.02,0-.03c0,.01,0,.02,0,.03ZM26.24,40.28c.02-.08.06-.15.14-.22,0,0,.01-.01.02-.02,0,.07-.02.15-.03.22-.04,0-.09,0-.13.02ZM26.33,40.61s0,.01,0,.02c0-.01-.01-.02-.02-.04,0,0,.01,0,.02.01ZM26.29,41.16s.01.09.02.14c-.05-.03-.09-.06-.13-.11.04-.01.08-.02.11-.03ZM26.57,40.81s.01,0,.02,0c0,0,.01,0,.02.01-.01,0-.02,0-.04,0ZM43.75,40.11c-.07-.14-.21-.24-.41-.25-.04,0-.08,0-.12,0,.08-.15.16-.31.25-.46.05-.09.1-.2.15-.32.05-.1.1-.2.16-.29.13.01.27.04.41.08.28.08.57.19.79.25.35.09.7.18,1.04.27-.12.44-.27.86-.44,1.27-.01,0-.02,0-.04,0-.61-.15-1.21-.34-1.79-.57ZM45.15,41.6s-.05.1-.08.14c-.06.05-.11.13-.14.24,0,.01-.01.02-.02.04-.03-.01-.05-.02-.08-.03-.73-.33-1.58-.49-2.47-.52.02-.03.03-.05.05-.08.04-.06.06-.12.07-.18.11-.2.21-.39.32-.58.07.13.21.23.35.31.62.3,1.32.5,1.99.67ZM37.12,55.47c.23-.51.45-1.01.68-1.52,0-.01,0-.02.01-.04.62.5,1.3.94,2.03,1.32-.19.27-.37.55-.54.83-.02,0-.05.02-.07.03-.26.12-.53.23-.8.34-.06.02-.12.05-.18.07-.04-.16-.14-.3-.27-.39-.2-.15-.48-.21-.72-.14-.04-.17-.09-.34-.13-.5ZM57.25,49.4c-.42,1.04-1.35,3.34-3.69,4.73-1.03.61-2.12.84-3.33,1.03-2.88.46-8.97.72-12.59-3-1.57-1.61-2.21-3.25-1.91-4.88.19-1.05.76-2.1,1.7-3.11,1.08-1.16,4.69-2.14,6.94-1.12h.02c2.26.94,3.02,2.31,3.03,2.32.15.29.51.4.79.25.29-.15.4-.51.25-.79-.03-.06-.72-1.33-2.64-2.39,0,0,0,0,0,0,.58-1.02,1-2.1,1.27-3.24.03-.12-.1-.39-.34-.6-.36-.33-.81-.3-.9-.29.57-.48,1.25-1.15,1.87-2.07,1.24-1.83,1.57-3.65,1.68-4.67.76-.36,1.58-.72,2.47-1.07.86-.34,1.69-.62,2.47-.86.38,2.12.75,4.25,1.13,6.37.1.57.28,1.11.54,1.62.99,1.95,3.15,7.02,1.24,11.78Z"/>
        <path class="cls-3" d="M31.46,71.71c-1.72,0-3.42-.11-5.08-.33h-.08c-2.02-.28-5.78-.78-9.72-2.3-4.85-1.87-8.35-4.69-10.41-8.38-2.32-4.15-2.25-8.23-2.25-8.27,0,0,0-.01,0-.02-.16-.17-.33-.35-.52-.56-1.72-1.88-2.8-3.91-3.2-6.04-.66-3.47.51-6.32,1.01-7.54.57-1.4,1.35-2.7,2.32-3.88.13-.16.24-.3.34-.45,0,0,.34-.49.59-1.03.65-1.38.69-3.15.69-3.16.03-1.67,1.3-8.2,4.94-13.37,3.58-5.08,8.56-7.53,11.21-8.54,1.75-.67,3.58-1.13,5.45-1.38,0-.88.16-1.73.48-2.54.47-1.19,1.18-2,1.69-2.47.69-.63,1.51-1.32,2.67-1.41.85-.07,1.87.25,2.25,1.13.14.34-.05.66-.33.78-.21.09-.48.05-.61-.24-.27-.62-1.01-.68-1.57-.53-.7.18-1.36.64-1.86,1.3-.57.76-1.2,2.11-1.09,3.44.03.39.36.69.75.69h0c.47,0,.95,0,1.42.03,6.65.27,10.46,2.37,12.14,3.6,6.17,4.5,8.82,7.82,11.37,14.2l.14.34c.47,1.17.66,1.66.94,2.62.06.21.23.39.46.48.26.1.46.32.54.59.08.29,0,.61-.21.84-.09.1-.11.25-.13.41-.01.08-.02.17-.04.25h0c-.14.48.18,2.62.93,6.35.37.65.7,1.33,1,2.02.62,1.45,1.09,2.99,1.39,4.58.18.96.73,3.9.17,6.75-.21,1.07-.43,2.18-1.17,3.18-.01.02-.04.04-.06.08-.1.12-.29.34-.43.66-.11.24-.14.42-.18.67-.02.09-.04.2-.06.32,0,.01-.06.26-.33,1.17-1.32,4.3-3.92,7.53-5.87,9.49-2.11,2.12-3.94,3.24-3.96,3.25-.05.03-4.84,2.9-14.07,3.27-.55.02-1.09.03-1.64.03ZM31.82.1c-.07,0-.15,0-.22,0-1.13.09-1.94.77-2.61,1.39-.5.46-1.2,1.26-1.66,2.44-.32.81-.48,1.67-.48,2.55v.04s-.04,0-.04,0c-1.88.25-3.72.71-5.47,1.38-2.64,1.01-7.6,3.45-11.16,8.51-3.63,5.15-4.89,11.66-4.92,13.32,0,.02-.04,1.8-.7,3.2-.26.54-.6,1.04-.6,1.04-.1.15-.22.3-.35.46-.96,1.17-1.73,2.47-2.3,3.86-.5,1.21-1.66,4.04-1.01,7.48.4,2.11,1.47,4.12,3.18,5.99.2.22.37.4.54.57l.02.02v.02s0,.02,0,.03c0,.04-.07,4.1,2.24,8.23,2.05,3.67,5.53,6.47,10.36,8.34,3.93,1.52,7.68,2.01,9.7,2.28h.08c2.17.3,4.43.4,6.7.31,4.81-.19,8.36-1.07,10.5-1.77,2.31-.76,3.51-1.48,3.52-1.49.07-.04,7.27-4.49,9.78-12.68.27-.9.33-1.16.33-1.16.03-.12.04-.22.06-.32.05-.26.08-.44.19-.69.15-.33.34-.56.45-.69.02-.03.04-.05.06-.07.73-.98.94-2.07,1.15-3.14.56-2.83.01-5.75-.17-6.71-.3-1.58-.76-3.11-1.38-4.56-.3-.69-.63-1.37-.99-2.02h0c-.77-3.82-1.08-5.91-.93-6.41h0c.02-.07.03-.15.04-.23.02-.17.04-.34.16-.46.19-.2.26-.49.19-.74-.06-.24-.24-.44-.48-.53-.26-.1-.44-.3-.51-.54-.28-.96-.47-1.44-.94-2.61l-.14-.34c-2.54-6.36-5.19-9.67-11.34-14.16-1.67-1.22-5.46-3.31-12.09-3.58-.47-.02-.95-.03-1.42-.03h0c-.44,0-.81-.34-.85-.78-.11-1.36.53-2.74,1.11-3.51.51-.68,1.2-1.16,1.92-1.34.59-.15,1.39-.09,1.68.59.11.25.32.26.48.19.23-.1.39-.37.27-.65-.33-.76-1.17-1.08-1.93-1.08ZM30.53,70.48c-5.19,0-18.01-.97-23.16-10.11-1.09-1.94-1.77-4.12-2.01-6.51v-.13s.08.09.08.09c2.07,1.91,5.45,4.18,9.79,4.2.83,0,1.68-.08,2.5-.25h.02s.02,0,.02,0c.55.3,1.13.55,1.73.75,1.53.5,2.49.42,4.22.28.85-.07,1.9-.16,3.29-.2.5-.01.96-.02,1.4-.02,1.74-.02,3-.03,3.19-.59.1-.3.03-.98-.24-1.21-.08-.07-.19-.11-.19-.11l-.06-.02q-.1-.04-.25-.02h-.05s0-.04,0-.04c-.14-1.13-.17-1.38-.18-1.47q0-.05-.02-.14c-.02-.14-.07-.46-.22-1.41l.1-.02c.14.72.19,1.02.2,1.14.05.09.13.35.34,1.15.04.16.18.22.28.25.29.08.71-.04.92-.24.07-.07.15-.2.11-.35-1.15-4.26-2.23-8.44-2.81-12.72-.01-.09-.04-.16-.09-.21l-.02-.02v-.03c.04-.06.05-.12.05-.19,0-.15-.05-.27-.15-.36-.16-.14-.44-.18-.83-.14-.35.04-.72.07-1.1.1h-.06s0-.05,0-.05c0-.04,0-.08,0-.13-.02-.14-.05-.28-.08-.41-.04-.18-.07-.36-.1-.54h0s0-.02,0-.02c0,0,0,0,0,0l-.02.02s-.05.05-.09.06l-.07.04v-.08s-.02-.09-.03-.14l-.02-.05.16-.07c.02-.06.03-.12.05-.18l.04-.17s-.01-.04-.02-.06c-.06-.12-.17-.21-.31-.24-.13-.03-.26,0-.36.06l-.04.34h-.04s-.08,0-.12.02h-.04c-.29.11-.53.43-.56.77-.02.25-.04.52-.04.82v.05s-.05,0-.05,0c-.31,0-.62,0-.93-.01-.27,0-.53-.01-.8-.02h-.04s0-.04,0-.04c0-.02,0-.04-.02-.07-.17-.53-.29-1.09-.37-1.64-.03-.2-.27-.33-.47-.31h-.01s-.03-.02-.03-.02c-.14-.14-.38-.18-.54-.08-.47.29-.46,1.07-.45,1.63,0,.07,0,.14,0,.2,0,.07,0,.14,0,.2v.05s-.05,0-.05,0c-.45-.01-1.04-.03-1.65-.03h-.04s-.01-.04-.01-.04c-.08-.3-.13-.6-.17-.89h0s0-.04,0-.05c-.02-.17-.1-.31-.21-.38l-.02-.02v-.03c0-.11-.04-.21-.14-.3-.26-.23-.57-.27-.84-.1-.35.22-.39.65-.42,1.03-.02.26-.02.52-.01.78v.05s-.05,0-.05,0c-.46.03-.91.07-1.35.12-.16.02-.3.1-.38.21-.07.1-.09.22-.05.35l.36,1.47-.08-.02c-.98-.2-2.03-.26-3.12-.19-.26.02-.47.21-.51.45-.02.17.03.33.14.45.11.12.27.18.43.17,1.81-.12,6.19.03,7.64,4.08.56,1.55.4,3.18-.45,4.58-.97,1.61-2.7,2.7-4.74,2.98-4.27.59-7.89-1.02-11.75-5.25-1.71-1.88-2.74-4.02-3.04-6.36-.53-4.12,1.47-8,2.46-9.14l.03-.03c.15-.17.59-.67.99-1.43.39-.74.58-1.44.66-1.73.41-1.52.71-3.13.88-4.2v-.05s.05,0,.05,0c.32.04.63.11.93.21.22.07.43.17.63.27l.03.02v.04c-.45,1.92-.29,3.93.45,5.64,1.15,2.66,3.75,4.45,6.96,4.78.15.02.26-.03.34-.13.09-.12.1-.32.03-.48-.04-.09-.14-.25-.38-.27-2.45-.26-4.58-1.53-5.72-3.42-1.39-2.3-1.42-5.43-.08-7.97,2.03-3.85,6.22-4.39,6.69-4.43,2.28-.23,5.62.44,7.53,3.09.71.99,1.23,2.27,1.46,3.6.21,1.22.15,2.29-.18,2.86v.02c-.09.13-.28.46-.17.75.11.29.69.64,1.02.63.12,0,.19-.06.22-.15.23-.84.35-1.5.37-2.01v-.04s.04,0,.04,0c1.39-.36,2.53-.33,4.05.12h.03s0,.04,0,.04c.1.72.31,1.41.63,2.06.08.17.21.22.3.22.16.01.33-.08.43-.22.05-.08.13-.24.03-.45-1.09-2.25-.62-5.04,1.21-7.28,1.7-2.08,4.54-3.34,7.06-3.11,3.96.35,5.97,3.53,6.33,4.16,1.4,2.44,1.48,5.5.2,7.98-.62,1.21-1.57,2.26-2.74,3.05h-.02s-.02,0-.02,0c-.39-.1-.65-.08-.85.04-.12.08-.23.19-.34.36v.02s-.03,0-.03,0c-.58.14-1.22.22-1.94.26-.29.01-.44.25-.43.49,0,.21.14.41.42.4.48-.02.94-.07,1.38-.15l.1-.02-.96,1.79c-.06.12-.08.24-.04.35l.02.06h-.06c-1.97.16-3.9.91-4.8,1.88-1.08,1.17-1.75,2.4-1.98,3.67-.37,2.01.38,3.99,2.21,5.87.1.1.2.2.31.31l.05.04-.05.03c-.06.04-.1.08-.13.14l-.23.52c-.14.32-.28.63-.43.95h0s-.01.02-.01.02c-.1.07-.16.16-.18.27-.02.14.03.31.16.48v.02s.38,1.63.38,1.63h0c-.02.15.02.28.13.38.12.1.28.14.41.1.82-.25,1.65-.57,2.48-.94.07-.03.13-.08.17-.13h0s.01-.02.01-.02c.08-.03.15-.1.2-.18.19-.33.4-.64.61-.94l.02-.03.04.02c.99.43,2.09.76,3.26.98,2.97.57,5.45.25,6.14.14,1.78-.29,3.83-.75,5.71-2.62l.13-.13-.05.17c-.81,3.09-2.2,5.84-4.12,8.17-6.2,7.48-15.94,7.94-19.61,8.12-.39.02-.97.04-1.7.04ZM5.47,53.98c.26,2.32.92,4.45,1.99,6.34,5.84,10.38,21.65,10.17,24.76,10.03,3.66-.17,13.37-.63,19.54-8.08l.04.03-.04-.03c1.88-2.27,3.24-4.95,4.06-7.96-1.87,1.79-3.89,2.24-5.64,2.52-.69.11-3.19.43-6.18-.14-1.16-.22-2.25-.55-3.24-.97-.21.28-.4.58-.58.9-.06.1-.14.17-.23.22-.05.06-.12.11-.2.15-.83.38-1.67.7-2.49.95-.17.05-.36,0-.51-.12-.13-.12-.19-.28-.17-.45l-.37-1.6c-.14-.19-.2-.38-.17-.54.02-.13.1-.25.21-.33.14-.31.28-.62.42-.94l.23-.52c.03-.06.06-.11.11-.15-.09-.09-.19-.18-.27-.27-1.86-1.91-2.61-3.91-2.24-5.96.24-1.29.91-2.54,2.01-3.72.91-.97,2.83-1.73,4.81-1.9-.02-.12,0-.25.06-.37l.87-1.61c-.41.07-.84.11-1.29.13-.34.02-.51-.24-.52-.49-.01-.28.16-.57.52-.59.71-.03,1.33-.11,1.91-.25.11-.17.23-.29.35-.38.28-.18.63-.13.91-.06,1.15-.78,2.08-1.82,2.69-3,1.26-2.45,1.19-5.47-.2-7.89-.36-.63-2.35-3.77-6.26-4.11-2.49-.22-5.29,1.02-6.97,3.08-1.81,2.21-2.27,4.96-1.19,7.17.09.18.08.38-.04.55-.12.17-.32.28-.52.27-.17-.01-.3-.11-.38-.28-.32-.65-.53-1.35-.63-2.06-1.48-.43-2.58-.46-3.93-.12-.02.51-.14,1.16-.37,2-.04.14-.15.22-.3.22-.38.02-.99-.36-1.12-.69-.13-.33.08-.7.16-.84v-.02c.67-1.14.21-4.3-1.27-6.35-1.88-2.62-5.18-3.28-7.44-3.05-.47.05-4.61.57-6.61,4.38-1.32,2.51-1.29,5.6.08,7.87,1.12,1.86,3.23,3.12,5.64,3.37.21.02.37.14.46.33.09.19.07.42-.04.57-.09.13-.25.19-.43.17-3.25-.34-5.88-2.15-7.04-4.84-.74-1.73-.91-3.74-.47-5.67-.19-.1-.39-.18-.59-.25-.28-.1-.57-.16-.86-.2-.18,1.08-.47,2.66-.88,4.17-.08.3-.27,1.01-.67,1.75-.41.77-.86,1.28-1.01,1.45l-.03.03c-.99,1.13-2.97,4.98-2.44,9.07.3,2.32,1.32,4.45,3.02,6.31,3.84,4.2,7.43,5.81,11.66,5.22,2.01-.28,3.71-1.35,4.67-2.94.83-1.38.99-2.97.44-4.5-1.43-3.98-5.75-4.13-7.54-4.02-.19.01-.38-.06-.51-.2-.13-.14-.19-.34-.16-.53.04-.29.3-.52.6-.54,1.07-.07,2.11-.01,3.07.18l-.32-1.32c-.04-.16-.02-.31.07-.43.09-.14.26-.23.44-.25.42-.05.86-.09,1.3-.12-.01-.24,0-.49.01-.74.03-.38.07-.86.47-1.1.3-.19.66-.14.95.11.11.1.17.22.17.35.12.09.21.25.23.43,0,.02,0,.03,0,.05.03.28.09.56.16.85.57,0,1.13.02,1.56.03,0-.05,0-.1,0-.15,0-.06,0-.13,0-.2,0-.59-.02-1.39.5-1.71.2-.12.47-.09.65.07.24,0,.51.14.55.4.08.55.2,1.1.37,1.63,0,.01,0,.03.01.04.25,0,.51.01.76.02.29,0,.59.01.88.01,0-.29.02-.54.04-.78.03-.37.29-.72.6-.84.02-.06.04-.13.08-.18.13-.21.36-.3.61-.25.15.03.28.12.35.24v-.02s0,.03,0,.03c0,.01.02.03.02.04.09.19.09.38,0,.53.02.22.07.44.11.66.03.14.06.28.08.42,0,.03,0,.06,0,.1.36-.02.71-.05,1.04-.09.42-.05.73,0,.91.16.12.1.18.25.18.43,0,.07,0,.14-.03.2.05.06.08.14.1.24.58,4.28,1.66,8.45,2.81,12.71.04.16,0,.31-.14.45-.23.23-.69.36-1.01.27-.19-.05-.31-.16-.35-.32-.09-.33-.15-.56-.2-.73.01.11.04.39.17,1.4.13-.02.15-.01.25.03l.06.02s.12.05.21.13c.32.27.37,1.03.27,1.32-.21.62-1.43.63-3.28.65-.44,0-.9,0-1.4.02-1.39.04-2.44.12-3.29.2-1.69.14-2.71.23-4.26-.28-.59-.2-1.18-.45-1.73-.75-.83.17-1.67.25-2.51.24-4.31-.02-7.67-2.24-9.76-4.14ZM27.03,40.68s0,.03.01.04c0,0,0,0,0,0l.02-.02s.03-.03.04-.05l-.08.03ZM26.34,40.19s-.01.02-.01.03c0,0,0,0,.01,0v-.02ZM22.2,57.82c-.2,0-.41,0-.63-.02-.83-.04-1.66-.17-2.47-.37l-.14-.04.13-.06c.9-.39,2.16-1.14,3.08-2.54,1.23-1.86,1.52-4.24.74-6.06-.47-1.08-1.2-1.78-1.98-2.52-1.03-.98-1.91-1.44-2.35-1.63-.31-.13-.63-.25-.97-.35l-.08-.02.06-.06c.1-.11.14-.25.1-.4l-.07-.29c-.05-.19-.09-.38-.14-.57v-.06s.04,0,.04,0c.28-.03.57-.05.87-.06h.04s0,.04,0,.04c.08.37.19.74.33,1.11.09.22.27.28.37.29.17.03.36-.04.45-.16.08-.1.09-.22.04-.36-.13-.32-.22-.61-.29-.9v-.06s.05,0,.05,0c.92-.02,1.83,0,2.52.03h.04s0,.04,0,.04c.05.37.12.74.21,1.11.05.19.17.27.27.29.16.05.35,0,.47-.12.11-.11.15-.25.11-.41-.07-.3-.13-.57-.17-.83v-.06s.08,0,.08,0c.81.03,1.73.07,2.64.07h.05s0,.13,0,.13c0,.31.02.63.02.95,0,.29.23.42.44.42s.44-.13.44-.42v-1.08h.05c.29,0,.58-.02.86-.04.06,0,.11,0,.17-.01h.04s0,.04,0,.04c.79,4.64,1.49,9.33,2.07,13.94v.05s-1.72.29-1.72.29c-.99.17-2.01.34-3.03.47-1.23.16-1.98.25-2.78.25ZM19.28,57.37c.76.18,1.53.29,2.31.34,1.08.06,1.82-.03,3.39-.23,1.01-.13,2.04-.3,3.02-.47l1.64-.27c-.58-4.57-1.27-9.23-2.06-13.84-.04,0-.09,0-.13,0-.26.02-.54.03-.82.04v.99c0,.34-.27.52-.54.52s-.54-.18-.54-.52c0-.31,0-.63-.02-.94v-.03c-.88,0-1.77-.04-2.56-.07.04.24.09.48.16.76.05.19,0,.37-.14.51-.15.14-.38.2-.57.14-.17-.05-.29-.18-.33-.37-.09-.36-.16-.73-.2-1.08-.67-.02-1.54-.04-2.41-.03.07.26.15.53.27.82.07.17.05.33-.05.46-.12.15-.33.22-.54.19-.21-.03-.37-.16-.44-.35-.14-.36-.25-.72-.33-1.08-.26.01-.52.03-.77.06.04.17.08.34.13.52l.07.29c.04.16.01.31-.08.43.31.1.62.21.91.33.44.19,1.33.66,2.37,1.65.75.72,1.53,1.45,2,2.55.8,1.85.51,4.27-.74,6.16-.89,1.35-2.1,2.11-2.99,2.52ZM38.22,56.57v-.05c-.05-.14-.14-.27-.27-.37-.2-.15-.46-.2-.68-.13l-.05.02v-.05c-.05-.15-.09-.3-.13-.44l-.02-.08.26-.57c.14-.32.29-.64.43-.96,0,0,0-.02.01-.03l.02-.07.06.05c.62.5,1.3.94,2.02,1.31l.05.03-.03.05c-.2.27-.38.55-.54.83v.02s-.03,0-.03,0c-.02,0-.04.01-.06.02-.26.12-.53.23-.8.34-.06.02-.12.05-.19.07l-.05.02ZM37.47,55.89c.19,0,.38.06.54.18.13.1.23.23.28.37.04-.02.09-.03.13-.05.27-.1.53-.22.8-.34.02,0,.04-.02.06-.02.15-.26.32-.52.5-.77-.69-.36-1.34-.78-1.94-1.26-.14.32-.28.63-.42.94l-.24.54v.04c.05.13.08.26.11.4.06-.01.12-.02.18-.02ZM46.91,55.47c-2.86,0-6.69-.59-9.31-3.27-1.58-1.62-2.23-3.27-1.93-4.92.19-1.06.77-2.11,1.71-3.13,1.09-1.17,4.73-2.16,7-1.13h.02c2.27.94,3.05,2.33,3.05,2.35.14.26.46.37.73.23.13-.07.22-.18.26-.32.04-.14.03-.28-.04-.41-.03-.05-.7-1.32-2.62-2.37h-.02s-.01-.05-.01-.05v-.02c.58-1.01,1.01-2.1,1.27-3.23.02-.09-.08-.33-.33-.56-.33-.3-.74-.29-.86-.28h-.16s.12-.09.12-.09c.72-.6,1.35-1.29,1.86-2.06.92-1.36,1.49-2.97,1.67-4.65v-.03s.03-.01.03-.01c.81-.39,1.64-.75,2.48-1.07.81-.32,1.65-.61,2.48-.87l.05-.02,1.14,6.42c.1.56.28,1.1.54,1.61,1.01,1.97,3.14,7.07,1.24,11.82-.4,1-1.34,3.35-3.71,4.76-1.06.63-2.19.85-3.35,1.04-.66.11-1.87.26-3.32.26ZM42.11,42.68c-1.9,0-3.9.72-4.66,1.54-.93,1-1.5,2.04-1.69,3.08-.29,1.62.34,3.24,1.9,4.84,1.58,1.62,3.78,2.64,6.54,3.05,2.54.37,4.85.12,6-.07,1.15-.19,2.27-.4,3.31-1.03,2.35-1.4,3.28-3.72,3.67-4.71l.05.02-.05-.02c1.88-4.7-.24-9.77-1.24-11.73-.26-.51-.45-1.06-.55-1.64l-1.12-6.31c-.81.25-1.62.54-2.42.85-.82.32-1.65.68-2.45,1.06-.18,1.69-.76,3.3-1.68,4.67-.5.74-1.09,1.4-1.78,1.99.21,0,.53.06.8.31.24.21.39.5.36.65-.26,1.13-.68,2.21-1.25,3.22,1.91,1.06,2.59,2.33,2.62,2.39.08.15.09.32.04.49-.05.16-.16.3-.31.38-.31.16-.7.04-.86-.27,0-.01-.78-1.38-3-2.29h-.02c-.66-.31-1.43-.43-2.23-.43ZM44.95,42.08l-.13-.05c-.69-.31-1.52-.48-2.45-.51h-.08s.04-.07.04-.07c.02-.03.03-.05.05-.08.04-.06.06-.11.07-.16v-.02c.08-.13.14-.26.21-.39l.15-.28.04.08c.06.11.17.21.33.29.64.31,1.36.51,1.98.67h.06s-.03.07-.03.07c-.02.05-.05.1-.08.14h-.01c-.06.07-.1.14-.13.23l-.04.09ZM42.46,41.42c.91.04,1.72.21,2.4.52h.04c.03-.08.08-.16.14-.23.01-.03.03-.05.04-.08-.61-.15-1.31-.35-1.94-.66-.14-.07-.25-.16-.33-.25l-.07.12c-.07.13-.14.25-.21.38-.01.06-.04.13-.08.19,0,0,0,0,0,0ZM22.87,41.9h-.12v-.04s0-.03,0-.04v-.36l.1.35s0,.02,0,.03l.02.06ZM26.37,41.39l-.09-.05c-.05-.03-.1-.07-.15-.12l-.05-.06.07-.02s.08-.02.12-.03h.05s.04.28.04.28ZM26.77,40.9l-.17-.03s-.01,0-.02,0h-.01s-.19-.03-.19-.03l.18-.06.02.05v-.05s.02-.01.02-.01h.02s.02.02.02.03l.14.11ZM22.62,40.85l-.08-.03s0,0,0,0h0s0,0,0,0c-.07-.03-.14-.07-.2-.13-.05-.05-.1-.1-.14-.15l-.1-.1.47.06v.04c.02.07.03.13.04.2l.16-.21.21.03-.36.22v.07ZM22.36,40.58s.03.03.04.04c.03.03.06.05.08.07,0-.03-.01-.07-.02-.1h-.11ZM26.35,40.81l-.16-.38.15.13s0,0,.01.01l.03.02-.03.22ZM45.6,40.76l-.04-.02s-.02,0-.03,0c-.65-.16-1.25-.35-1.8-.57h-.02s0-.02,0-.02c-.07-.14-.2-.22-.37-.22-.04,0-.07,0-.11,0l-.1.02.3-.55c.03-.06.06-.12.09-.19.02-.04.04-.08.06-.12.06-.13.11-.22.16-.29l.02-.02h.03c.12.01.25.04.41.09.14.04.27.08.4.13.14.05.27.09.39.12l.21.06c.28.07.55.14.83.22h.05s-.01.06-.01.06c-.12.44-.27.87-.44,1.28l-.02.04ZM43.78,40.07c.54.22,1.14.41,1.77.56.16-.38.29-.78.41-1.18-.26-.07-.52-.14-.78-.2l-.21-.06c-.12-.03-.25-.08-.4-.13-.13-.04-.26-.09-.4-.13-.14-.04-.26-.07-.37-.08-.04.07-.09.15-.14.26-.02.04-.04.08-.06.12-.03.07-.06.14-.09.2l-.2.38s.02,0,.03,0c.2,0,.36.1.45.26ZM30.67,30.55l-.06-.02c-1.34-.34-2.41-.56-3.89-.21h-.06s0-.04,0-.04c-.11-1.53-.71-3.24-1.64-4.68-1.5-2.34-4.49-3.83-7.79-3.89-.05,0-.1,0-.15,0-3.02,0-5.93,1.54-7.64,4.03-.46.68-.84,1.42-1.11,2.22l-.02.05-1.62-.79v-.04c.96-4.08,2.73-7.76,5.28-10.93,1.26-1.57,3.61-4.49,7.77-6.49,4.56-2.2,8.72-2.06,10.49-2,2.99.1,7.49.81,11.94,3.63,3.31,2.1,5.24,4.51,6.06,5.54,2.38,2.98,3.66,5.95,4.5,7.92v.03c.48,1.1.91,2.23,1.29,3.36l.02.05h-.05c-.64.21-1.29.42-1.92.65-.9.33-1.79.71-2.66,1.13l-.05.03v-.06c-.24-.97-.6-1.89-1.08-2.75-.75-1.35-2.91-4.58-6.82-5.29-3-.55-6.07.43-8.21,2.62-1.61,1.66-2.55,3.8-2.57,5.87v.06ZM28.18,30.05c.81,0,1.55.16,2.4.38.04-2.08.98-4.22,2.6-5.88,2.16-2.22,5.26-3.21,8.3-2.65,3.95.72,6.13,3.98,6.88,5.34.47.85.83,1.77,1.06,2.72.85-.41,1.73-.78,2.61-1.11.61-.23,1.25-.44,1.88-.63-.37-1.11-.79-2.22-1.26-3.3v-.03c-.85-1.96-2.13-4.93-4.5-7.9-.82-1.03-2.75-3.44-6.04-5.52-4.42-2.8-8.91-3.51-11.89-3.61-1.77-.06-5.9-.2-10.44,1.99-4.14,1.99-6.48,4.9-7.73,6.46h0c-2.53,3.15-4.3,6.8-5.24,10.85l1.45.71c.27-.78.64-1.52,1.1-2.19,1.75-2.57,4.77-4.13,7.87-4.07,3.33.06,6.35,1.56,7.87,3.93.93,1.44,1.53,3.14,1.65,4.67.51-.12.98-.16,1.42-.16Z"/>
      </g>
      <g>
        <g>
          <path class="cls-3" d="M22.56,40.77c-.06-.02-.13-.06-.18-.12-.05-.05-.1-.1-.14-.15.1.01.19.02.29.04.01.08.02.15.04.23Z"/>
          <path class="cls-3" d="M22.62,40.85l-.08-.03c-.07-.03-.14-.07-.2-.13-.05-.05-.1-.1-.14-.15l-.1-.1.47.06v.04c.02.08.03.15.04.23l.02.08ZM22.36,40.58s.03.03.04.04c.03.03.06.05.08.07,0-.03-.01-.07-.02-.1h-.11Z"/>
        </g>
        <g>
          <path class="cls-3" d="M22.82,40.58s-.06.04-.09.06c.02-.02.03-.04.05-.06.01,0,.03,0,.04,0Z"/>
          <polygon class="cls-3" points="22.53 40.82 22.76 40.53 22.97 40.55 22.53 40.82"/>
        </g>
      </g>
      <g>
        <g>
          <path class="cls-3" d="M26.31,41.3s-.09-.06-.13-.11c.04-.01.08-.02.11-.03,0,.05.01.09.02.14Z"/>
          <path class="cls-3" d="M26.37,41.39l-.09-.05c-.05-.03-.1-.07-.15-.12l-.05-.06.07-.02s.08-.02.12-.03h.05s.04.28.04.28Z"/>
        </g>
        <g>
          <path class="cls-3" d="M26.33,40.61s0,.01,0,.02c0-.01-.01-.02-.02-.04,0,0,.01,0,.02.01Z"/>
          <path class="cls-3" d="M26.35,40.81l-.16-.38.15.13s0,0,.01.01l.03.02-.03.22Z"/>
        </g>
        <g>
          <path class="cls-3" d="M26.61,40.82s-.02,0-.04,0c0,0,.01,0,.02,0,0,0,.01,0,.02.01Z"/>
          <path class="cls-3" d="M26.77,40.9l-.17-.03s-.01,0-.02,0h-.01s-.19-.03-.19-.03l.22-.08h.02s.02.02.02.03l.14.11Z"/>
        </g>
      </g>
      <g>
        <path class="cls-3" d="M22.82,40.58s-.06.04-.09.06c.02-.02.03-.04.05-.06.01,0,.03,0,.04,0Z"/>
        <polygon class="cls-3" points="22.53 40.82 22.76 40.53 22.97 40.55 22.53 40.82"/>
      </g>
      <g>
        <g>
          <path class="cls-3" d="M26.33,40.61s0,.01,0,.02c0-.01-.01-.02-.02-.04,0,0,.01,0,.02.01Z"/>
          <path class="cls-3" d="M26.35,40.81l-.16-.38.15.13s0,0,.01.01l.03.02-.03.22Z"/>
        </g>
        <g>
          <path class="cls-3" d="M26.41,40.04c0,.07-.02.15-.03.22-.04,0-.09,0-.13.02.02-.08.06-.15.14-.22,0,0,.01-.01.02-.02Z"/>
          <path class="cls-3" d="M26.18,40.34l.02-.08c.02-.09.08-.17.15-.24,0,0,.01-.01.02-.02l.1-.08-.05.39h-.04s-.08,0-.12.02l-.08.02ZM26.34,40.19s-.01.02-.01.03c0,0,0,0,.01,0v-.02Z"/>
        </g>
        <g>
          <path class="cls-3" d="M26.61,40.82s-.02,0-.04,0c0,0,.01,0,.02,0,0,0,.01,0,.02.01Z"/>
          <path class="cls-3" d="M26.77,40.9l-.17-.03s-.01,0-.02,0h-.01s-.19-.03-.19-.03l.22-.08h.02s.02.02.02.03l.14.11Z"/>
        </g>
        <g>
          <path class="cls-3" d="M27.17,40.64s-.05.06-.08.09c0,0-.01.01-.02.02-.03.02-.05.04-.08.06,0-.05-.01-.1-.03-.16.05-.02.09-.04.14-.06.02-.07.04-.14.05-.2,0,.08,0,.16.02.25Z"/>
          <path class="cls-3" d="M26.95,40.89v-.08s-.02-.09-.03-.14l-.02-.05.16-.07c.02-.06.03-.12.05-.18l.09-.34v.35c0,.07.02.15.03.24v.02s0,.01,0,.01c-.02.04-.05.07-.08.1l-.02.02s-.05.05-.09.06l-.07.04ZM27.03,40.68s0,.03.01.04c0,0,0,0,0,0l.02-.02s.03-.03.04-.05l-.08.03Z"/>
        </g>
      </g>
      <g>
        <g>
          <path class="cls-3" d="M38.1,32.87s0,0,.01-.01c.03.03.03.04-.01.01Z"/>
          <path class="cls-3" d="M38.14,32.94s-.04-.01-.06-.02l-.06-.04.05-.04s0,0,0,0l.04-.04.04.04s.05.06.02.09c-.01.01-.02.02-.04.02Z"/>
        </g>
        <g>
          <path class="cls-3" d="M38.88,32.49c-.13-.66-.34-1.3-.61-1.91-.21-.48-.47-1.18-.99-1.41-.3-.13-.61-.06-.82.14-.83.49-.6,2.01-.43,2.79.22,1.02.83,2.56,1.96,2.86,1.46.38,1.05-1.67.9-2.46ZM38.1,32.87s0,0,.01-.01c.03.03.03.04-.01.01Z"/>
          <path class="cls-3" d="M38.31,35.05c-.1,0-.22-.02-.34-.05-1.07-.28-1.73-1.68-2-2.89-.23-1.04-.33-2.37.45-2.84.24-.22.57-.28.87-.14.48.21.74.81.95,1.29.02.05.04.1.07.15.28.64.49,1.29.62,1.92h-.05s.05,0,.05,0c.12.62.38,1.91-.13,2.39-.13.12-.29.18-.49.18ZM36.97,29.15c-.17,0-.34.07-.48.19h0c-.41.25-.81.92-.41,2.75.26,1.19.9,2.55,1.92,2.82.33.08.57.05.74-.11.47-.44.21-1.74.1-2.3h0c-.12-.63-.33-1.27-.61-1.9-.02-.05-.04-.1-.07-.15-.2-.46-.45-1.04-.9-1.24-.1-.04-.19-.06-.29-.06ZM38.14,32.94s-.04-.01-.06-.02l-.06-.04.05-.04s0,0,0,0l.04-.04.04.04s.05.06.02.09c-.01.01-.02.02-.04.02Z"/>
        </g>
      </g>
      <g>
        <g>
          <path class="cls-3" d="M18.95,33.22s0,0,0,0c0,0,0,0-.01,0,0,0,.01,0,.02,0Z"/>
          <polygon class="cls-3" points="18.73 33.3 18.92 33.18 18.99 33.14 19 33.22 19 33.23 19 33.27 18.95 33.28 18.73 33.3"/>
        </g>
        <g>
          <path class="cls-3" d="M19.36,33.46c-.12,0-.06-.09.01-.18.02-.03.04-.05.06-.08,0,0,0,0,0,0,0,.02,0,.03,0,.05h0c.02.11.04.21-.09.22Z"/>
          <path class="cls-3" d="M19.35,33.51s-.08-.01-.09-.04c-.03-.05,0-.12.08-.22.01-.02.03-.03.04-.05l.03-.03s0,0,.01-.01l.09-.09v.13s0,.02,0,.03v.02c.02.08.03.15-.01.21-.02.03-.06.05-.12.05,0,0-.01,0-.02,0ZM19.41,33.31c-.04.05-.06.08-.06.1,0,0,0,0,.01,0h0s.04,0,.05-.02c.01-.01,0-.04,0-.08Z"/>
        </g>
        <g>
          <path class="cls-3" d="M19.53,31.35s-.04.06-.05.1c0-.04,0-.08-.01-.13.02,0,.04.02.07.03Z"/>
          <path class="cls-3" d="M19.44,31.63v-.18s-.02-.08-.03-.12v-.08s.07.03.07.03c.02,0,.05.02.07.03l.05.02-.03.05s-.03.06-.05.1l-.08.16Z"/>
        </g>
        <g>
          <path class="cls-3" d="M20.43,29.25c-.2-.03-.41.02-.6.15-.14.09-.27.21-.39.34.15-.22.33-.41.56-.49.15-.05.3-.05.43,0Z"/>
          <path class="cls-3" d="M19.48,29.77l-.08-.06c.18-.27.37-.44.58-.51.16-.06.32-.06.46,0l.41.16-.44-.06c-.19-.03-.39.02-.56.14-.13.09-.26.2-.38.34Z"/>
        </g>
      </g>
      <g>
        <g>
          <path class="cls-3" d="M28.36,37.95c-1.2-.13-2.12-1.78-1.85-2.37.03-.07.08-.16.06-.24-.11-.34-1.19-.27-1.23.26-.13,1.7,1.63,3.09,3.37,2.98.65-.04,1.18-.08,1.68-.32.08-.04.28-.14.51-.32.63-.48,1.41-1.46,1.13-2.05-.12-.27-.46-.45-.69-.38-.23.07-.31.39-.35.52-.25.79-1.49,2.05-2.64,1.92ZM31.77,36.13s0,.04,0,.05c0-.01,0-.03-.01-.04,0,0,.01,0,.02-.01ZM31.35,36.49s-.04,0-.05,0c0,0,.02-.01.03-.02,0,0,.02,0,.03.01ZM30.96,36.29s-.02-.03-.03-.04c0,0,.02.01.03.02,0,0,0,.02,0,.03Z"/>
          <path class="cls-3" d="M28.51,38.63c-.9,0-1.79-.37-2.43-1.02-.57-.57-.85-1.29-.79-2.01.02-.32.37-.47.67-.5.27-.03.59.03.66.24.03.09-.02.18-.05.25v.02c-.11.23-.02.65.22,1.08.3.54.88,1.14,1.58,1.21,1.02.11,2.12-.92,2.49-1.66l-.11-.16.15.09c.02-.05.04-.11.06-.16v-.03c.05-.15.15-.45.38-.52.25-.08.61.12.75.41.29.62-.5,1.6-1.15,2.11-.25.2-.46.3-.52.33-.52.25-1.07.28-1.7.32-.07,0-.14,0-.2,0ZM26.09,35.18s-.08,0-.13,0c-.26.03-.56.16-.58.41-.05.7.22,1.39.76,1.94.66.67,1.64,1.04,2.56.99.62-.04,1.16-.08,1.66-.31.04-.02.25-.12.5-.32.61-.47,1.38-1.42,1.12-1.99-.11-.24-.43-.42-.63-.36-.19.06-.27.33-.31.46v.03c-.03.06-.05.12-.08.18h.02s0,.03,0,.03c0,0,0,.02,0,.03l.02.18-.1-.14c-.18.35-.51.74-.88,1.04-.57.46-1.17.69-1.69.63-.74-.08-1.34-.71-1.65-1.26-.26-.46-.35-.91-.23-1.17v-.02c.04-.06.07-.13.05-.18-.03-.11-.21-.17-.43-.17ZM31.11,36.56l.17-.12s.01,0,.02-.01l.03-.02.19.1-.4.05ZM31.77,36.4l-.06-.2s0-.01,0-.02l-.02-.05.14-.1-.06.38Z"/>
        </g>
        <g>
          <path class="cls-3" d="M30.79,36.15s0,.02,0,.03c-.01-.01-.02-.03-.03-.04,0,0,.02.01.03.02Z"/>
          <path class="cls-3" d="M30.86,36.36l-.29-.39.26.16v.02s0,.02,0,.03l.02.18Z"/>
        </g>
        <g>
          <path class="cls-3" d="M31.15,36.36s.02,0,.03.01c-.02,0-.04,0-.05,0,0,0,.02-.01.03-.02Z"/>
          <path class="cls-3" d="M30.94,36.46l.16-.11s0,0,.01,0c0,0,.01,0,.02-.01l.02-.02.19.1-.4.04Z"/>
        </g>
        <g>
          <path class="cls-3" d="M31.6,36.03s0,.04,0,.05c0-.01,0-.03-.01-.04,0,0,.01,0,.02-.01Z"/>
          <polygon class="cls-3" points="31.6 36.29 31.52 36.02 31.67 35.92 31.6 36.29"/>
        </g>
      </g>
      <g>
        <path class="cls-3" d="M20.99,29.7c-.11-.27-.32-.42-.56-.45h0c-.2-.03-.41.02-.6.15-.14.09-.27.21-.39.34-.29.32-.53.72-.73,1.06-.28.49-.49,1.02-.63,1.57-.13.5-.3,1.19-.04,1.68.31.6.74.6,1.14.37.11.02.23.02.35-.02.55-.16.85-.8,1.06-1.27.24-.52.39-1.07.47-1.64.07-.55.15-1.26-.07-1.79ZM18.95,33.23s0,0-.01,0c0,0,.01,0,.02,0,0,0,0,0,0,0ZM19.36,33.46c-.12,0-.06-.09.01-.18.02-.03.04-.05.06-.08,0,0,0,0,0,0,0,.02,0,.03,0,.05h0c.02.11.04.21-.09.22ZM19.48,31.45s0-.08-.01-.13c.02,0,.04.02.07.03-.02.03-.04.06-.05.1Z"/>
        <path class="cls-3" d="M18.72,34.61c-.06,0-.12,0-.18-.02-.21-.06-.39-.23-.54-.51-.26-.5-.09-1.19.03-1.7v-.02c.14-.54.35-1.08.64-1.58.2-.35.44-.75.73-1.07.13-.14.26-.26.4-.35.2-.13.42-.19.63-.16.27.04.49.21.6.48h0c.21.51.16,1.17.07,1.82-.08.57-.23,1.13-.47,1.65-.2.45-.51,1.13-1.09,1.3-.12.03-.24.04-.35.02-.17.09-.32.14-.47.14ZM20.32,29.29c-.16,0-.32.05-.47.15-.13.09-.26.2-.38.34-.29.31-.53.71-.72,1.05-.28.5-.49,1.02-.62,1.56v.02c-.13.49-.29,1.16-.05,1.63.13.26.3.41.48.47.17.05.37.01.59-.12h.02s.02,0,.02,0c.11.02.22.01.33-.02.53-.15.83-.81,1.03-1.24.23-.52.39-1.06.46-1.62.08-.63.14-1.28-.07-1.77h0c-.1-.24-.28-.39-.52-.42-.03,0-.07,0-.1,0ZM19.35,33.51s-.08-.01-.09-.04c-.03-.05,0-.12.08-.22.01-.02.03-.03.04-.05l.03-.03s0,0,.01-.01l.09-.09v.13s0,.02,0,.03v.02c.02.08.03.15-.01.21-.02.03-.06.05-.12.05,0,0-.01,0-.02,0ZM19.41,33.31c-.04.05-.06.08-.06.1,0,0,0,0,.01,0h0s.04,0,.05-.02c.01-.01,0-.04,0-.08ZM18.73,33.3l.19-.12.07-.04v.08s0,0,0,0v.04h-.05s-.21.02-.21.02ZM19.44,31.63v-.18s-.02-.08-.03-.12v-.08s.07.03.07.03c.02,0,.05.02.07.03l.05.02-.03.05s-.03.06-.05.1l-.08.16Z"/>
      </g>
      <g>
        <path class="cls-3" d="M5.83,27.35c0-.08-.1-.14-.18-.11s-.11.12-.1.2.07.15.14.2"/>
        <path class="cls-3" d="M6.32,27.35c-.01-.14-.04-.25-.13-.36-.08-.1-.18-.18-.31-.21-.22-.06-.47-.01-.63.16-.29.31-.24.8.08,1.06.11.08.21.14.35.14.12,0,.26-.05.35-.14s.15-.22.14-.35c0-.12-.04-.27-.14-.35-.02-.01-.09-.09-.03-.02s0-.01-.01-.03l.05.12s-.01-.03-.01-.05l.02.13s0-.04,0-.06l-.02.13s0-.04.02-.06l-.05.12s0-.03-.04.05c-.08.05-.09.07-.05.04l-.12.05s.02,0,.04,0l-.13.02h.02s-.09-.01-.13-.02c.02,0,.04,0,.05.02l-.12-.05s.03,0-.05-.06c-.06-.08-.08-.1-.06-.05l-.05-.12v.02s0-.09-.01-.13v.02c.01.13.05.25.15.35.09.09.22.15.35.14.24-.01.52-.22.49-.49h0Z"/>
      </g>
      <path class="cls-2" d="M21.32,30.67s0,0,0,0l.04.11s0,0,0,0l.02.12s0,0,0,0l-.02.12s0,0,0,0l-.04.11s0,0,0,0l-.07.09s0,0,0,0l-.09.07s0,0,0,0l-.11.04s.01,0,.02,0l-.12.02s.02,0,.02,0l-.12-.02s.01,0,.02,0l-.11-.04s0,0,0,0l-.09-.07s0,0,0,0l-.07-.09s0,0,0,0l-.04-.11s0,0,0,0l-.02-.12s0,0,0,0l.02-.12s0,0,0,0l.04-.11s0,0,0,0c-.03.05-.05.11-.05.16-.01.06-.01.12,0,.18.01.06.04.11.08.15.03.05.07.09.12.11l.11.04c.08.02.16.02.23,0l.11-.04c.07-.04.12-.09.16-.16.04-.07.07-.16.07-.24,0-.04,0-.08-.02-.12,0-.02-.04-.09-.05-.11-.02-.04-.05-.07-.07-.1s-.06-.06-.1-.07c-.02,0-.05-.02-.06-.02,0,0-.04-.02-.06-.02-.05-.01-.09-.02-.14-.02-.02,0-.05,0-.07,0-.02,0-.05,0-.07.01-.07.02-.16.07-.21.12-.01.01-.02.02-.04.05,0,0-.03.03-.04.05,0,.01-.04.09-.05.11,0,0,0,0,0,0,.03-.09-.02.08-.02.12,0,.02.01.1.02.12,0,.04.03.08.05.12.03.05.07.09.11.12.04.04.09.07.15.08.06.02.12.02.18,0,.06,0,.11-.02.16-.05l.09-.07c.05-.06.09-.12.11-.19l.02-.12c0-.08-.02-.15-.06-.22h0Z"/>
      <path class="cls-2" d="M37.67,30.77l.11.11s.09.07.14.09c.05.03.11.04.17.04.06,0,.12-.01.17-.04.05-.02.1-.05.14-.09.08-.08.13-.19.13-.31l-.02-.12c-.02-.07-.06-.14-.11-.19l-.11-.11s-.09-.07-.14-.09c-.05-.03-.11-.04-.17-.04-.06,0-.12.01-.17.04-.05.02-.1.05-.14.09-.08.08-.13.19-.13.31l.02.12c.02.07.06.14.11.19h0Z"/>
    </g>
  </g>
</svg>