<?xml version="1.0" encoding="UTF-8"?>
<svg id="Layer_2" data-name="Layer 2" xmlns="http://www.w3.org/2000/svg" viewBox="0 0 681.1 782.54">
  <defs>
    <style>
      .cls-1 {
        fill: #fc8675;
      }

      .cls-2 {
        fill: #fff;
      }

      .cls-3 {
        fill: #fefcf1;
      }

      .cls-4 {
        fill: #112d7a;
      }

      .cls-5 {
        fill: #2a8fe3;
      }
    </style>
  </defs>
  <g id="Layer_1-2" data-name="Layer 1">
    <g>
      <g>
        <path class="cls-3" d="m125.83,145.05c-2.26,1.51-24.13,36.95-24.13,36.95,0,0-21.87,35.44-22.62,37.7s-10.56,46.75-10.56,46.75l-10.56,36.19,3.02,69.37-7.54,14.33-17.34,15.83s-18.1,33.93-19.6,36.19-11.31,39.96-11.31,39.96l-3.02,29.41,6.79,36.19,21.11,24.13,12.06,9.8,21.11,3.77,28.65,38.45s33.18,36.95,35.44,36.95,45.24,27.9,45.24,27.9l58.06,14.33,73.89,6.79,58.06-.75s66.35-5.28,68.61-6.79c2.26-1.51,66.35-18.85,66.35-18.85l38.45-26.39,33.18-40.72,9.05-17.34,20.36-49.76-.75-40.72v-33.18l15.08-16.59,29.41-51.27,10.56-43.73s6.03-50.52,6.03-52.78-9.05-39.21-9.05-42.22-21.11-35.44-21.11-35.44l-21.87-15.83s-22.62-3.77-26.39-3.02-31.67,5.28-31.67,8.29-12.06,10.56-12.06,10.56l-8.29-27.14-30.91-44.49-64.84-63.33-61.83-27.14-39.96-6.03s-54.29.75-56.55,1.51-53.53,15.08-53.53,15.08l-37.7,17.34-42.22,29.41-15.08,20.36Z"/>
        <path class="cls-5" d="m506.23,259.12c-11.69-21.41-24.4-42.23-38.22-62.33-7.03-10.23-14.34-20.27-21.89-30.13-1.89-2.47-3.75-5.54-5.97-7.72-1.64-1.6-3.56-2.58-5.05-4.33-3.63-4.25-7.12-8.59-10.92-12.7-31.66-34.14-72.59-54.79-117.03-67.16-12.97-3.61-26.13-6.5-39.4-8.79-6.08-1.05-12.21-1.89-18.35-2.3.08.87-.29,1.74-1.34,2.26-8.46,4.17-19.19,9.42-29.1,9.96,1.54,4.29,5.92,6.05,10.24,5.28,11.09-1.98,23.02-.7,34.03,1.2,11.47,1.98,22.86,4.4,34.11,7.36,21.66,5.69,43.26,13.02,62.96,23.77,17.93,9.78,34.2,22.19,48.43,36.85,3.48,3.58,6.84,7.29,10.06,11.1,1.77,2.09,3.39,4.61,5.33,6.53,1.7,1.69,3.67,2.62,5.17,4.5,7.33,9.15,14.16,18.76,20.88,28.37,15.04,21.5,28.81,43.85,41.37,66.87,5.24,9.61,19.93,1.04,14.68-8.58Z"/>
        <path class="cls-5" d="m624.21,273.68c-4.18-21.47-12.77-42.19-25.33-60.1-2.63-3.75-7.44-5.5-11.63-3.05-3.71,2.17-5.7,7.85-3.05,11.63,29.02,41.39,33.39,95.44,15.93,142.33-8.35,22.43-21.73,43.05-37.96,60.56-8.34,9-17.47,17.39-27.31,24.73-5.59,4.17-11.48,6.58-11.84,14.32-.29,6.18-.46,12.32-1.14,18.48-5.27,47.39-30.05,92.36-66.47,122.93-40.88,34.31-95.66,48-146.93,57.84-57.58,11.05-121.09,14.91-174.57-13.34-4.63-2.45-9.01-.35-11.26,3.05.24.08.49.2.74.39,7.94,5.89,15.45,12.32,23.16,18.51.72.58.92,1.35.8,2.1.53.37,1.06.73,1.59,1.1,59.63,21.79,126.59,13.45,187.56-.34,35.41-8.01,70.88-18.62,102.36-37.11,29.01-17.03,53.35-41.03,70.88-69.74,18.53-30.35,29.14-65.42,30.2-100.97,29.15-20.92,53.79-48.46,69.34-80.95,16.75-34.98,22.36-74.21,14.93-112.37Z"/>
        <path class="cls-5" d="m43.54,398c-19.2,55.34-39.03,120.89-4.31,174.64,5.92,9.16,20.64.65,14.68-8.58-32.07-49.64-11.61-110.73,6.02-161.54,3.59-10.36-12.82-14.81-16.39-4.52h0Z"/>
        <path class="cls-5" d="m40.17,432.28c-17.57,46.01-15.6,97.66,4.01,142.65,1.83,4.21,8,5.17,11.63,3.05,4.34-2.54,4.89-7.4,3.05-11.63-17.82-40.87-18.14-88.05-2.3-129.55,1.64-4.29-1.81-9.32-5.94-10.46-4.79-1.32-8.81,1.63-10.46,5.94h0Z"/>
        <path class="cls-5" d="m656.73,291.34c-.55-1.66-1.1-3.32-1.65-4.98-.63-9.92-3.7-19.52-9.47-28.02-1.57-2.31-3.93-3.49-6.36-3.75-2.81-6.38-6.16-12.43-10.12-18.01-6.13-9.8-14.19-17.97-24.92-22.86-.05-.03-.1-.06-.15-.09,0,0,0,.01,0,.02-.67-.3-1.33-.6-2.02-.88-9.04-3.62-14.78,10.9-6.55,15.54,7.58,4.27,13.78,10.03,18.83,16.74-.07.46-.1.93-.06,1.41.29,3.61.58,7.21.87,10.82-.68,1.18-1.1,2.63-1.15,4.36-.34,11.19.28,22.38,1.81,33.45.22,33.58-4.38,67.14-13.81,99.36-1.97,3.31-3.77,6.71-5.39,10.2-2.19-.2-4.38.55-6.03,2.69-.44.57-.87,1.16-1.31,1.73,0,0-.01,0-.02-.01-.15.21-.3.42-.45.63-1.37,1.8-2.71,3.62-4.03,5.45-4.92,6.33-10.38,12.21-16.29,17.6-1.9-.33-3.88-.14-5.53.69-6.51,3.24-12.01,8.17-15.97,14.21-1.69,1.09-3.34,2.23-4.93,3.5-7.04,5.65-11.33,13.69-14.17,22.12-2.99,8.89-4.45,18.31-6.34,27.47-2.33,11.33-4.67,22.66-7,33.98-.85,4.13.85,8.39,4.92,10.03.05.02.1.03.14.05-14.02,14.32-24.67,31.63-31.03,50.54-.81,1.54-1.62,3.08-2.42,4.63-.03.06-.05.12-.08.18-.54.19-1.08.45-1.62.78-7.84,4.81-15.69,9.62-23.54,14.44-1.41,0-2.82.37-4.05,1.17-11.95,7.77-23.9,15.53-35.85,23.3-3,1.95-4.1,4.83-3.92,7.61-7.02,1.25-14.03,2.56-21.02,3.93-1.9-1.52-4.38-2.27-7.1-1.52-24.14,6.71-48.28,13.42-72.42,20.13-4.23,1.17-6.03,4.51-6,7.9-12.76.36-25.53.66-38.3.88-3.22.06-5.62,1.76-7,4.08-22.17.06-44.34-.66-66.47-2.19-5.61-.39-8.31,3.91-8.16,8.28,8.73,3.76,17.75,6.76,26.75,9.81,24.3,1.19,48.62,1.41,72.91.68,24.54,3.6,49.33,3.17,74.07.99,14.67-.89,29.3-2.52,43.84-4.88.03,0,.05.01.08.01,1.84,2.21,4.8,3.62,8.5,3.09,29.13-4.17,57.23-13.71,83.03-27.84.05-.03.09-.06.14-.09,1.77-.89,3.52-1.82,5.27-2.77,2.42.24,4.92-.45,6.53-2.4.71-.86,1.4-1.73,2.11-2.59,4.51-2.77,8.91-5.74,13.18-8.92,32.32-24.06,55.15-57.39,63.23-97.09,4.64-22.8,6.33-46.39,6.99-69.61.14-4.95-.2-10.18.73-15.07.94-4.93,3.75-8.68,6.83-12.51,6.16-7.66,11.9-15.62,16.97-24.04,19.44-32.29,30.04-69.99,30.55-107.67,1.43-1,2.49-2.53,2.83-4.64,1.4-8.58,1.58-17.07.57-25.39,1.29-1.89,1.84-4.24,1.04-6.66Zm-141.97,308.74c-.61,1.42-.84,2.8-.8,4.12-.33.27-.66.53-.99.8-.35-.54-.76-1.05-1.22-1.5,1.03-1.16,2.05-2.32,3.06-3.5l-.04.08Z"/>
        <path class="cls-5" d="m414.49,132.13c29.29,32.5,51.33,70.5,73.18,108.17l13.35-10.3c-17.65-19.7-31.9-42.09-42.61-66.27l-14.68,8.58c16.29,23.48,33.48,46.33,51.47,68.53,6.16,7.6,18.17-2.16,13.35-10.3-13.34-22.53-25.51-45.72-36.5-69.49l-14.68,8.58c13.46,18.95,26.91,37.89,40.37,56.84,6.23,8.77,20.23,1.08,14.68-8.58-12.79-22.26-24.61-45.05-35.43-68.34l-13.35,10.3c13.69,16.62,26.4,33.98,38.19,51.99,5.95,9.09,20.28.93,14.68-8.58-9.03-15.34-17.29-31.09-24.78-47.23l-14.68,8.58c10.18,13.27,19.62,27.08,28.18,41.45,1.99,3.33,3.93,6.68,5.8,10.08.23,1.19.47,1.24.74.16-.51.43-1.01.86-1.51,1.31-1.26.88-2.42,2.01-3.55,3.05-5.72,5.31-10.43,11.79-13.91,18.75-3.54,7.07,4.04,16.65,11.63,11.63,8.65-5.72,15.76-12.89,21.36-21.62,5.14-8.02-6.96-17.65-13.35-10.3s-12.21,15.73-16.69,24.69c-3.72,7.43,3.92,16,11.63,11.63,12.85-7.28,24.12-17.29,22.18-33.47-1.85-15.44-13.53-28.23-22.89-39.86-19.81-24.62-42.21-47.05-66.69-67.01l-12.02,12.02c16.57,13.08,33.62,26.54,43.76,45.49l13.35-10.3c-13.83-17.08-28.4-33.49-49.35-41.68-8.7-3.4-13.11,8.45-8.27,14.21,10.64,12.66,23.38,23.39,37.55,31.92,8.59,5.17,16.47-6.29,10.3-13.35-9.69-11.09-17.62-23.44-23.98-36.71-3.88,3.88-7.75,7.75-11.63,11.63,10.39,7.98,20.14,16.78,29.35,26.09,7.75,7.83,19.31-3.93,12.02-12.02-6.09-6.75-12.18-13.51-18.28-20.26l-12.02,12.02c13.29,10.75,25.14,23.13,34.98,37.11,2.64,3.75,7.43,5.51,11.63,3.05,3.71-2.17,5.7-7.86,3.05-11.63-10.69-15.2-23.18-28.86-37.64-40.55-8.39-6.79-19.49,3.74-12.02,12.02,6.09,6.75,12.18,13.51,18.28,20.26l12.02-12.02c-10.26-10.37-21.23-19.86-32.79-28.75-2.94-2.26-7.88-1.09-10.3,1.33-2.81,2.81-2.98,6.86-1.33,10.3,6.99,14.59,16,27.97,26.64,40.15l10.3-13.35c-13.01-7.83-24.34-17.65-34.11-29.26l-8.27,14.21c17.71,6.93,30.25,22.99,41.85,37.31,6.28,7.76,17.72-2.13,13.35-10.3-10.84-20.27-28.68-34.93-46.42-48.93-3.6-2.84-8.51-3.51-12.02,0-2.99,2.99-3.58,9.11,0,12.02,21.25,17.32,40.94,36.5,58.71,57.38,8.42,9.89,18.32,20.43,23.86,32.3,2.11,4.53,3.6,9.94.72,14.48s-8.05,7.01-12.45,9.51l11.63,11.63c3.83-7.66,8.41-14.78,14.03-21.24l-13.35-10.3c-3.99,6.22-9.09,11.45-15.26,15.53l11.63,11.63c4.04-8.08,9.56-13.09,15.86-19.29,7.73-7.61,5.03-16.58.25-24.93-9.52-16.62-20.2-32.55-31.86-47.75-6.6-8.6-19.37-1.53-14.68,8.58,7.49,16.14,15.75,31.89,24.78,47.23l14.68-8.58c-12.58-19.22-26.24-37.7-40.85-55.43-2.66-3.23-8.13-3.08-11.16-.66-3.5,2.79-4.03,7.01-2.19,10.97,10.82,23.28,22.64,46.07,35.43,68.34l14.68-8.58c-13.46-18.95-26.91-37.89-40.37-56.84-6.36-8.96-19.28-1.38-14.68,8.58,10.98,23.77,23.16,46.95,36.5,69.49l13.35-10.3c-17.08-21.08-33.34-42.8-48.81-65.09-6.32-9.11-19.08-1.36-14.68,8.58,11.3,25.51,26.65,48.94,45.26,69.71,6.53,7.28,18.13-2.07,13.35-10.3-22.59-38.95-45.55-78.01-75.83-111.61-7.34-8.14-19.33,3.91-12.02,12.02h0Z"/>
        <path class="cls-5" d="m359.56,97.6c21.75,11.83,43.77,23.71,62.93,39.53l10.3-13.35c-18.66-13.95-37.92-27.05-57.76-39.28l-8.58,14.68c9.01,4.55,17.83,9.48,26.38,14.85,4.15,2.6,8.23,5.3,12.26,8.08,2,1.39,4.08,2.74,5.99,4.25.38.3,1.3,1.26,1.74,1.48,1.26.64.53,2.1.95-.62l8.2-6.24c-1.9-.09-3.67-1.77-5.17-2.81-2.96-2.05-5.89-4.16-8.83-6.23-5.62-3.97-11.24-7.93-16.87-11.9-3.42-2.41-8.62-.94-10.97,2.19-2.65,3.54-2.17,7.87.66,11.16,11.05,12.82,23.81,23.94,37.87,33.36,8.09,5.42,17.14-6.69,10.3-13.35-11.43-11.12-22.85-22.24-34.28-33.35l-10.3,13.35c14.27,6.79,27.99,14.6,41.11,23.41l8.58-14.68c-9.98-6.54-18.9-14.75-26.03-24.33l-9.6,12.49c12,4.6,23.17,11.02,33.46,18.7l8.58-14.68c-7.98-3.71-14.93-8.54-21.06-14.86l-10.3,13.35c7.82,3.69,15.64,7.38,23.47,11.07,9.8,4.62,18.45-9.82,8.58-14.68-7.2-3.55-14.01-7.68-20.49-12.43l-6.55,15.54c6.77,2.01,13.02,5.21,18.42,9.78l10.3-13.35c-8.37-5.22-16.74-10.45-25.11-15.67-9.31-5.81-17.85,8.89-8.58,14.68,8.37,5.22,16.74,10.45,25.11,15.67,8.03,5.01,17.78-7.03,10.3-13.35s-16.24-11.28-25.93-14.15-13.9,10.14-6.55,15.54c6.47,4.75,13.29,8.88,20.49,12.43l8.58-14.68c-7.82-3.69-15.64-7.38-23.47-11.07-8.44-3.98-17.36,6.07-10.3,13.35s15.32,13.25,24.5,17.52c10.04,4.67,17.32-8.15,8.58-14.68-11.53-8.61-24.1-15.27-37.52-20.41-6.65-2.55-13.94,6.66-9.6,12.49,8.96,12.03,19.56,22.2,32.13,30.43,9.2,6.03,17.61-8.61,8.58-14.68-13.12-8.81-26.84-16.63-41.11-23.41-8.31-3.95-17.62,6.23-10.3,13.35,11.43,11.12,22.85,22.24,34.28,33.35l10.3-13.35c-12.87-8.62-24.32-18.97-34.43-30.7l-10.3,13.35c6.69,4.72,13.39,9.44,20.08,14.17,6.12,4.32,11.6,8.72,19.38,9.1,3.35.16,7.65-2.73,8.2-6.24,2.15-13.87-11.09-20.77-21.04-27.41-10.95-7.31-22.34-13.9-34.09-19.83-9.72-4.91-17.96,8.89-8.58,14.68,19.83,12.23,39.1,25.33,57.76,39.28,7.67,5.73,17.74-7.21,10.3-13.35-20.36-16.8-43.27-29.62-66.37-42.19-9.61-5.23-18.2,9.44-8.58,14.68h0Z"/>
        <path class="cls-5" d="m270.38,78.06c48.38-4.82,100.29-.22,140.17,30.16l6.55-15.54c-8.69-2.22-16.16-6.91-23.84-11.38-8.26-4.81-16.86-8.88-26.05-11.6-18.71-5.52-38.53-6.15-57.89-6.7-9.38-.26-11.83,14.93-2.26,16.7,27.86,5.14,54.19,16.98,76.06,35.08l10.3-13.35c-13.84-9.91-28.67-18.14-44.37-24.73-6.69-2.81-15.72-7.96-21.9-1.38-6.52,6.94.9,17.95,9.84,15.21,3.3-1.01,6.59-4.46,6.24-8.2l-.05-.48c-.43-4.57-3.6-8.5-8.5-8.5-4.26,0-8.93,3.9-8.5,8.5l.05.48,6.24-8.2-.47.14h4.52l-.64-.15,3.75,2.19-.48-.4,2.49,6.01.02-.6-2.49,6.01.65-.61-3.75,2.19c-1.96.42-1.55,0,.08.82,1.05.53,2.27.86,3.37,1.3,2.11.83,4.21,1.71,6.29,2.63,4.67,2.07,9.27,4.31,13.78,6.71,8.77,4.66,17.18,9.94,25.25,15.72,7.78,5.57,17.74-7.19,10.3-13.35-24.12-19.95-52.73-33.76-83.57-39.45l-2.26,16.7c18.49.52,37.24,1.02,55.03,6.6s30.79,18,48.24,22.47c9.94,2.54,13.87-9.96,6.55-15.54-41.97-31.98-97.77-37.56-148.75-32.48-4.57.45-8.5,3.58-8.5,8.5,0,4.24,3.9,8.96,8.5,8.5h0Z"/>
        <path class="cls-5" d="m522.46,587.67c-5.22,8.79-10.44,17.57-15.65,26.36l15.54,6.55c2.35-8.86,4.69-17.71,7.04-26.57s-7.95-13.58-14.21-8.27c-10.43,8.85-20.85,17.7-31.28,26.55l13.35,10.3c5.98-8.9,11.95-17.79,17.93-26.69,3.88-5.78-1.4-12.31-7.34-12.79-8.27-.67-14.56,4.6-20.49,9.6-3.2,2.7-6.37,5.43-9.51,8.21-2.02,1.78-5.86,6.33-7.72,7.14l6.55-.86-.86-.35,6.24,8.2.02-.58-4.21,7.34.5-.37h-8.58l.43.23c9.69,5.05,18.3-9.62,8.58-14.68l-.43-.23c-2.5-1.3-6.13-1.82-8.58,0-3,2.22-4.57,4.45-4.73,8.29-.17,4.07,2.83,6.8,6.24,8.2,7.58,3.11,14.4-6.63,19.29-10.94,3.14-2.77,6.32-5.5,9.52-8.19,2.3-1.93,4.56-4.25,7.73-4l-7.34-12.79c-5.98,8.9-11.95,17.79-17.93,26.69s6.41,16.19,13.35,10.3c10.43-8.85,20.85-17.7,31.28-26.55l-14.21-8.27c-2.35,8.86-4.69,17.71-7.04,26.57-2.46,9.3,10.58,14.9,15.54,6.55,5.22-8.79,10.44-17.57,15.65-26.36,5.6-9.43-9.09-17.99-14.68-8.58h0Z"/>
        <path class="cls-5" d="m629.7,246.56l.5-.47-6.01,2.49c-1.82-.07.08.32.69,1,.46.51.98.97,1.4,1.51,1.63,2.09,2.78,4.65,3.87,7.04,2.47,5.39,4.26,11.08,5.75,16.81,2.75,10.58,19.15,6.09,16.39-4.52-2.41-9.25-5.58-19.31-10.94-27.32-4.77-7.12-15.47-16.3-23.68-8.57s4.06,19.52,12.02,12.02h0Z"/>
        <path class="cls-5" d="m613.8,238.31c-4.59-14.46-14.71-25.02-27.25-32.11-.57.08-1.13.16-1.7.25-4.66,1.75-9.57,2.37-14.5,2.99-3.74.85-7.49,1.71-11.26,2.45.97,1.39,2.46,2.52,4.55,3.11,14.58,4.16,28.93,12.59,33.76,27.83,3.3,10.39,19.71,5.95,16.39-4.52Z"/>
        <path class="cls-5" d="m390.96,699.24c11.83.69,23.71-.24,35.3-2.72l-1.16-2.74c-.39.17-.77.33-1.16.5-1.77.76-.24,3.35,1.51,2.59.39-.17.77-.33,1.16-.5,1.63-.71.42-3.08-1.16-2.74-11.33,2.42-22.93,3.29-34.5,2.61-1.93-.11-1.92,2.89,0,3h0Z"/>
        <path class="cls-5" d="m403.58,697.86c6.01-.63,11.95-1.75,17.76-3.41,1.56-.44,1.33-3.17-.4-2.95-6.85.87-13.7,1.74-20.56,2.61l.4,2.95c7.17-2.05,14.44-3.77,21.77-5.16,1.89-.36,1.09-3.25-.8-2.89-7.33,1.39-14.59,3.11-21.77,5.16-1.56.45-1.33,3.17.4,2.95,6.85-.87,13.7-1.74,20.56-2.61l-.4-2.95c-5.55,1.58-11.22,2.71-16.96,3.31-1.9.2-1.92,3.2,0,3h0Z"/>
        <path class="cls-1" d="m232.08,354.26c-9.95.89-23.36,2.88-30.35,10.8-8.23,9.33.45,23.58,5.74,32.39,5.83,9.71,14.27,17.28,22.43,24.96s17.72,19.47,30.12,13.31c9.09-4.52,13.74-14.96,16.07-24.32,2.71-10.87,4.08-22.29,4.52-33.47.41-10.5-.15-22.59-10.46-28.45-9.18-5.22-21.71-3.73-31.48-1.17-12.1,3.17-23.64,10.27-22.51,24.4.52,6.45,3.28,12.06,7.34,16.99,3.3,4.02,7.7,7.22,10.6,11.54,6.57,9.79,21.99,3.8,19.19-8.09-1.64-6.94-2.22-14.25-1.21-21.35l-20.62-2.79c-.11,14.12,2.21,28.21,7.06,41.48,4.01,11,20.04,9.43,20.62-2.79s1.15-24.12,1.73-36.18h-21c1.38,10.8,2.75,21.61,4.13,32.41,1.7,13.32,19.6,13.65,21,0,1.24-12.12,2.48-24.25,3.72-36.37h-21c.86,13.29,1.72,26.58,2.58,39.87.37,5.66,4.56,10.5,10.5,10.5,5.4,0,10.87-4.81,10.5-10.5-.86-13.29-1.72-26.58-2.58-39.87s-19.64-13.34-21,0c-1.24,12.12-2.48,24.25-3.72,36.37h21c-1.38-10.8-2.75-21.61-4.13-32.41-.72-5.62-4.31-10.5-10.5-10.5s-10.23,4.81-10.5,10.5c-.58,12.06-1.15,24.12-1.73,36.18l20.62-2.79c-4.25-11.65-6.41-23.49-6.31-35.9.04-5.18-4.02-9.71-9.1-10.31-4.63-.55-10.77,2.29-11.52,7.52-1.57,11.01-1.35,21.65,1.21,32.52l19.19-8.09c-2.29-3.42-4.93-6.49-7.83-9.39-2.23-2.23-4.95-4.38-6.43-7.23.3.58-1.42-3.54-.91-2.67-1.33-2.29,2.08-.44-.55.16,1.05-.24,2.39-1.25,3.52-1.66,1.93-.71,3.93-1.25,5.94-1.71,3.08-.7,11.75-2.64,13.47-.21,1.32,1.87.27,6.98.2,9.07-.15,4.35-.45,8.69-.96,13.01-.83,7.11-1.87,14.98-4.6,21.65-.18.45-3.48,5.48-3.51,5.38,4.13.49,5.45.39,3.95-.31-.61-.55-1.21-1.1-1.81-1.67-1.7-1.58-3.38-3.18-5.07-4.77-6.27-5.91-13.11-11.59-18.53-18.33-2.4-2.99-4.32-6.34-6.06-9.76-.8-1.58-1.55-3.19-2.28-4.8-.48-1.08-.96-2.16-1.43-3.24-.35-1.01-.38-.64-.07,1.1l-2.7,4.63c2.48-3.14,11.09-4.26,15.5-4.65,5.65-.51,10.5-4.46,10.5-10.5,0-5.29-4.82-11.01-10.5-10.5h0Z"/>
        <path class="cls-2" d="m347.41,252.98c-3.15-4.07-4.96-9.05-8.28-13.1-3.78-4.62-8.95-7.93-14.85-9.01-12.55-2.31-24.59,4.01-31.41,14.47-12.86,19.74-9.34,53.35,12.36,65.55,9.88,5.56,22.72,6.61,32.64.53s14.3-16.46,15.3-27.46c1.83-20-8.34-49.93-31.79-51.57-12.89-.9-23.72,8.62-28.01,20.14s-2.66,24.16,1.66,34.83,11.21,19.46,21.5,24.07c12.93,5.79,27.16,2.28,33.09-11.24,4.87-11.09,3.98-24.88.27-36.2s-11.44-24.34-25.16-24.31-21.84,13.92-23.53,25.86,1.76,24.13,9.92,32.94c8.86,9.56,23.56,12.5,33.45,2.74s7.62-24.59,2.31-36.24c-2.49-5.46-5.41-11.29-10.61-14.67-6.11-3.97-13.56-3.78-19.53.3-11.39,7.79-10.03,24.35-6.03,35.87s16.07,26.41,29.61,18.53c10.96-6.38,10.65-22.34,9.55-33.29-1.23-12.22-5.61-24.38-15.32-32.43s-22.19-10.74-33.91-5.79c-24.84,10.48-27.82,41.87-14.29,62.58,6.84,10.46,18.77,19.29,31.89,16.56s19.8-15.86,19.95-28.28c.14-12.08-3.3-25.67-8.6-36.47s-15.67-20.24-27.88-22.37c-26.1-4.57-43.48,22.54-42.33,45.93.62,12.61,5.95,26.98,17.34,33.71s27.84,1.94,31.17-12.05c2.87-12.05-1.87-27.24-8.69-37.18-7.52-10.97-21.88-18.75-34.72-11.36-11.25,6.48-13.33,21.47-11.98,33.22,1.35,11.78,6.42,28.4,19.37,32.01,6.95,1.94,14.79-.63,18.65-6.86,3.43-5.54,2.65-13.1.71-19-1.82-5.54-5.14-11.62-10.19-14.86-6.58-4.22-15.31-2.25-19.6,4.22-6.85,10.34-3.39,26.81.55,37.62l17.55-10.22c-15.72-13.92-5.7-37.5.7-53.5,1.92-4.79-1.7-10.63-6.08-12.39-4.86-1.95-10.34-.27-13.11,4.3-8.76,14.43-11.42,30.85-8.81,47.41l20.25-5.58c-6.42-22.86,7.95-44.45,26.66-56.46,16.84-10.82,44.88-17.49,57.81,2.93l14.37-14.37c-15.04-10.27-34.58-13-51.92-7.51l5.58,20.25c29.25-9.55,52.38,16.23,64.97,39.26,5.5-4.24,10.99-8.48,16.49-12.72-20.5-18.19-42.51-36.07-70.92-38.25-10.25-.79-14.5,15.06-5.3,19.57,19.12,9.38,47,13.06,58.19,33.4,3.95-5.14,7.91-10.28,11.86-15.42-11.56-2.66-20.85-10.09-31.36-15.19-11.71-5.68-25.04-9.17-37.78-4.8-9.22,3.16-10.72,17.79,0,20.25,9.9,2.27,19.79.94,29.72,2.3,2.38.33,5.46,1.08,7.86,2.28,2.25,1.12,3.06,3.13,4.73,4.31-.15-.22-.24-.47-.26-.75.15-3.89,3.62-5.09,10.39-3.6-.49-1.07-1.89-2.27-2.62-3.21-2.59-3.35-5.05-6.8-7.65-10.14-4.52-5.82-9.41-11.24-15.64-15.3-6.71-4.37-15.33-6.77-23.27-5.04-9.99,2.18-16.92,11.92-14.27,22.12,2.32,8.93,10.11,14.52,17.33,19.4,8.36,5.65,16.71,11.29,25.07,16.94l8.09-19.19c-9.32-3.56-16.16-12.19-22.3-19.71-7.46-9.14-14.61-17.95-24.05-25.15-4.1-3.13-10.74-1.05-13.55,2.7-3.21,4.29-2.79,9.83.82,13.79,15.25,16.75,32.4,31.56,50.99,44.49,5.4,3.75,14.08.02,15.42-6.28,1.81-8.44-.06-15.85-3.36-23.6-2.4-5.65-5.28-10.91-4.62-16.83l-15.8,9.07c13.41,8.42,23.26,21.4,27.82,36.56l19.19-8.09c-12.93-18.93-27.55-38.46-48.9-48.42-19.27-8.99-44.83-10.83-58.42,8.56-3.71,5.29-.07,14.21,6.28,15.42,8.59,1.64,15.94-1.12,24.38-1.61,6.57-.38,12.84.43,19.13,2.38,11.87,3.68,22.25,11.49,28.83,22.04,5.5-4.24,10.99-8.48,16.49-12.72-8.99-8.84-19.19-16.59-30.28-22.61s-23.89-11.33-34.61-1.84c-4.32,3.82-3.73,10.94,0,14.85,5.82,6.11,13.33,9.01,20.99,12.07,6.14,2.46,12.21,5.1,18.08,8.17,11.56,6.06,22.01,13.66,28.23,25.39,5.45,10.28,23.65,3.12,19.19-8.09-4.78-12.01-6.3-24.2-4.68-37.02l-20.62,2.79c5.17,12.51,7.96,25.46,8.02,39,.02,5.18,3.97,9.7,9.1,10.31,4.68.56,10.71-2.3,11.52-7.52.58-3.77,1.17-7.54,1.75-11.31l-20.62-2.79c1.61,17.43-3.67,34.61-15.69,47.5,5.5,4.24,10.99,8.48,16.49,12.72,5.67-11.12,9.78-22.85,11.86-35.17.79-4.66-.52-9.34-4.83-11.86-3.89-2.27-9.61-1.78-12.72,1.64-6.47,7.1-12.94,14.2-19.42,21.3l17.55,10.22c2.54-10.7,5.08-21.39,7.63-32.09s-9.77-17.31-17.55-10.22c-9.82,8.95-18.33,19.2-25.52,30.36l18.13,10.6c5.13-12.06,8.97-24.32,10.98-37.3.66-4.26-.09-8.29-3.76-11.04-3.18-2.38-8.15-3.21-11.66-.82-10.45,7.11-19.11,15.75-26.26,26.17l19.19,8.09c.39-1.24.79-2.48,1.18-3.73,4.11-12.91-16.16-18.43-20.25-5.58-.39,1.24-.79,2.48-1.18,3.73-1.57,4.93,1.43,10.52,6.08,12.39,5.06,2.04,10.07.13,13.11-4.3,5.02-7.31,11.4-13.65,18.73-18.63-5.14-3.95-10.28-7.91-15.42-11.86-1.7,11.02-4.49,22-8.86,32.28-2.22,5.21-1.56,11.25,3.77,14.37s11.28,1.01,14.37-3.77c6.26-9.71,13.71-18.33,22.24-26.11l-17.55-10.22c-2.54,10.7-5.08,21.39-7.63,32.09-2.31,9.72,10.17,18.31,17.55,10.22,6.47-7.1,12.94-14.2,19.42-21.3l-17.55-10.22c-1.78,10.53-4.89,20.63-9.74,30.15-5.19,10.19,7.98,21.85,16.49,12.72,15.58-16.69,23.96-39.5,21.84-62.35-.48-5.19-3.62-9.66-9.1-10.31-4.68-.56-10.71,2.3-11.52,7.52-.58,3.77-1.17,7.54-1.75,11.31l20.62,2.79c-.07-15.28-2.93-30.45-8.77-44.58-4.62-11.17-19.1-9.23-20.62,2.79-1.82,14.36.08,29.16,5.43,42.61l19.19-8.09c-7.08-13.36-18.82-23.37-31.81-30.77-6.47-3.69-13.27-6.72-20.13-9.61-6.23-2.62-13.88-4.51-18.65-9.51v14.85c-2.01,1.78-1.98-.02-.46.84,1.14.65,3.01.98,4.27,1.54,3.9,1.74,7.67,3.94,11.3,6.18,7.34,4.53,13.94,9.84,20.09,15.88,8.35,8.21,22.93-2.4,16.49-12.72-8.8-14.12-21.85-24.34-37.31-30.28-7.32-2.81-15.23-4.29-23.05-4.59-4.3-.17-8.54.21-12.79.83-3.69.54-7.99,2.29-11.73,1.58,2.09,5.14,4.18,10.28,6.28,15.42,3.05-4.35,9.6-5.07,14.69-4.88,7.33.27,14.51,3.22,20.76,6.88,15.22,8.93,25.84,23.54,35.61,37.86,6.41,9.39,22.8,3.91,19.19-8.09-6.15-20.44-19.4-37.77-37.47-49.11-7.38-4.63-14.97,1.63-15.8,9.07s1.81,14.33,4.69,21c1.88,4.36,4.84,10.1,4.04,13.84,5.14-2.09,10.28-4.18,15.42-6.28-17.13-11.91-32.7-25.79-46.74-41.2-4.24,5.5-8.48,10.99-12.72,16.49,8.89,6.78,15.34,16.64,22.48,25.11,8.04,9.54,17.12,17.38,28.88,21.87,4.82,1.84,10.6-1.64,12.39-6.08,2.02-5.03.15-10.11-4.3-13.11-8.36-5.65-16.71-11.29-25.07-16.94-.3-.2-8.36-6.65-7.76-6.84,2.15-.67-.95,4.61-1.61,4.01-.75-.68,3.09.09,2.43-.02,5.64.96,10.14,5.91,13.8,10.22,4.84,5.69,8.61,12.44,13.82,17.79,7.82,8.02,20.68,5.55,24.38-5.18,2.78-8.07-.44-16.39-6.29-22.24s-13.84-8.95-21.81-10.14c-9.36-1.4-19.05.04-28.28-2.08v20.25c9.74-3.34,19.21,1.13,27.68,5.91,9.74,5.5,19.26,11.53,30.3,14.07,8.95,2.06,16.37-7.23,11.86-15.42-13.77-25.03-42.23-29.41-65.73-40.94l-5.3,19.57c22.12,1.7,40.26,18.07,56.07,32.1,8.81,7.81,22.37-1.96,16.49-12.72-8.68-15.9-19.94-30.74-35.31-40.7-15.52-10.06-35.57-14.02-53.37-8.21-12.78,4.17-7.37,24.36,5.58,20.25s25-1.95,35.74,5.39c8.73,5.97,19.83-5.73,14.37-14.37-8.53-13.47-22.68-21.42-38.34-23.32-16.34-1.98-32.99,3.46-46.8,11.98-27.36,16.88-46.91,48.29-37.71,81.06,1.53,5.46,7.43,8.84,12.92,7.33,5.98-1.64,8.22-7.29,7.33-12.92-1.71-10.87,1.05-21.92,6.69-31.23l-19.19-8.09c-9.43,23.57-17.34,54.42,4.7,73.93,3.52,3.11,8.53,4.1,12.72,1.64,3.78-2.21,6.4-7.54,4.83-11.86-1.48-4.05-2.7-8.21-3.13-12.52-.22-2.14-.28-4.33-.2-6.48.14-3.62.42-.73-1.29.09l-5.3,1.43c-5.49.63-2.68-3.38-2.17-.02,0-.03,1.27,3.09,1.28,3.13-.17-.65.87,3.41.45,3.01l3.8-4.39c1.05-.31,1.99-.15,2.83.47-.13.18-3.19-5.85-3.45-6.62-1.22-3.54-1.89-7.13-1.93-10.87-.02-1.94-.31-8.86,2.03-9.86,3.98-1.71,8.59,8,9.6,10.37,1.23,2.88,2.11,6.15,2.54,9.25.23,1.66.03,3.37.24,5.02.42,3.38-.96.48.29.59,4.33.38-1.47-1.79-.24-.52-.15-.15-.32-.45-.64-.64-2.06-1.21-3.85-4.76-4.7-6.86-3.91-9.67-2.12-23.15,5.75-30.44,8.37-7.76,18.15-.89,22.71,7.52,2.99,5.52,4.31,11.89,5.46,18.01.88,4.72,2.57,11.7-.72,15.91-5.6,7.15-14.78-12.63-15.74-16.5-2.16-8.77,1.51-21.04,11.75-22.51,10.62-1.53,16.27,11.39,17.43,19.79.49,3.53.43,7.2.31,10.75-.06,1.62-.8,4.96-.64,5.38-.4-1.03,6.32.37,5.94-1.59.14.72-2.39-2.97-2.05-2.46-1.72-2.58-2.49-5.77-3.04-8.78-.42-2.27.23-5.4-.38-7.4l.18-.4c-1.05,1.41-2.59,1.58-4.62.49.15-.44,2.69,6.99.87,1.29.9,2.83,2.94,5.43,3.99,8.26,1.18,3.18,1.27,5.64.86,8.26,0,0-1.18,1.29,0,.95-1.48.42-3.54-1.92-4.32-2.84-2.9-3.43-4.29-7.92-4.28-12.39,0-2.93.87-9.89,4.32-10.89-2.49.72-.8-.22-.04,1.58,1.36,3.21,3.17,5.82,4.17,9.27,1.56,5.39,2.35,11.9,1.39,17.01-.35,1.87-1.31,3.71-1.76,4.8-.16.39-1.91.56-.03.38-1.33.13-2.66-.16-3.89-.66-8.95-3.64-13.24-14.83-13.77-23.77-.29-4.86.11-10.68,4.08-14.04,3.14-2.66,5.36-1.88,7.96.55,7.43,6.94,9.86,21.93,7.5,30.89s-11.87,11.24-19.15,3.86c-8.08-8.18-8-25.7-1.24-34.66,2.21-2.93,6.98-5.59,10.24-3.85,2.29,1.22,3.69,4.74,4.89,6.84,1.88,3.29,3.88,6.28,6.2,9.28,3.48,4.49,11.2,3.65,14.85,0,4.43-4.43,3.49-10.35,0-14.85h0Z"/>
        <path class="cls-2" d="m307.43,215.66c-20.4,2.54-37.7,15.55-46.09,34.4-4.59,10.31-6.82,21.36-6.97,32.65-.14,10.57.98,22.14,6.03,31.62s14.74,15.15,24.71,19.11c10.43,4.14,21.32,7.2,32.36,9.19,21.57,3.89,45.4,3.82,64-9.38,19.32-13.71,29.16-41,14.83-61.98-3.19-4.68-9.23-6.77-14.37-3.77-4.64,2.71-6.98,9.66-3.77,14.37,7.63,11.17,3.12,25.12-7.04,33.05-12.14,9.48-28.76,10.22-43.41,8.23-8.81-1.2-17.56-3.38-26.03-6.06-6.73-2.13-14.78-4.32-20.1-9.21-4.88-4.48-5.65-12.08-6.05-18.33-.51-7.92-.03-15.76,2.13-23.42,3.85-13.65,14.74-27.6,29.75-29.47,5.63-.7,10.5-4.33,10.5-10.5,0-5.13-4.83-11.2-10.5-10.5h0Z"/>
        <path class="cls-2" d="m329.43,278.47c-5.63-8.16-16.29-16.37-24.94-6.65-7.23,8.13-3.9,21.78,1.64,29.85,10.33,15.04,30.47,26.62,48.88,20.4,5.13-1.73,9.24-7.29,7.33-12.92-3.88-11.43-14.05-17.17-24.56-21.71s-24.3-9.84-36.08-5.09c-11.26,4.54-17.75,17.43-11.75,28.71,5.09,9.57,16.87,14.11,26.79,16.57,11,2.73,23.97,3.45,34.46-1.51,11.33-5.35,15.01-18.29,7.6-28.6-6.71-9.34-18.57-13.43-29.77-12.28s-25.47,5.41-31.17,15.52c-3.61,6.4-2.64,14.82,2.79,19.9,4.85,4.54,11.94,6.24,18.31,7.27,12.39,2,28.06,2.29,37.61-7.21,9.6-9.54-5.25-24.39-14.85-14.85-3.43,3.41-12.65,2.4-17.18,1.81-1.35-.18-10.01-2.79-10.08-2.7l1.87,5.69c-.98.93-.75.88.69-.15,1.2-.48,2.33-1.16,3.53-1.65,5.53-2.26,12.88-4.55,18.53-1.42.74.41,1.58,1.39,2.3,1.74.52.23.82.69.91,1.39-.61-1.46-.41-2.74.6-3.85-.01,0-5.09,1.68-5.71,1.76-7.33.89-14.71-.65-21.57-3.17-1.62-.6-6.32-2.01-6.85-3.8,0-.03-.26.89-.15.76,2.91-3.82,15.18,1.96,18.62,3.34s6.81,3.03,10,4.91c1.67.98,4.22,2.32,4.86,4.2l7.33-12.92c-6.71,2.27-13.06-.29-18.61-4.33-4.4-3.21-11.12-9.41-8.78-15.45l-2.7,4.63.84-1.04-4.63,2.7,1.17-.4h-5.58c-3.51-1-1.12-.71.16,1.14,3.22,4.66,9.21,6.78,14.37,3.77,4.62-2.7,7-9.68,3.77-14.37h0Z"/>
        <path class="cls-2" d="m259.79,257.53c-14.83,9.57-12.81,27.72-9.31,42.69,4.02,17.19,11.62,32.77,26.2,43.29s33.45,15.29,50.91,17.3,36.42-.83,52.36-9.39c16.13-8.66,34.68-27.08,28.39-47.16-4.02-12.85-24.3-7.37-20.25,5.58,1.94,6.21-3.78,12.02-7.97,15.92-5.24,4.88-11.73,8.6-18.49,10.93-16.66,5.75-34.38,4.31-51.06-.61-15.21-4.49-28.58-11.46-35.23-26.59-3-6.82-4.74-14.4-6.05-21.71-.47-2.62-.8-5.62-.42-8.56.2-1.51.7-3.03,1.52-3.55,11.32-7.3.8-25.49-10.6-18.13h0Z"/>
        <path class="cls-2" d="m178.75,298.75c-10.94-15.49-18.41-34.73-36.68-43.23s-39.24-.7-49.17,17.05c-9.24,16.51-10.85,39.45-2.24,56.5,8.04,15.91,28.22,24.55,44.79,16.69s18.96-30.53,13.02-46.44c-3.22-8.62-8.38-16.66-16.45-21.46-9.31-5.54-21.61-5.34-28.18,4.18-11.14,16.15-5.23,40.86,9.21,52.85,13.23,10.97,36.54,15.83,48.83.66s1.1-41.65-10.86-54.1c-7.38-7.67-18.65-9.35-26.56-1.4-6.48,6.52-8.22,16.35-8.32,25.19-.11,9.94,2.81,20.32,10.51,27.05s18.68,9.05,27.96,3.97c17.41-9.51,18.68-37.8,4.6-50.82-7.8-7.22-19.67-6.38-27.57.14s-9.97,17.49-8.15,27.35,9.05,19.21,19.74,19.79,17.64-8.18,20.15-17.95c4.24-16.55-1.92-35.3-14.57-46.66-13.99-12.55-34.5-15.93-52.25-10.31-8.84,2.8-17.69,7.62-23.84,14.69-6.68,7.68-9.33,17.22-9.28,27.28.1,18.71,4.07,39.8,15.53,55.01,12.58,16.7,31.18,23.94,51.79,19.95,18-3.48,35.55-14.94,44.85-30.87,9.46-16.22,10.42-38.04.22-54.17-9.37-14.82-26.67-24.6-44.4-22.44-18.68,2.28-34.91,16.46-37.56,35.44-2.55,18.24,7.28,40.57,24.03,49.32,18.35,9.58,38.82-3.65,41.82-23.2,2.38-15.53-5.07-32.87-19.75-39.72-15.94-7.44-34.84-1.22-45.1,12.6-11.6,15.63-6.81,38.68,7.74,50.8,15.77,13.13,40.09,6.15,45.91-13.88,5.38-18.53-7.4-37.36-26.5-39.1s-34.62,14.3-32.7,32.99c.96,9.39,5.78,18.33,14.17,23.1s18.99,3.89,26.53-2.57c13.31-11.41,13.28-32.93,7.53-48.09-6.35-16.73-19.77-31.93-37.48-36.86-10.04-2.79-20.35-.53-27.99,6.6-6.6,6.17-10.27,14.78-13.39,23.07-3.68,9.79-6.04,20.05-4.36,30.51,1.59,9.89,6.93,18.86,12.8,26.81,10.44,14.14,24.58,27.33,42.52,30.49,20.7,3.65,39.97-5.04,55.82-17.77,14.54-11.68,30.57-26.7,32.78-46.16s-9.55-37.91-23.86-50.38c-13.99-12.18-30.95-26.14-50.11-27.54-10.23-.75-14.54,15.06-5.3,19.57,21.27,10.37,35.45,31.96,35.6,55.76l17.92-7.42c-10.2-12.59-20.41-25.19-30.61-37.78-8.51-10.5-17.86-21.39-31.76-24.26l-2.79,20.62c12.06-.22,23.76,1.15,35.42,4.25s17.48-12.5,8.09-19.19c-24.6-17.53-60.82-7.88-73,19.89l19.19,8.09c3.93-9.38,15.19-15.01,24.93-15.13,12.95-.16,24.04,7.38,31.93,17.11,4.24-5.5,8.48-10.99,12.72-16.49-6.75-5-13.5-10-20.25-15l-10.6,18.13c7.14,3.43,17.35,7.8,20.28,15.49,3.31,8.67-6.61,18.31-12,24.01l14.85,14.85c1.64-1.77,2.8-2.1,5.25-2.43l-10.22-17.55c-12.28,15.53-24.57,31.06-36.85,46.58-3.52,4.44-4.34,10.51,0,14.85,3.65,3.65,11.31,4.47,14.85,0,12.28-15.53,24.57-31.06,36.85-46.58,6.79-8.58.42-19.01-10.22-17.55-5.58.77-10.71,3.74-14.51,7.83-9.19,9.88,5.53,24.7,14.85,14.85,11.11-11.75,22.35-26.65,17.53-43.83-4.02-14.32-17.48-22.6-30.06-28.65-12.35-5.93-21.39,10.14-10.6,18.13,6.75,5,13.5,10,20.25,15,4.15,3.07,10.71,1.09,13.55-2.7,3.34-4.47,2.57-9.6-.82-13.79-11.68-14.42-30.66-24.74-49.6-23.13-19.06,1.63-34.97,12.76-42.36,30.41-4.55,10.87,14.42,18.98,19.19,8.09,7.87-17.96,28.18-23.82,44.26-12.36l8.09-19.19c-13.36-3.54-27.19-5.25-41-5-11.44.21-14.76,18.15-2.79,20.62,11.21,2.32,18.24,13.61,25,21.95,9.37,11.57,18.74,23.13,28.11,34.7,5.92,7.3,17.98,1.06,17.92-7.42-.19-30.72-18.26-60.37-46-73.89l-5.3,19.57c5.45.4,10.31,3.26,14.81,6.16,5.44,3.51,10.75,7.4,15.84,11.41,9.03,7.1,18.02,15.58,21.37,26.92s-1.56,20.47-9.55,28.79-17.36,17.14-28.22,22.67c-9.94,5.06-21.77,6.76-32.15,2.05-9.43-4.29-17.04-12.34-22.89-20.71-3.4-4.86-6.83-10.06-8.23-15.9-1.5-6.22.18-12.5,2.15-18.42,2.22-6.65,6.36-21.17,15.51-19.8,18.15,2.72,32.6,29.65,25.84,45.54-.25.59-1.62,2.87-1.81,3.1-.94,1.12-1.69,1.42-2.06,1.31-2.82-.8-4.35-4.07-4.72-6.78-.97-7.16,6.07-12.77,13.04-10.07,5.83,2.26,7.41,10.49,3.5,14.85-7.01,7.82-15.03-2.73-16.87-9.68-2.18-8.22,2.37-15.04,9.13-17.96s13.65-.97,17.27,4.64c3.81,5.88,4.84,13.98-.54,19.28-7.48,7.36-15.8-5.52-18.63-11.63-4.2-9.06-3.77-19.73,3.98-26.66,6.71-6.01,16.18-7.59,24.44-4,20.1,8.72,20.88,35.39,7.08,50.03-7.57,8.03-18.51,13.7-29.52,14.98s-19.83-3.01-26.41-11.24c-7.32-9.16-10.19-21.52-11.45-32.93s-2.16-21.68,8.16-28.43c16.51-10.8,42.58-7.23,49.03,13.49,1.18,3.78,1.72,7.71,1.16,11.43-.08.52-1.87,5.79-1.82,5.85,1.88,2.12,2.87-1.14,3.05-1.73.31-1.01-1.13-4.45-1.02-5.91.07-.94.03-1.72.51-2.64.08-.15,1.37-2.17,1.18-1.49-.12.43-.04-.39-.28,0h.64c1.19.04.87-.1-.95-.44,0-.02,2.03,4.18,2.25,5.04.85,3.28,1.35,7.67-.9,10.53-2.08,2.64-4.47,1.86-6.55-.64-3.25-3.92-2.97-11.02-2.19-15.66.19-1.16.68-3.03,1.02-3.79.1-.23.77-1.9,1.23-1.81.66.12-5.33,1.75-4.68.67.12-.21,4.87,5.96,5.25,6.58,1.18,1.92,2.28,3.94,3.13,6.03,1.39,3.47,4.43,11.58,1.91,15.14.41-.58-1.47.57-1.94.73-1.77.61-3.33.73-5,.56-4.46-.45-8.83-2.62-12.13-5.58-3.68-3.29-6.11-7.77-6.81-12.68-.3-2.12-.32-4.4,0-6.51.2-1.34.78-2.6.99-3.92.05-.62.3-1.17.74-1.66-.66.75-1.52,1.1-2.56,1.05-.09-.45,4.05,1.91,3.99,1.87,1.71,1.31,2.91,3.06,3.97,4.88,2.29,3.93,3.68,8.51,4.02,13.06.68,9.12-3.59,14.6-11.51,12.65-8.7-2.14-12.39-11.34-12.85-19.87-.56-10.55,1.54-23.6,9.99-30.83,7.89-6.75,17.16-3.7,24.05,2.89,8.73,8.34,13.49,20.05,20.38,29.81,3.27,4.63,9.17,6.8,14.37,3.77,4.58-2.68,7.05-9.71,3.77-14.37h0Z"/>
        <path class="cls-2" d="m147.56,209.48c9.23-18.31,20.85-35.21,34.92-50.14,7.04-7.47,14.61-14.44,22.63-20.85,3.73-2.98,7.62-5.77,11.57-8.45s7.96-5.72,13.13-5.12c5.64.65,10.5-5.29,10.5-10.5,0-6.22-4.84-9.85-10.5-10.5-12.45-1.44-23.61,7.53-32.95,14.59s-18.63,15.03-26.99,23.63c-16.23,16.71-29.96,35.93-40.45,56.73-2.55,5.06-1.34,11.38,3.77,14.37,4.67,2.73,11.8,1.32,14.37-3.77h0Z"/>
        <path class="cls-2" d="m575.7,229.23c-9.75-4.11-21.22.93-26.64,9.45-2.95,4.65-1.12,11.78,3.77,14.37,5.19,2.74,11.22,1.19,14.37-3.77.7-1.11.23-.19-.27.28.93-.87.2-.24-.4.13.16-.1,1.14-.89,1.31-.81-.44-.22-1.97.65,0,.07.52-.15,1.79-.08.49-.17-1.55-.11.25.06.52.1,1.04.13-1.31-.73-.52-.04.29.25,1.47.5,1.81.64,5.08,2.14,11.77-2.3,12.92-7.33,1.4-6.15-1.9-10.63-7.33-12.92h0Z"/>
        <path class="cls-2" d="m528.89,256.27c-9.13,8.28-17.72,17.13-25.91,26.34-3.89,4.38-7.7,8.83-11.46,13.33-3.76,4.5-10.13,9.88-9.82,16.26.28,5.76,4.59,10.37,10.5,10.5h.43c6.03.14,10.02-4.93,10.5-10.49l.03-.32c.49-5.66-5.17-10.5-10.5-10.5-6.08,0-10.01,4.83-10.5,10.5l-.03.32,10.5-10.5h-.43c3.5,3.49,7,6.99,10.5,10.49l-.02-.5-1.43,5.3c1.74-2.82,5.97-7.23,8.7-10.46,3.59-4.23,7.24-8.41,10.97-12.52,7.25-7.98,14.83-15.65,22.82-22.9,10.03-9.1-4.86-23.92-14.85-14.85h0Z"/>
        <path class="cls-4" d="m234.3,67.89c-12.83-8.35-7.94-28.78-1.47-39.77,7.18-12.2,21.05-20.31,35.4-17.84,6.29,1.08,9-8.55,2.66-9.64-19.37-3.33-38.15,6.66-47.46,23.8-8.78,16.17-11.65,40.72,5.83,52.09,5.41,3.52,10.43-5.13,5.05-8.63h0Z"/>
        <path class="cls-4" d="m191.56,378.47c12.13-11.67,26.59-21,42.96-25.39,12.1-3.24,34.76-7.84,41.24,6.85,3.38,7.67,3.12,17.14,2.61,25.34-.55,8.85-2.17,17.67-4.86,26.12-2.62,8.22-10.52,29.07-22.72,23.1-3.81-1.87-7.05-4.98-10.19-7.77-5-4.45-9.93-8.98-14.45-13.92-6.89-7.51-12.83-15.76-17.97-24.55-3.24-5.56-11.89-.53-8.63,5.05,5.55,9.51,12.08,18.46,19.53,26.58,7.42,8.08,16.16,17.25,25.78,22.76,15.97,9.15,28.86-5.81,34.81-19.39,7.98-18.18,11.79-41.49,7.26-61.04-1.77-7.63-5.81-14.3-12.79-18.18-8.9-4.96-19.49-4.33-29.24-3.05-23.22,3.06-43.66,14.32-60.41,30.43-4.65,4.47,2.43,11.54,7.07,7.07h0Z"/>
        <g>
          <path class="cls-4" d="m661.46,307.84c-.44-35.07-11.31-70.94-41.79-91.25-21-13.99-44.82-11.01-44.82-11.01-13.24,1.28-23.47,6.22-29.87,10.17-2.06,1.27-4.74.58-5.95-1.52-2.36-4.12-5.31-9.1-8.82-14.64-.64-1-2.59-4.19-6.69-10.45-7.4-11.3-20.9-30.7-25.49-36.8-14.1-18.77-47.75-50.16-71.38-65.09-60.25-38.08-180.34-48.18-266.24,16.92-67.01,50.78-89,129.02-93.41,146.19-1.82,7.08-3.02,13.03-3.77,17.09-1.6,2.39-3.7,5.78-5.78,10.05-2.22,4.56-9.32,19.58-8.65,38.72.44,12.47,3.32,26.83,5.96,33.29.23.57.38,1.15.43,1.76.36,4.9.38,10.69-.43,17.12-.35,2.75-.81,5.32-1.33,7.71-.25,1.12-.8,2.14-1.62,2.95-14.35,14.13-40.33,44.21-48.91,89.23-6.74,35.39-1.92,77.91,16.07,97.29,10.84,11.67,24.98,18.82,40.66,20.08,1.97.16,3.72,1.29,4.69,3.02,5.8,10.28,12.39,20.1,19.61,29.43,12.87,16.6,27.67,31.54,44.5,44.16,25.41,19.05,55.06,31.73,85.94,38.79,28.02,6.41,56.84,8.43,85.52,8.83,26.31.36,52.74.34,79.02-.98,56.72-2.84,115.26-14.44,159.4-52.62,45.52-39.37,65.94-99.07,66.51-158.03.08-8.27-.24-16.54-.89-24.79,0-.01,0-.02,0-.03-.17-1.93.43-3.84,1.85-5.15,17.77-16.45,30.4-37.75,38.94-60.64,11.68-31.34,17.15-66.39,16.73-99.78ZM8.85,522.02c-5.23-31.46,5.5-65.91,19.76-93.73,4.48-8.74,9.6-17.11,15.37-25.01,2.68-3.66,8.47-1.47,7.99,3.04-1.94,18.3-4.71,36.52-8.15,54.59-2.37,12.43-5.02,24.91-5.14,37.62-.13,15.16,2.57,30.54,6.69,45.09,1.96,6.92,4.31,13.72,7.01,20.37,2,4.91-2.98,9.86-7.84,7.75-19.27-8.39-32.17-28.48-35.69-49.71Zm630.52-129.73c-9.65,31.62-26.74,61.83-55.07,80.13-5.39,3.48-.38,12.14,5.05,8.64.85-.55,1.69-1.1,2.51-1.67,1.05-.72,2.49-.02,2.56,1.26,2.55,47.11-6.72,95.61-33.44,135.13-16.87,24.93-40.16,44.69-67.15,57.91-24.76,12.14-52.09,18.73-79.35,22.17-26.02,3.29-52.28,3.88-78.47,4.03-25.77.15-51.59.34-77.28-2.01-29.09-2.65-58.26-8.72-85.04-20.67-24.07-10.75-45.8-25.98-64.18-44.87-15.54-15.97-28.92-34.07-39.33-53.78-13.43-25.41-22.76-55.12-21.38-84.13.61-12.72,3.66-25.22,5.95-37.7,5.56-30.31,5.62-36.93,6.02-40,1.37-10.45,3.1-25.34,4.44-43.62.09-1.28,1.57-1.96,2.61-1.19,5.68,4.18,10.15,7.54,14.13,10.61,0,0,4.31,3.42,14.27,6.78,6.11,2.06,8.73-7.59,2.66-9.65-15.83-5.36-27.33-17.03-33.84-31.4-.1-.23-.15-.47-.15-.72.09-4.71.14-9.43.19-14.16.17-18.29,2.01-36.67,5.48-54.75.04-.21.12-.41.23-.59.51-.8,1.04-1.59,1.58-2.38,13.14-19.11,36-30.09,59.19-25.99,14.59,2.57,29.37,10.14,39.59,21.02,13.94,14.84,20.18,36.36,17.9,56.48-.73,6.39,9.28,6.33,10,0,.98-8.65.44-17.61-1.46-26.28-.22-.99.54-1.92,1.55-1.96.73-.03,1.5-.24,2.28-.67,10.52-5.84,22.6-8.11,34.51-6.13.79.13,1.52.09,2.19-.07.86-.22,1.7.36,1.92,1.21,2.31,9.15,6.18,17.94,11.53,25.87,3.57,5.31,12.24.31,8.63-5.05-14.55-21.6-17.5-50.53-4.8-73.7,10.91-19.89,31.62-33.72,53.51-38.63,15.73-3.53,32.34-2.51,47.63,2.54,7.69,2.55,14.98,6.2,21.68,10.77,3.4,2.31,3.87,2.7,6.84,5.26,17.88,15.42,30.43,37.24,30.52,61.27.06,16.19-5.34,31.68-14.58,44.88-3.18,4.53-6.83,8.72-10.8,12.58-1.42,1.39-2.89,2.74-4.41,4.02-.49.42-.99.82-1.48,1.23-.38.32-.57.48-.65.53-.01.01-.02.02-.03.02h-.01c-4.75,3.92.17,12.35,5.23,8.49,18.61-14.19,32.31-35.56,35.75-58.85,2.55-17.21-.51-34.08-7.74-49.15.27-.12.54-.26.81-.44,17.32-11.29,36.6-18.51,57.06-21.46,6.34-.92,3.65-10.56-2.66-9.65-21.22,3.07-41.49,10.77-59.45,22.48-.18.12-.35.24-.51.38-4.39-7.15-9.77-13.79-15.94-19.72-40.27-38.73-110.31-35.61-144.03,10.04-11.46,15.51-16.05,34.65-14.33,53.33.1,1.06-.8,1.92-1.85,1.79-13.76-1.75-27.33.73-39.57,7.53,0,0-.01,0-.02.01-.9.5-2.02.14-2.4-.83-2.58-6.7-6.02-13.01-10.25-18.64-10.88-14.43-27.48-24.81-44.94-29.18-20.86-5.22-42.67-.3-59.21,12.56-1.25.97-3.01-.23-2.57-1.75,5.38-18.67,12.59-36.8,21.59-53.92,26.15-49.74,59.39-88.46,118.39-114.09,23.91-10.38,82.56-30.99,149.88-11.89,44.66,12.68,74.09,37.32,87.46,48.76,13.82,11.82,21.89,21.45,38.03,40.72,39.22,46.79,37.31,61.3,35.52,67.36-1.18,3.98-4.43,7.81-10.92,15.47-11.68,13.77-37.53,36.98-46.04,41.38-5.72,2.96-.67,11.59,5.04,8.64,22.37-11.57,37.61-32.09,54.61-50.01.81-.87,1.64-1.73,2.47-2.58.02-.02.03-.03.05-.05,8.54-8.76,17.89-17.1,29.17-22.12,12.74-5.67,26.87-5.81,39.86-.84,32.13,12.31,46.65,46.48,48.92,78.64,2.23,31.55-2.45,64.81-11.66,95.02Z"/>
          <path class="cls-4" d="m157.09,340.86c-.37.19-.75.36-1.13.49-2.59,2.22-6.09,2.8-9.84.34-.94-.62-1.82-1.37-2.63-2.23,0,0-.01,0-.01-.01-1.04-.55-2.03-1.25-2.92-2.03-3.96-3.48-6.21-8.39-7.63-13.43-1.64-4.63-2.51-9.39-2.64-13.02h0c-.74-5.17-1.01-10.53.2-15.18,1.52-5.84,6.92-9.7,12.91-7.48.57.21,1.12.47,1.65.77.02,0,.04.01.05.02t.01.01c2.27.93,4.41,2.76,6.17,5.03,4.94,6.35,9.5,16.1,10.35,25.41.41,2.08.75,4.17,1.02,6.28.73,5.66.15,12.11-5.56,15.03Z"/>
          <path class="cls-4" d="m329.37,303.45c-6.34,9.26-19.48.93-24.29-5.53-3.62-4.85-5.32-10.33-5.88-16.01-.63-2.24-1.05-4.54-1.31-6.86-.63-4.08-.76-8.23-.05-12.07.42-4.39,1.55-8.81,5.57-11.31,1.83-1.13,3.53-1.6,5.11-1.56,9.76-3.3,16.64,9.12,19.43,16.95,2.34,6.55,3.59,13.59,3.83,20.55.17,4.89.49,11.6-2.41,15.84Z"/>
        </g>
        <path class="cls-4" d="m620.81,195.36c13.15,5.43,26.11,11.87,35.88,22.48,8.83,9.59,14.39,21.59,16.62,34.38.89,5.06,8.6,2.92,7.71-2.13-2.47-14.13-8.97-27.35-18.68-37.91-10.72-11.66-24.99-18.58-39.41-24.53-4.75-1.96-6.83,5.77-2.13,7.71h0Z"/>
        <path class="cls-4" d="m599.08,172.77c24.79.1,48.21,11.45,63.88,30.61,3.26,3.99,8.89-1.7,5.66-5.66-16.94-20.72-42.81-32.85-69.54-32.96-5.15-.02-5.16,7.98,0,8h0Z"/>
      </g>
      <path class="cls-4" d="m400.4,740.1c-30.95-3.6-76.54-6.77-134.36-2.24-9.47.74-109.58,8.58-109.71,20.6-.11,10.27,72.77,20.22,128.5,23.05,101.44,5.16,205.32-10.21,205.16-22.39-.11-8.63-52.51-14.72-89.58-19.03Z"/>
    </g>
  </g>
</svg>