<?xml version="1.0" encoding="UTF-8"?>
<svg id="Layer_2" data-name="Layer 2" xmlns="http://www.w3.org/2000/svg" viewBox="0 0 606.66 731.32">
  <defs>
    <style>
      .cls-1 {
        opacity: .46;
      }

      .cls-1, .cls-2 {
        fill: none;
      }

      .cls-2 {
        opacity: .75;
      }

      .cls-3 {
        fill: #fff;
      }

      .cls-4 {
        fill: #fffbf2;
      }

      .cls-5, .cls-6 {
        fill: #112d7a;
      }

      .cls-7 {
        fill: #2a8fe3;
      }

      .cls-6 {
        stroke: #112d7a;
        stroke-miterlimit: 10;
      }
    </style>
  </defs>
  <g id="Layer_2-2" data-name="Layer 2">
    <g id="Layer_6" data-name="Layer 6">
      <g>
        <path class="cls-4" d="m184.49,105.04c-36.19,29.15-67.36,57.3-78.41,80.43-11.06,23.12-38.2,63.33-42.22,84.45-4.02,21.11-20.11,71.38-18.1,77.41,2.01,6.03-19.1,10.05-23.12,28.15S.52,425.75,3.54,445.85c3.02,20.11,5.03,55.29,17.09,64.34,12.06,9.05,21.11,17.09,24.13,25.13s-3.02,24.13,4.02,41.22c7.04,17.09,32.17,68.36,32.17,68.36l59.31,43.23,72.38,28.15s25.63,3.27,51.65,6.41c32.79,3.96,49.21,5.67,53.91,5.65,19.52-.09,48.16-6.92,104.63-20.58,6.39-1.54,11.6-2.83,14.9-3.64,25.27-12.58,50.53-25.16,75.8-37.73,9.38-8.61,20.26-20.54,29.79-36.41,3.73-6.21,6.77-12.23,9.27-17.87,5.32-6.49,10.63-12.99,15.95-19.48l3.02-44.23,12.06-22.12,15.08-43.23s-7.04-56.3-7.04-59.31-21.11-35.19-21.11-35.19l-3.02-50.27-15.08-50.27-24.13-71.38-57.3-73.39-58.31-40.21s-70.37-26.14-73.39-25.13-40.21,1.01-43.23,1.01-49.26,3.02-49.26,3.02l-36.19,11.06-26.14,12.06Z"/>
        <g>
          <path class="cls-7" d="m88.05,650.47c50.06,33.93,113.25,38.69,172,37.9,61.46-.82,125.72-10.4,177.09-46.56,25.11-17.67,46.43-40.83,59.39-68.85,3.76-8.12-8.31-15.24-12.09-7.07-22.7,49.08-70.39,80.63-121.14,95.23-29.96,8.62-61.06,12.05-92.14,13-29.11.9-58.66.49-87.52-3.77-31.41-4.64-62.07-14.04-88.54-31.98-7.48-5.07-14.49,7.06-7.07,12.09h.02Z"/>
          <path class="cls-7" d="m482.7,585.91c-14.15,24.91-33.67,46.46-57.37,62.62l13.94,18.06c20.35-20.66,41.56-40.45,63.59-59.31l-16.26-16.26c-18.62,17.05-37.29,34.28-58.35,48.31-20.8,13.86-42.92,23.19-67.13,29.21-47.39,11.79-96.62,18.12-145.45,13.76-27.07-2.42-53.75-8.79-78.91-19.07l-6.11,22.18c55.45,19.39,114.33,26.4,172.75,28.97v-23c-29.11-.83-57.92-4.51-86.3-11.06-12.74-2.94-19.97,13.91-8.86,21.02,18.81,12.04,41.44,13.73,63.16,14.8v-23c-16.23-.57-32.47-.87-48.72-.88-12.89,0-15.72,19.24-3.06,22.59,65.07,17.2,135.49,8.9,194.88-22.7,5.48-2.92,7.17-10.53,4.13-15.73-3.37-5.76-10.09-6.78-15.73-4.13-9.42,4.43-20.58,4.08-30.78,4.93-12.17,1.01-24.49,2.95-34.76,10.06-7.69,5.32-7.49,18.54,2.75,21.02,27.15,6.58,53.96-1.43,79.57-10.3-2.95-7.01-5.91-14.01-8.86-21.02-17.58,11.15-37.96,15.52-58.05,19.84-12.86,2.77-9.71,22.53,3.06,22.59,18.79.09,37.29-3.94,55.23-9.22,17.38-5.11,35.34-10.18,51.53-18.44s29.55-20.64,42.72-32.64c13.24-12.06,26.97-24.32,38.09-38.42,13.04-16.53,19.63-35.95,25.56-55.9l-22.18-6.11c-.73,3.34-2.12,5.02-5.33,7.15-3.97,2.64-7.77,4.08-12.21,5.59-10.65,3.6-21.07,4.72-32.13,5.94-13.52,1.5-17.87,16.25-23.46,26.72-6.17,11.58-12.35,23.15-18.52,34.73s9.04,24.11,18.06,13.94c18.3-20.64,37.24-41.21,60.32-56.6l-13.94-18.06c-29.43,30.52-58.86,61.05-88.29,91.57l16.26,16.26c23.46-26.44,47.72-52.15,72.75-77.11,10.51-10.48-5.58-26.52-16.26-16.26-15.12,14.51-30.58,28.67-46.39,42.43-7.66,6.67-15.4,13.26-23.23,19.74-6.39,5.29-13,10.43-21.17,12.48l12.99,16.89c10.04-20,24.83-37.02,43.64-49.23l-13.94-18.06c-16.68,19.1-33.36,38.21-50.04,57.31-9.79,11.21,5.01,25.89,16.26,16.26,15.21-13.01,30.75-25.62,46.7-37.7,8.05-6.1,16.18-12.11,24.43-17.93,7.12-5.02,14.11-9.59,22.88-10.9-4.72-4.72-9.43-9.43-14.15-14.15-2.16,6.81-5.77,12.78-10.71,17.93-4.3,4.48-4.46,11.81,0,16.26,4.8,4.8,11.39,3.88,16.26,0,21.41-17.06,40.73-36.51,57.64-58.03,3.83-4.88,4.76-11.5,0-16.26-3.99-3.99-12.4-4.91-16.26,0-16.91,21.52-36.23,40.97-57.64,58.03l16.26,16.26c7.71-8.04,13.25-17.47,16.63-28.08,2.93-9.21-6.08-15.35-14.15-14.15-9.93,1.48-18.86,6.58-26.98,12.24-8.75,6.09-17.32,12.47-25.82,18.91-17.52,13.26-34.66,27.01-51.36,41.3l16.26,16.26c16.68-19.1,33.36-38.21,50.04-57.31,3.76-4.3,4.61-10.44.9-15.1-3.41-4.28-9.94-6.14-14.84-2.96-21.99,14.28-40.1,34.01-51.89,57.48-4.47,8.89,2.89,19.42,12.99,16.89,10.25-2.57,18.73-8.33,26.9-14.8,8.45-6.69,16.62-13.78,24.77-20.83,16.81-14.54,33.23-29.54,49.26-44.93l-16.26-16.26c-25.03,24.96-49.29,50.68-72.75,77.11-9.76,10.99,5.9,27.01,16.26,16.26,29.43-30.52,58.86-61.05,88.29-91.57,8.77-9.1-2.73-25.54-13.94-18.06-24.8,16.54-45.31,38.02-64.98,60.2l18.06,13.94c6.17-11.58,12.35-23.15,18.52-34.73,1.54-2.89,3.09-5.79,4.63-8.68,1.43-2.68,3.74-5.77,4.63-8.68,1.09-3.56-6.24,1.46-3.75,1.84,1.24.19,3.03-.16,4.24-.25,3.42-.25,6.82-.68,10.22-1.17,40.32-5.81,55.48-33.95,55.48-33.95,6.05-10.98,8.89-25.73,4.85-28.17-4.52-2.74-18.28,9.6-27.03,22.06-12.31,17.54-6.15,26.38-18.31,43.85-9.19,13.2-22.11,24.27-33.82,35.17-11.96,11.12-24.04,22.8-38.16,31.17-13.92,8.25-29.89,12.54-45.25,17.26-18.07,5.55-36.36,10.37-55.39,10.29l3.06,22.59c22-4.73,44.31-9.96,63.54-22.16,10.53-6.68,3.97-25.47-8.86-21.02-21.33,7.39-44.59,15.82-67.34,10.3.92,7.01,1.83,14.01,2.75,21.02,8.75-6.06,18.92-6.65,29.31-7.37,12.59-.88,24.69-2.2,36.23-7.61l-11.61-19.86c-53.94,28.7-118.12,35.98-177.16,20.38l-3.06,22.59c16.24.01,32.48.3,48.72.88,6.21.22,11.5-5.44,11.5-11.5,0-6.48-5.27-11.19-11.5-11.5-17.73-.88-36.18-1.83-51.55-11.66-2.95,7.01-5.91,14.01-8.86,21.02,30.32,6.99,61.32,10.99,92.42,11.88,14.84.43,14.75-22.35,0-23-56.51-2.48-113.01-9.39-166.64-28.14-5.86-2.05-12.58,2.33-14.15,8.03-1.81,6.59,2.26,11.79,8.03,14.15,47.49,19.4,99.87,24.06,150.66,19.78,25.93-2.18,51.7-6.47,77.04-12.34,26.08-6.04,50.91-14.67,73.83-28.74,25.84-15.87,48.41-36.43,70.69-56.83,4.58-4.2,4.26-12.01,0-16.26-4.68-4.68-11.53-4.05-16.26,0-22.03,18.86-43.24,38.64-63.59,59.31-8.88,9.02,2.84,25.63,13.94,18.06,22.64-15.44,76.1-48.2,65.62-70.88-3.42-7.4-12.92-10.32-19.87-11.64Z"/>
          <path class="cls-7" d="m351.7,495.12c19.94,41.29,62.5,65.73,107.09,70.38,42.42,4.43,95.39-6.91,117.97-46.85,13.83-24.45,19.02-54.69,19.67-82.45.27-11.59-17.73-11.58-18,0-.51,22.05-4.34,44.95-13.17,65.29-7.68,17.67-21.2,30.26-38.98,37.53-36.95,15.11-83.33,12.49-117.64-8.06-17.89-10.72-32.32-26.13-41.4-44.92-2.11-4.38-8.36-5.54-12.31-3.23-4.47,2.62-5.35,7.92-3.23,12.31h0Z"/>
          <path class="cls-7" d="m575.21,496.47c-.01,14.6-8.48,27.12-19.32,36.28-5.99,5.06-12.96,9.03-19.94,12.54-3.63,1.83-7.33,3.52-11.05,5.15-2.4,1.05-7.52,4.33-9.85,4.11l6.36,2.64-.52-.6,2.64,6.36-.04-.78-2.64,6.36.5-.47c8.43-7.98-4.31-20.69-12.73-12.73-4.77,4.51-3.82,12.64,1.89,15.98,5.71,3.34,12.01-.47,17.32-2.71,11.11-4.68,22.19-9.64,32.15-16.53,18.51-12.81,33.22-32.28,33.24-55.62,0-11.58-17.99-11.6-18,0h0v.02Z"/>
          <path class="cls-7" d="m363.22,508.25c30.78,27.12,72.93,41,113.84,36.12,39.54-4.72,75.22-25.8,99.33-57.38,13.54-17.73,27.96-42.75,21.6-65.69-3.09-11.15-20.46-6.41-17.36,4.79,2.54,9.16-.55,18.11-4.41,26.46-3.63,7.87-8.06,15.37-13.16,22.38-9.7,13.35-22.31,24.79-36.31,33.47-29.34,18.2-64.73,23.42-98.15,14.76-19.42-5.03-37.59-14.36-52.66-27.64-8.66-7.63-21.44,5.05-12.73,12.73h0Z"/>
          <path class="cls-7" d="m480.85,554.78c10.39,1.45,18.77-1.11,28.08-5.62,8.52-4.12,16.88-8.61,25.08-13.35,7.94-4.59,15.71-9.45,23.32-14.57,7.95-5.35,15.71-10.52,13.83-21.28-.84-4.79-6.7-7.49-11.07-6.29-5.06,1.39-7.13,6.27-6.29,11.07l.22,1.25v-4.79c-.21,1.34-3.66,3.06-5.01,3.97-2.78,1.88-5.59,3.73-8.42,5.54-5.92,3.79-11.93,7.43-18.04,10.9s-11.77,6.51-17.77,9.53c-5.67,2.86-12.48,7.17-19.14,6.25-4.81-.67-9.67,1.17-11.07,6.29-1.16,4.21,1.44,10.4,6.29,11.07h0v.03Z"/>
          <path class="cls-7" d="m445.21,554.54c28.07-.61,56.05-6.05,82.11-16.54,21.66-8.71,47.72-20.9,53.77-45.83,2.73-11.25-14.62-16.05-17.36-4.79-4.76,19.61-29.46,28.92-46.28,35.23-23.16,8.68-47.53,13.38-72.25,13.92-11.57.25-11.61,18.25,0,18h0Z"/>
          <path class="cls-7" d="m592.2,460.11c-4.1-18.28-12.16-35.31-17.09-53.35-4.87-17.79-7.54-36.08-10.48-54.26-5.08-31.34-12.83-61.5-25.26-90.77-23.1-54.42-59.8-103.3-105.55-140.76-21.96-17.98-45.83-33.44-71.35-45.76-.34.89-1.13,1.6-2.37,1.61-6.48.02-12.49-1.78-18.54-3.93-.09-.03-.16-.08-.25-.12-1.81.02-3.63.02-5.44-.04-1.75,3.85-.68,9.83,3.57,11.65v.02c53.02,22.66,99.37,58.68,135.32,103.68,36.43,45.6,60.4,99.79,70.49,157.18,3.57,20.3,6.1,40.83,11.08,60.86s14,38.69,18.51,58.78c2.54,11.3,19.89,6.52,17.36-4.79Z"/>
          <path class="cls-7" d="m595.44,442.52c-7.18-25.98-14.36-51.97-21.54-77.95-7.1-25.69-13.53-51.71-22.24-76.92s-18.91-47.56-30.81-70.17c-10.94-20.79-22.74-41.32-37.05-60-7.92-10.34-16.5-20.14-26.24-28.81-4.97-4.42-11.44-11.47-18.85-9.43s-10.08,11.9-4.57,17.5c8.14,8.27,20.86-4.46,12.73-12.73l-.51-.52,2.64,6.36v-.77c-.42,1.51-.83,3.03-1.23,4.54l.4-.74-3.23,3.23.71-.43-6.94.91c3.28.51,7.94,6.38,10.42,8.75,3.82,3.64,7.48,7.46,10.97,11.42,6.72,7.59,12.78,15.69,18.43,24.1,12.09,17.97,22.61,37.09,32.3,56.45s18.9,40.82,25.85,62.23c7.26,22.38,13.07,45.24,19.33,67.91,7.36,26.62,14.71,53.23,22.07,79.85,3.08,11.15,20.45,6.42,17.36-4.79h0Z"/>
          <path class="cls-7" d="m417.46,121.06c8.92,7.12,17.23,14.88,24.92,23.3,7.83,8.57,20.54-4.19,12.73-12.73s-16.01-16.19-24.92-23.3c-3.8-3.03-9.02-3.71-12.73,0-3.14,3.14-3.82,9.68,0,12.73h0Z"/>
          <path class="cls-7" d="m506.91,335.6c16.14-5.83,32.54-10.89,49.16-15.15,11.21-2.88,6.46-20.24-4.79-17.36-16.62,4.27-33.02,9.32-49.16,15.15-4.57,1.65-7.65,6.12-6.29,11.07,1.21,4.41,6.48,7.95,11.07,6.29h0Z"/>
          <path class="cls-7" d="m527.9,315.08c10.59,34.13,19.65,68.74,26.9,103.73,3.2,15.41,5.7,31.18,2.13,46.76-3.2,13.96-10.18,26.41-20.79,36.06-8.59,7.81,4.17,20.51,12.73,12.73,11.97-10.89,20.46-25.36,24.66-40.96,4.62-17.15,3.37-34.52.15-51.79-7.02-37.6-17.08-74.81-28.41-111.32-3.42-11.03-20.8-6.32-17.36,4.79h-.01Z"/>
          <path class="cls-7" d="m495.42,330.39c-.64,22.32-14.9,41.96-35.2,50.73-4.46,1.93-5.47,8.48-3.23,12.31,2.7,4.61,7.83,5.17,12.31,3.23,26.04-11.26,43.31-38.14,44.12-66.28.33-11.59-17.67-11.58-18,0h0Z"/>
          <path class="cls-7" d="m39.87,537.95c31.65,17.19,68.15,23.79,103.79,18.53,33.75-4.98,65.44-21.07,89.95-44.7,6.5-6.26-3.41-16.16-9.9-9.9-22.47,21.66-51.29,36.04-82.15,40.85-32.27,5.03-66.01-1.33-94.62-16.87-7.92-4.3-14.99,7.78-7.07,12.09h0Z"/>
          <path class="cls-7" d="m70.55,555.98c30.71,12.5,64.15,15.94,96.84,10.82l-3.72-13.5c-13.18,4.01-26.62-.92-39.7-2.97-9.56-1.5-35.03-4.58-33.74,11.34.55,6.71,7.03,10.86,12.27,13.94,5.91,3.47,12.46,6.15,19.11,7.83,13.48,3.41,27.74,3.09,41.02-1.04,5.17-1.61,7.55-10.24,1.67-12.79-11.95-5.19-24.2-9.31-36.95-12.07-7.27-1.58-13.06,9.46-5.39,12.79,10.35,4.5,26.72,9.59,37.21,3,5.36-3.37,7.42-10.5,2.97-15.53-4.1-4.64-11.05-3.77-15.78-.74-5.46,3.5-8.44,10.77-3.77,16.21,4.17,4.85,10.54,3.33,15.55,1.02,12.37-5.68,23.75-13.3,34.31-21.84-3.66-2.83-7.33-5.66-10.99-8.48-2.56,3.46-5.74,6.33-9.33,8.68,2.83,3.66,5.66,7.33,8.48,10.99,5.58-6.07,10.23-12.77,13.76-20.22,3.15-6.64-5.51-15.01-10.99-8.48-8.1,9.65-16.98,18.53-26.64,26.61,3.98,1.65,7.97,3.3,11.95,4.95.36-5.07,2.12-9.51,4.9-13.72-4.26-1.8-8.53-3.6-12.79-5.39-1.8,8.8-3.59,28.3,11.15,25.62,10.09-1.84,18.43-13.72,22.69-22.24,3.32-6.65-5.66-15.01-10.99-8.48-6.96,8.52-13.12,17.52-18.33,27.21-3.7,6.88,5.26,14.27,10.99,8.48,8.77-8.85,17.54-17.7,26.31-26.55-3.9-2.27-7.8-4.54-11.7-6.81-.74,4.58-1.47,9.15-2.21,13.73-1.1,6.87,6.17,11.64,11.7,6.81,12.47-10.9,21.16-25.63,24.69-41.81l-12.79,1.67c1.41,2.68-11.74,13.44-13.58,15.2-5.72,5.46-11.61,10.72-17.64,15.82l9.9,9.9c8.85-8.76,16.68-18.45,23.44-28.9,3.77-5.82-3.75-13.36-9.58-9.58-8.78,5.69-16.56,12.57-23.08,20.76,3.66,2.83,7.33,5.66,10.99,8.48,3.78-5.83,8.61-10.68,14.42-14.48-3.43-2.64-6.86-5.27-10.28-7.91-4.32,10.76-9.79,21-16.08,30.73-4.54,7.02,5.25,13.42,10.99,8.48,7.01-6.02,14.02-12.04,21.03-18.06,6.87-5.9-3.06-15.64-9.9-9.9-5.22,4.38-10.44,8.76-15.66,13.13-6.91,5.8,3.04,15.66,9.9,9.9,5.22-4.38,10.44-8.76,15.66-13.13l-9.9-9.9c-7.01,6.02-14.02,12.04-21.03,18.06l10.99,8.48c6.97-10.78,12.71-22.16,17.49-34.07,2.29-5.7-5.45-11.06-10.28-7.91-7.86,5.14-14.33,11.62-19.44,19.5-4.25,6.55,6,14.77,10.99,8.48,5.78-7.27,12.45-13.51,20.25-18.57l-9.58-9.58c-6.14,9.48-13.23,18.12-21.26,26.07-6.5,6.43,3.11,15.64,9.9,9.9,8.35-7.07,16.43-14.45,24.16-22.19,6.97-6.99,14.67-15.52,9.25-25.79-2.74-5.2-11.52-4.16-12.79,1.67-3.07,14.05-10.26,26.17-21.09,35.63,3.9,2.27,7.8,4.54,11.7,6.81.74-4.58,1.47-9.15,2.21-13.73,1.04-6.49-6.37-12.19-11.7-6.81-8.77,8.85-17.54,17.7-26.31,26.55,3.66,2.83,7.33,5.66,10.99,8.48,4.63-8.61,9.96-16.8,16.15-24.37-3.66-2.83-7.33-5.66-10.99-8.48-2.4,4.8-5.37,9.04-9.33,12.69-.65.6-2,1.35-2.43,2.09-1.56.6-1.25,1.28.94,2.05,1.52,1.94,2.12,2.11,1.81.53.49-.99-.08-3.33,0-4.57.11-1.83.39-3.59.76-5.38,1.59-7.77-8.34-12.15-12.79-5.39-4.17,6.32-6.28,13.27-6.81,20.79-.46,6.6,7.71,8.5,11.95,4.95,9.66-8.09,18.55-16.96,26.64-26.61-3.66-2.83-7.33-5.66-10.99-8.48-3.03,6.39-6.78,12.18-11.57,17.39-5.16,5.61,1.55,15.54,8.48,10.99,5.71-3.75,10.3-8.22,14.35-13.7,2.07-2.8.7-7.1-1.8-9.03-2.94-2.27-6.44-1.68-9.19.55-9.11,7.36-19.24,14.03-29.91,18.9-.3.14-2.92,1.13-2.96,1.2.07-.12,8.09,12.51,3.51,2.35-3.28-7.27-.11-2.5-3.01-2.95-1.2-.19-2.5.02-3.71,0-5.96-.14-11.95-1.43-17.43-3.81l-5.39,12.79c11.51,2.49,22.8,5.96,33.6,10.66l1.67-12.79c-9.88,3.07-20.33,3.84-30.5,1.74-5.05-1.04-10.05-2.6-14.68-4.88-2.35-1.16-4.64-2.45-6.83-3.9.16.1-3.05-2.27-2.92-2.3l-1.69,4.53c.75-.2,1.51-.38,2.28-.52,10.17-1.89,20.69,1.21,30.62,3.12,10.72,2.06,21.58,3.33,32.2.1,8.81-2.68,5-14.87-3.72-13.5-30.2,4.73-61.15.68-89.4-10.82-3.53-1.44-7.66,1.56-8.61,4.89-1.15,3.99,1.41,7.19,4.89,8.61h-.03Z"/>
          <path class="cls-7" d="m219.77,606.47c43.23,6.27,86.85,5.78,129.93-1.54,4.36-.74,6.5-6.77,4.18-10.28-16.5-25.04-17.22-56.67-31.17-82.97-3.99-7.53-13.95-1.92-12.79,5.39,3.99,25.27,7.98,50.55,11.97,75.82,4.26-1.8,8.53-3.6,12.79-5.39-3.23-7.43-6.45-14.87-9.68-22.3-2.89-6.65-13.03-2.91-13.04,3.53-.02,7.35,1,14.61,3.06,21.67l13.5-3.72c-1.46-4.55-2.05-8.87-1.84-13.64h-14c-.24,7.41,1.4,14.24,4.53,20.93,3.82,8.15,15.89,1.05,12.09-7.07-2.08-4.44-2.78-9-2.62-13.86.29-9.03-13.61-8.98-14,0-.26,5.9.53,11.74,2.34,17.36,2.74,8.53,16.04,4.99,13.5-3.72-1.73-5.93-2.57-11.77-2.56-17.95-4.35,1.18-8.7,2.36-13.04,3.53,3.23,7.43,6.45,14.87,9.68,22.3,1.38,3.19,5.87,4.08,8.74,2.86,3.43-1.45,4.61-4.75,4.05-8.26-3.99-25.27-7.98-50.55-11.97-75.82l-12.79,5.39c13.96,26.33,14.55,57.76,31.17,82.97l4.18-10.28c-40.39,6.87-81.93,7.42-122.49,1.54-3.77-.55-7.48.93-8.61,4.89-.94,3.28,1.15,8.07,4.89,8.61h0Z"/>
          <path class="cls-7" d="m339.16,598.14c.58-1.41,1.16-2.81,1.74-4.22.64-1.56.11-4.01-.71-5.39s-2.51-2.84-4.18-3.22c-1.79-.41-3.8-.32-5.39.71l-1.42,1.09c-.87.87-1.47,1.9-1.8,3.09-.58,1.41-1.16,2.81-1.74,4.22-.64,1.56-.11,4.01.71,5.39s2.51,2.84,4.18,3.22c1.79.41,3.8.32,5.39-.71l1.42-1.09c.87-.87,1.47-1.9,1.8-3.09h0Z"/>
          <path class="cls-7" d="m395.91,585.34c-.02,4.35-.04,8.7-.06,13.05-.03,5.27,5.98,8.77,10.53,6.04,5.44-3.26,10.56-7.19,14.93-11.8s9.2-10.2,11.21-16.12c2.19-6.45-2.66-12.86-9.59-11.7-6.39,1.08-11.1,7.8-15.43,12.1l11.7,3.09c-.13-1.22-.06-2.42.21-3.62,1.76-9.05-10.06-11.9-13.5-3.72-1.25,2.96-1.71,6.06-1.55,9.27.46,8.96,14.47,9.02,14,0-.11-2.12.22-3.59,1.05-5.55l-13.5-3.72c-.75,3.85-.74,7.18-.21,11.06.73,5.43,8.35,6.42,11.7,3.09,1.64-1.63,3.28-3.26,4.92-4.89.82-.82,1.64-1.63,2.46-2.45,1.94-1.45,1.59-1.73-1.05-.85l-4.18-3.22c.65-4.03.52-5.11-.38-3.25-.25.46-.51.91-.79,1.36-.67,1.12-1.37,2.23-2.12,3.31-1.46,2.1-3.09,4.05-4.85,5.9-3.6,3.8-7.61,6.93-12.1,9.61,3.51,2.01,7.02,4.03,10.53,6.04.02-4.35.04-8.7.06-13.05.04-9.01-13.96-9.02-14,0h0v.02Z"/>
          <path class="cls-7" d="m485.46,420.05l.62-.5-4.95,2.05c-2.89-5.49-4.48-6.45-4.77-2.86l-.38,1.67c-.45,1.95-.95,3.88-1.47,5.81-.98,3.58-2.1,7.11-3.31,10.62,4.5,1.24,9,2.48,13.5,3.72,1.24-5.08,1.94-10.26,2.11-15.48.24-7.34-9.38-8.99-13.04-3.53-2.06,3.06-4.11,6.12-6.17,9.18-5.04,7.5,7.08,14.51,12.09,7.07,2.48-3.69,4.24-7.72,5.3-12.04,1.56-6.3-7-12.5-11.7-6.81-2.83,3.43-4.85,6.91-6.21,11.17-2.75,8.6,10.76,12.28,13.5,3.72.59-1.84,1.37-3.49,2.61-4.99-3.9-2.27-7.8-4.54-11.7-6.81-.8,3.25-2.02,5.91-3.89,8.69l12.09,7.07c2.06-3.06,4.11-6.12,6.17-9.18-4.35-1.18-8.7-2.36-13.04-3.53-.13,4.04-.65,7.83-1.61,11.76-2.14,8.82,10.58,12.2,13.5,3.72,2.45-7.11,5.95-15.78,5.98-23.38.03-8.52-8.87-12.06-15.13-7.03-2.97,2.39-2.44,7.4,0,9.9,2.88,2.94,6.97,2.36,9.9,0h0Z"/>
          <path class="cls-7" d="m237.22,255.22c9.42,7.96,14.75,19.76,19.38,30.95,5.34,12.88,6.82,25.89,2.59,39.32-2.71,8.61,10.8,12.3,13.5,3.72,4.93-15.65,3.55-31.68-2.59-46.77-5.44-13.36-11.73-27.62-22.98-37.13-6.84-5.78-16.79,4.07-9.9,9.9h0Z"/>
          <path class="cls-7" d="m279.69,324.14l.1-1.1-2.05,4.95c2.86-3.35,11.32-3.15,15.34-3.1,5.84.08,11.6,1,17.35,1.98,8.81,1.51,12.6-11.98,3.72-13.5s-18.61-3.16-27.97-2.15c-8.2.88-19.62,3.11-20.48,12.92-.78,8.97,13.22,8.92,14,0h-.01Z"/>
          <path class="cls-7" d="m464.71,259.26c16.05,15.17,27.07,34.44,32.05,55.96,2.03,8.77,15.53,5.06,13.5-3.72-5.49-23.71-17.97-45.42-35.65-62.13-6.55-6.19-16.46,3.7-9.9,9.9h0Z"/>
          <path class="cls-7" d="m298.14,470.73c8.2,34.58,18.51,68.62,30.88,101.94,3.11,8.37,16.65,4.75,13.5-3.72-12.37-33.32-22.68-67.36-30.88-101.94-2.08-8.76-15.58-5.05-13.5,3.72h0Z"/>
          <path class="cls-3" d="m158.23,161.95c23.56-23.34,52.32-40.79,83.95-50.79,8.56-2.71,4.9-16.23-3.72-13.5-33.92,10.72-64.85,29.35-90.13,54.39-6.41,6.35,3.49,16.25,9.9,9.9h0Z"/>
          <path class="cls-3" d="m134.38,199.31c9.01,0,9.02-14,0-14s-9.02,14,0,14h0Z"/>
          <path class="cls-3" d="m49.67,413.52c5.97,41.74,48.08,61.29,83.8,72.46,8.62,2.7,12.31-10.82,3.72-13.5-31.39-9.82-68.75-25.84-74.02-62.68-.54-3.77-5.29-5.76-8.61-4.89-4.03,1.06-5.42,4.89-4.89,8.61h0Z"/>
          <path class="cls-3" d="m171.43,482.85v.85c-.04.96.16,1.86.6,2.7.28.87.76,1.62,1.45,2.25.63.68,1.38,1.17,2.25,1.45.83.44,1.73.64,2.7.6l1.86-.25c1.19-.33,2.22-.93,3.09-1.8l1.09-1.42c.63-1.09.95-2.27.96-3.53v-.85c.04-.96-.16-1.86-.6-2.7-.28-.87-.76-1.62-1.45-2.25-.63-.68-1.38-1.17-2.25-1.45-.83-.44-1.73-.64-2.7-.6l-1.86.25c-1.19.33-2.22.93-3.09,1.8l-1.09,1.42c-.63,1.09-.95,2.27-.96,3.53h0Z"/>
          <path class="cls-3" d="m460.06,452.97c-11.22-9.49-24.87-7.12-37.82-2.89-8.53,2.79-4.88,16.31,3.72,13.5,7.16-2.34,17.51-6.37,24.2-.71,6.84,5.79,16.79-4.07,9.9-9.9h0Z"/>
          <path class="cls-3" d="m386.78,468.35l-.86,1.69c-.51.8-.79,1.67-.83,2.6-.21.93-.17,1.86.13,2.79.22.91.63,1.7,1.25,2.38.49.76,1.15,1.36,1.96,1.8l1.67.71c1.24.33,2.48.33,3.72,0l1.67-.71c1.05-.62,1.89-1.46,2.51-2.51l.86-1.69c.51-.8.79-1.67.83-2.6.21-.93.17-1.86-.13-2.79-.22-.91-.63-1.7-1.25-2.38-.49-.76-1.15-1.36-1.96-1.8l-1.67-.71c-1.24-.33-2.48-.33-3.72,0l-1.67.71c-1.05.62-1.89,1.46-2.51,2.51h0Z"/>
          <path class="cls-3" d="m522.6,450.04c5.46-10.39,6.6-22.43,2.38-33.48-3.18-8.33-16.72-4.72-13.5,3.72,2.9,7.6,2.86,15.41-.96,22.69-4.19,7.97,7.89,15.05,12.09,7.07h-.01Z"/>
          <g class="cls-2">
            <path class="cls-3" d="m217.75,307.13c1.69,3.33-.67-2.62-.03-.29.3,1.11.73,2.18,1.01,3.3.19.77.19,2.01.56,2.69-.34-2.83-.44-3.46-.31-1.91.04.46.07.91.08,1.37.08,2.03-.45,4.22-.24,6.21-.41-3.99.32-2.44-.12-.5-.26,1.15-.56,2.28-.9,3.41s-.79,2.23-1.17,3.36c-.85,2.53,1.65-3.15.31-.84-1.21,2.09-2.22,4.24-3.55,6.27-.29.44-2.14,2.67-2.07,2.96-.16-.71,2.51-2.86.39-.69-1.68,1.72-3.32,3.43-5.08,5.06s-.17.63.54-.33c-.63.85-2.42,1.71-3.35,2.32-2.04,1.33-4.14,2.55-6.3,3.68-1.2.62-2.45,1.15-3.64,1.77-2.11,1.11,3.12-1.11-.46.19-2.31.83-4.61,1.66-6.95,2.38-4.99,1.53-10.09,2.71-15.22,3.67-2.71.51-5.44.94-8.17,1.36-2.29.35-1.25.29.41-.04-1.58.32-3.3.41-4.9.6-10,1.18-18.22,6.72-19.64,17.34-1.18,8.77,4.47,20.59,14.33,21.94,14.58,2,29.14,1.66,43.15-3.43,13.55-4.93,26.31-12.53,35.95-23.4,19.57-22.05,26.97-52.73,19.45-81.28-12.18,5.14-24.37,10.27-36.55,15.41,1.24,1.7,2.37,3.43,3.33,5.3,1.72,3.32.94-.05-.08-.37.2.06.87,2.69.85,2.61.25.88.41,1.79.67,2.67,1.13,3.92-.16-1.33-.04-1.23.89.81.28,6.56.22,7.64-.05.89.29,3.7.03.83-.27-3.04-.14.67-.32,1.51-.39,1.85-.88,3.68-1.46,5.47-.1.3-.58,2.33-.95,2.68l.92-2.15c-.29.65-.6,1.29-.92,1.92-1.07,2.14-2.43,4.04-3.6,6.11-1.41,2.48,3.23-3.45.13-.11-.64.69-1.24,1.41-1.89,2.1-1.42,1.49-2.96,2.82-4.47,4.2-3.58,3.27,2.38-1.39-.19.12-1.09.64-2.1,1.43-3.18,2.09-2.18,1.34-4.45,2.45-6.73,3.61-2.43,1.23-.02.75.55-.21-.18.31-2.37.88-2.89,1.06-2.19.75-4.42,1.41-6.67,1.97s-4.55,1-6.84,1.42c-3.09.57.43.37.69-.07-.18.3-4.28.39-4.65.41-4.72.3-9.37.07-14.09-.13-1.21-.05-3.47.38.47.13-.86.05-2.43-.45-3.18-.62-1.05-.24-2.07-.61-3.11-.84-4-.9,2.01,1.69-1.12-.48-.14-.09-4.12-3.13-1.92-1.13,1.93,1.76-.49-.63-.92-1.08-.84-.87-2.75-3.69-.42-.24-.6-.88-1.19-1.76-1.74-2.67s-1-1.87-1.54-2.79c-1.91-3.27.07.67.27.89-1.3-1.49-1.84-5.6-2.24-7.45-.17-.77-1.05-3.71-.25-.83.88,3.15-.05-.96-.08-1.57-.11-1.89-.12-3.79-.02-5.68,0-.11-.02-2.58.22-2.83l-.34,2.5c.11-.7.23-1.4.38-2.1.46-2.33,1.08-4.62,1.85-6.86l.23-.67c.79-2.06.65-1.78-.42.83.03-.58,1.04-2.17,1.24-2.55.88-1.68,1.94-3.23,2.89-4.87,2.29-3.93-2.09,2.16-.15.09.81-.86,1.55-1.79,2.37-2.63.66-.68,1.37-1.31,2.05-1.97,2.86-2.79-2.84,1.36.95-.77.91-.51,1.82-1.1,2.71-1.63,4.45-2.68-3.72,1.58,1.03-.4,2.51-1.05.94.97-.78-.17.31.2,3.86-.1,4.33-.09,3.91.05-.86.19-1.08-.16.14.23,3.83.98,4.17,1.08s2.38.58,2.75.96c-2.5-1.1-2.72-1.2-.68-.29l1.36.63c10.65,5.04,20.9,11.51,32.59,13.89,10.22,2.07,22.09-2.94,24.6-13.97,2.67-11.72-3.61-20.24-13.97-24.6-12.23-5.15-27.15-3.11-38.55,3.19-13.14,7.26-20.54,20.72-22.14,35.28-1.51,13.71,4.13,30.35,16.22,37.96,8.09,5.09,18.42,5.35,26.85.85,7.05-3.76,12.14-9.99,16.72-16.38,8.65-12.07,11.39-28.25,3.4-41.39-9.55-15.72-31.63-20.89-45.63-7.79-12.19,11.41-17.17,31.6-9.51,46.73,6.03,11.92,19.6,18.83,32.75,17.93,32.24-2.19,43.69-44.2,20.31-64.86-22.98-20.31-59.11-10.17-72.5,16.27-7.74,15.28-5.07,33.36,8.76,44.05,12.52,9.67,29.94,9.8,43.18,1.23,23.74-15.35,26.19-51.89,4.67-70.31-12.11-10.36-27.48-14.43-43.14-11.36-14.08,2.76-26.54,12.71-33.93,24.78-9.2,15.01-9.11,33.75,3.37,46.87,11.84,12.44,28.85,14.38,45.1,13.28-1.77-13.1-3.54-26.19-5.32-39.29-3.85,1.17-7.71,2.31-11.63,3.21-.91.21-8.17,1.38-3.15.8-1.68.19-3.36.33-5.05.36-1.11.03-2.22,0-3.33-.05-2.34-.2-2.2-.16.41.12-1.24.28-3.52-.88-4.76-1.31,4.25,1.49-1.3-.68-2.07-1.6,3.19,3.8.12-.44-.82-1.32-.95-1.1-.67-.72.85,1.16-.56-.81-1.09-1.64-1.58-2.5s-.95-1.74-1.37-2.63c.92,2.28,1.13,2.72.62,1.33-.24-1-1.84-4.1-1.36-5.02.32,2.95.36,3.18.13.68-.06-.85-.08-1.7-.07-2.56,0-1.17.9-6.98-.04-2.32.4-1.97.83-3.9,1.42-5.82.29-.96,2.7-6.39.76-2.44,1.01-2.07,2.08-4.07,3.26-6.05,5.12-8.6,2.6-19.81-5.15-25.8s-19.29-5.65-26.26,1.56c-14.17,14.66-22.84,35.11-21.83,55.68,1.01,20.45,10.12,40.56,25.84,53.9,7.67,6.51,17.97,7.97,26.26,1.56,8.28-6.4,9.49-16.66,5.15-25.8-.96-2.02-1.92-4.04-2.88-6.06-11.51,6.73-23.03,13.46-34.54,20.19,9.63,13.15,22.56,23.09,38.78,26.57,9.83,2.11,19.6-2.11,23.59-11.58,4.06-9.62.09-19.19-8.18-24.98-2.24-1.57-4.48-3.13-6.68-4.75-.49-.36-4.72-3.79-1.19-.85-.84-.7-1.7-1.37-2.54-2.08-2.28-1.93-4.48-3.95-6.53-6.11-.93-.98-1.79-2.01-2.69-3.01,1.8,2,.87,1.2-.25-.48-.75-1.13-1.46-2.28-2.1-3.46-.27-.49-2.07-4.67-1.1-2.11s-.51-1.75-.66-2.25c-.39-1.31-.72-2.64-1-3.98-.18-.8-.33-1.61-.47-2.42l.26,2.05c-.48-1.12-.31-3.76-.36-4.97-.1-2.8-.02-5.6.18-8.39.04-.55.44-5.26.16-2.39s.38-2.31.39-2.37c.48-2.77,1.08-5.52,1.74-8.26s1.57-5.26,2.27-7.91c-.99,3.7-.31.74.35-.41,2.09-3.62.64.05-.23-.04-.03,0,2.94-2.91,2.94-2.91,0,.61-3.36,2.24-.72.63,1.21-.74,2.38-1.48,3.64-2.14.56-.29,4.26-2.15,1.5-.81s1.38-.48,1.65-.58c1.14-.41,2.29-.79,3.45-1.15,2.52-.8,5.07-1.5,7.63-2.19-5.14-12.18-10.27-24.37-15.41-36.55-15.17,9.51-27.97,22.97-35.71,39.2,11.51,6.73,23.03,13.46,34.54,20.19,1.62-3.54,3.24-7.08,5.07-10.52,1.04-1.96,2.14-3.88,3.34-5.75.6-.93,1.22-1.84,1.87-2.73-1.29,1.63-1.47,1.9-.55.81,1.33-1.27,2.57-2.66,3.91-3.94-3.29,3.12.62-.32,1.76-.95,4.55-2.53-2.04.67,1.69-.65,2.25-.48,2-.5-.76-.06,1.04-.07,2.07-.07,3.11,0-1.77-13.1-3.54-26.19-5.32-39.29-23,5.06-44.77,18.15-59.68,36.42l33.43,8.83c-.35-.98-.62-1.98-.81-3.01.33,2.78.45,3.02.35.73.16-2.29.11-2.05-.16.72.22-1.02.49-2.03.82-3.03.91-3.75-1.82,2.43.52-1.08.52-.79,4.44-6.4,1.35-2.61,2.15-2.63,4.58-4.88,7.09-7.16,1.69-1.37,1.45-1.2-.7.53.76-.55,1.54-1.08,2.33-1.59,1.18-.77,2.4-1.5,3.63-2.18,1.5-.83,3.38-2.13,5.07-2.51-4.9,1.1-.78.4.51-.03,2.53-.85,8.4-3.46,11.04-2.68l-2.49.34c.94-.1,1.89-.19,2.84-.25,1.89-.13,3.79-.17,5.69-.14,1.43.03,2.84.17,4.26.22,2.25.24,1.89.16-1.08-.22.94.14,1.87.3,2.8.49,3.29.65,6.39,1.66,9.57,2.71,2.04.8,1.77.68-.81-.37.88.4,1.74.82,2.6,1.27,1.28.66,2.54,1.37,3.78,2.12,1.4.85,3.77,1.91,4.79,3.2-2.13-1.68-2.35-1.83-.65-.46.55.46,1.1.93,1.63,1.42,2.13,1.91,6.49,5.08,7.48,7.81-1.48-1.97-1.78-2.37-.91-1.19.43.58.86,1.17,1.27,1.76,1.11,1.59,2.15,3.22,3.12,4.89.86,1.46,1.66,2.95,2.41,4.47.33.65.64,1.3.94,1.96.9,2.02.8,1.76-.31-.77,1.81,2.19,2.37,6.9,3.04,9.69.37,1.57,1.34,4.09,1.11,5.69-.37-2.92-.43-3.26-.19-1,.09.96.15,1.93.2,2.89.6,10.43,8.77,20.5,20,20,10.33-.46,20.63-8.81,20-20-1.45-25.53-12.66-50.47-32.62-66.88-4.71,11.38-9.43,22.76-14.14,34.14,4.48.12-4.38-1.11-.27.09l-2.49-1c1.42.91,1.45.85.1-.17-1.32-1.09-1.32-1.07,0,.06l.94.93c.47.48.92.98,1.35,1.51.94,1.12.6.68-1.03-1.32,1.14.29,3.07,5,3.61,6.04,1.27,2.43,2.38,4.93,3.48,7.43.3.69,1.82,4.54.46,1.03.55,1.41,1.12,2.8,1.65,4.22,1.15,3.09,2.18,6.23,2.98,9.43.36,1.43.58,2.9.92,4.33.54,2.27,0-3.06,0,.76,0,1.74,0,3.46-.04,5.2.06-3.48-.03-.16-.45,1.58,13.1,1.77,26.19,3.54,39.29,5.32.39-11.68.78-23.36,1.17-35.03-12.42,3.36-24.85,6.73-37.27,10.09,1.63,3.35-.17-1.42.36.79.33,1.39.91,2.75,1.26,4.14.28,1.12.47,2.26.72,3.39-.98-4.36-.08.63-.04,1.57h40c-2.02-17.03-6.98-33.17-16.73-47.47-5.88-8.63-17.85-13.31-27.36-7.18-8.59,5.54-13.48,18.12-7.18,27.36,1.74,2.55,3.37,5.15,4.83,7.87.66,1.23,1.27,2.5,1.9,3.75,2.42,4.83-1.18-3.69.6,1.41.93,2.65,1.83,5.29,2.53,8.01.42,1.63.79,3.27,1.12,4.91.21,1.07.86,6.1.29,1.33,1.23,10.35,8.32,20.52,20,20,10.47-.47,20.45-8.8,20-20s-3.03-20.35-7.76-30.08c-3.69-7.59-14.69-11.75-22.59-9.19-8.61,2.79-14.38,10.16-14.68,19.29-.39,11.68-.78,23.36-1.17,35.03-.75,22.47,33.89,27.26,39.29,5.32,5.14-20.9-1.85-40.1-10.28-59-7.42-16.64-19.95-31.23-39.5-31.75-7.95-.21-15.28,5.2-18.28,12.29-2.86,6.79-1.98,16.82,4.14,21.85,3.65,3,6.9,6.28,9.99,9.85,1.47,1.7.59.98-.25-.35.7,1.1,1.5,2.13,2.21,3.22,1.28,1.97,2.46,3.99,3.54,6.07.48.92.92,1.87,1.38,2.8,1.21,2.45.64.18-.16-.47,1.16.94,1.83,5.19,2.25,6.66.65,2.26,1.11,4.54,1.6,6.84.81,3.83-.08-2.42.05.09.07,1.3.22,2.6.29,3.89h40c-1.81-31.57-19.31-62.86-48.18-77.35-29.86-14.98-65.35-11-91.42,9.66-16.19,12.83-27.58,34.95-21.09,55.68,2.1,6.72,7.07,12.07,13.97,13.97,6.34,1.75,15.08.22,19.46-5.14,2.97-3.63,6.15-7.06,9.63-10.2.96-.87,2.01-1.67,2.96-2.55,2.09-1.94-3.78,2.65.27-.22,1.91-1.36,3.84-2.68,5.84-3.91s4.04-2.38,6.12-3.45c.93-.47,1.87-.91,2.8-1.38,3.41-1.71-2.05.67.24-.15,4.68-1.68,9.31-3.21,14.18-4.28,9.72-2.14,15.58-12.62,14.33-21.94-1.34-9.99-9.6-16.98-19.64-17.34-27.15-.99-43.85,21.47-53.98,43.59-4.35,9.49-3.02,21.98,7.18,27.36,8.92,4.71,22.56,2.91,27.36-7.18,1.45-3.05,3.04-6,4.87-8.84.97-1.5,1.94-3.1,3.11-4.46-2.21,2.58-.43.63.81-.76,2.07-2.32,4.28-4.51,6.62-6.56,1.48-1.29,3.07-3.16.8-.76,1.33-1.4,3.53-2.45,5.16-3.47,8.48-5.32,12.1-15.68,8.18-24.98-3.84-9.1-13.88-14.21-23.59-11.58-13.61,3.68-28.05,8.63-37.73,19.44-11.52,12.87-14.77,31.29-16.28,47.97s1.41,33.12,10.13,46.74,21.6,23.13,34.69,32.29c5.14-12.18,10.27-24.37,15.41-36.55-2.31-.49-4.5-1.21-6.74-1.92-2.53-.8,2.7,1.61.5.14-1.06-.71-2.31-1.23-3.4-1.9-.88-.55-1.72-1.17-2.59-1.74,1.36.9,1.97,1.75.42.18-.92-.92-1.88-1.79-2.76-2.75-.69-.74-2.89-3.72-.3-.19-6.17-8.41-17.64-13.45-27.36-7.18-9.74,6.28-11.99,17.23-7.18,27.36.96,2.02,1.92,4.04,2.88,6.06,10.47-8.08,20.94-16.16,31.41-24.24-2.82-2.4-5.41-4.97-7.75-7.85,2.15,2.65.42.43-.54-1.09-.84-1.34-1.63-2.71-2.36-4.11-.49-.93-.95-1.88-1.38-2.84l.8,1.86c-.93-1.35-1.29-3.67-1.73-5.25-.4-1.47-1.43-3.87-1.2-5.39l.28,2.19c-.12-1.05-.2-2.1-.25-3.15-.08-1.58-.08-3.16-.02-4.73.04-1.05.12-2.1.22-3.15l-.31,2.19c-.06-3.42,1.75-7.48,2.78-10.68,1.28-3.94-1.69,2.93.49-1.02.77-1.39,1.47-2.78,2.3-4.14s1.71-2.65,2.64-3.93c-2.92,4.01,1.32-1.22,2.01-1.94-10.47-8.08-20.94-16.16-31.41-24.24-13.8,23.21-15.17,52.1,2.69,73.52,17.84,21.41,46.4,18.42,70.25,11.2,9.57-2.9,15.66-12.02,14.33-21.94-1.24-9.25-9.68-18.01-19.64-17.34-3.67.25-7.36.16-11.02.37-5.17.29,3.08,1.18-1.91-.12-.31-.08-3.11-.52-3.51-.97l2.23.96c-.84-.41-1.64-.86-2.42-1.37l1.81,1.48c-.71-.59-1.37-1.23-1.99-1.91l1.44,1.91c-1.07-1.9-1.01-1.5.2,1.19-1.15-3.9-.48,4.46-.07-.2-.46,5.19,0,.25.69-.75-2.81,4.02.07.35.62-.56l.79-1.23c1.27-1.79,1.12-1.6-.46.56-.04-.04,1.75-1.87,2.01-2.13l1.07-1c1.68-1.41,1.48-1.27-.6.42.36-.83,3-1.79,3.76-2.23,3.96-2.33-3.86.84.62-.12.7-.21,1.4-.38,2.12-.52,1.53-.31.94-.24-1.77.19.13-.2,4.13-.18,4.2-.02l-2.53-.38c.92.15,1.84.35,2.74.59l1.35.39c2.07.74,1.78.59-.87-.47.29-.09,2.42,1.31,2.46,1.33,3.91,2.02-2.58-3.03.41.2l1,.97c1.44,1.62,1.29,1.33-.46-.85.3.11,2.22,3.29,2.08,3.57l-1.02-2.29c.28.85.52,1.71.71,2.59,1.24,4.1.37-4.23-.13.02l-.03,1.34c-.18,2.23-.11,1.79.22-1.32-.11-.02-.74,3.83-1.1,3.86-.19.02,2.31-4.57.32-1.16-2.17,3.72,3.28-2.55-.04.21-3.56,2.96,4.01-2.18-.52.49-4.06,2.4,3.55-.46-1.08.32l2.21-.28c-2.3-.06-2.09.05.64.32-4.17-.7,3.39,2.28-.12-.09,5.02,3.39-1.15-2.4,2.55,2.45-2.07-2.71.47,1.04.63,2.35.12.93-.26,5.87.14,1.78l-.84,1.75c.47-.99,1-1.94,1.59-2.86,2.16-4.21-2.68,2.15.67-.82.93-.83,1.86-1.75,2.75-2.62,1.11-.94.76-.66-1.03.83.84-.56,1.7-1.08,2.59-1.56,3.67-2.4-3.53.44.78-.26l1.45-.38c2.27-.44,1.97-.4-.92.11.27-.49,5.13.62,1.63-.11s1.48.44,1.54.57l-2.12-.97c.86.4,1.7.85,2.5,1.36,3.87,1.98-2.48-2.84.3.47-2.94-3.5-1.08-1.15-.33-.05.69,1.35.42.75-.81-1.81.5,2.16.5,1.65,0-1.53l.06,1.29c-.09,2.21.04,1.72.39-1.48l-.28,1.25c-.66,2.05-.43,1.65.68-1.21-1.59,2.87.67-.5,1.05-.89-2.96,2.96,3.96-1.59.22.09l2.57-1.02c-2.11.56-1.53.57,1.76.05l-1.22.06c-2.19-.1-1.63.02,1.68.35-3.35-.83,1.21.47,1.33.86-.73-.34-1.42-.74-2.08-1.19,1.68.87,2.95,2.15,3.82,3.84-1.76-2.78.48,2.37.56,3.21-.43-4.52-1.45,3.14.16-1.22,1.34-3.62.17-.55-.15.07l.78-1.48c1.2-1.89,1.07-1.85-.38.11l-1.58,1.18c-3.09,1.78-6.26,2.23-9.51,1.37l-2.49-1.1c1.79,1.12,1.46.85-.99-.81-2.85-2.82-1.45-2.26-.79-.88-.96-1.57-1.38-3.28-1.27-5.12-.06,2.32.05,2.08.33-.71l-.39,1.49c-.74,2.11-.66,1.95.23-.47.05.4-3.49,5.64-1.92,3.31,1.67-2.46-1.35,1.58-1.45,1.69-.69.8-1.42,1.55-2.19,2.26,2.95-2.78,6.72-3.5,11.32-2.17l5.45,3c1.66,2.3,1.9,2.52.71.67-.81-1.61-.87-1.67-.19-.16.62,1.53.63,1.45.04-.25l-.35-1.37c-.42-2.22-.39-1.84.11,1.13-.06-.94-.07-1.88-.03-2.83.18-2.25.11-1.88-.21,1.11-.2-.17.92-3.88,1.17-4.07l-.88,2.2c.43-.84.9-1.65,1.43-2.43l-1.42,1.8c.62-.71,1.27-1.39,1.97-2.02-2.25,1.61-2.48,1.8-.68.58.8-.5,1.62-.96,2.46-1.37-.5-.12-3.7,1.03-.83.47.9-.27,1.82-.5,2.75-.67-2.99.33-3.36.41-1.1.25h1.41c2.25.15,1.88.06-1.11-.27.51-.53,4.74,1.45,5.37,1.71,3.54-12.86,7.09-25.71,10.63-38.57-2.58-.52-6.4-1.01-8.6-2.53,3.1,2.15,1.78.81.59.22-1.37-.68-2.76-1.32-4.13-2.01-6.54-3.29-12.94-6.66-19.76-9.36-14.07-5.57-29.24-4.94-42.62,2.27-23.18,12.49-36.41,41.52-33.45,67.24,1.71,14.83,7.07,29.32,17.93,39.99,11.42,11.21,26.72,14.95,42.28,15.44,26.12.83,55.01-7.57,72.94-27.49,19.55-21.73,26.54-57.55,8.41-82.41-5.93-8.13-15.18-12.32-24.98-8.18-9.14,3.86-14.14,13.86-11.58,23.59.62,2.35,1.55,5.07,1.59,7.51-.04-2.53-.32-2.54-.15.02.08,1.28.14,2.56.15,3.84.02,2.31-.24,4.6-.3,6.9-.07,2.5.81-3.79,0,.01-.27,1.25-.48,2.52-.77,3.77-.52,2.25-1.15,4.47-1.89,6.65-.24.73-.51,1.45-.78,2.17-.53,1.37-.34.97.56-1.22.04.69-1,2.15-1.31,2.78-1.14,2.29-2.42,4.51-3.82,6.66-.31.47-2.77,4.07-1.11,1.73s-1.24,1.43-1.35,1.55c-1.53,1.73-3.16,3.36-4.86,4.91-.9.82-1.85,1.87-2.92,2.49,2.21-1.29,1.58-1.2-.28.06-2.12,1.44-4.32,2.75-6.59,3.94-.57.3-2.98,1.84-3.45,1.69.64.21,3.36-1.26.52-.25-2.42.86-4.84,1.67-7.33,2.3-1.24.32-2.49.59-3.75.84-.5.1-1.01.2-1.51.28-1.51.25-1.01.19,1.52-.17,0,.22-6.28.41-6.89.42-1.28.01-2.56-.01-3.84-.08-1.21-.06-5.97-.6-.8.1-1.77,13.1-3.54,26.19-5.32,39.29,27.99-3.29,57.37-8.87,78.43-29.26,20.53-19.87,28.43-50.99,15.27-76.96-4.74-9.35-18.66-12.79-27.36-7.18-9.55,6.16-12.24,17.36-7.18,27.36h0v.08Z"/>
          </g>
          <g class="cls-2">
            <path class="cls-3" d="m448.12,297.21c3.47-13.97-3.03-28.22-15.72-35.07-13.37-7.2-28.08-4.13-39.38,5.26-17.24,14.34-20.19,41.09-11.4,60.63,4.49,9.98,14.09,19.63,25.06,22.1,16.97,3.83,30.04-8.4,35.37-23.41,7.08-19.96-2.68-43.77-18.85-56.26-11.6-8.96-26.61-12.75-40.2-5.66-9.49,4.95-16.07,14.77-18.26,25.12-4.34,20.47,4.62,42.6,20.47,55.96,10.23,8.62,23.23,15.99,37.07,12.91,12.76-2.84,22.33-15.59,25.2-27.83,4.93-21.06-4.4-44.65-20.14-59-10.26-9.35-23.39-15.11-37.43-12.13-11.52,2.45-21.47,11.17-26.82,21.51-11,21.25-8.65,50.17,10.97,65.75,10.01,7.94,21.8,12.3,34.67,10.57s23.4-8.52,30.49-19.02c14.44-21.39,2.25-47.66-15.28-62.68-10.64-9.11-23.74-16.95-38.35-12.97-12.66,3.45-21.11,13.86-25.3,25.87-7.21,20.7-.38,47.1,15.85,61.79,18.05,16.34,45.99,20.38,64.88,3.02,18.2-16.73,17.33-43.57,10.03-65.14-4.13-12.2-8.75-23.7-19.53-31.47-7.39-5.33-17.42-7.82-26.48-6.84-22.24,2.41-40.38,19.61-39.41,43,.97,23.47,20.02,45.62,44.63,45.14,25.05-.49,42.02-25.06,39.74-48.83-1.21-12.6-5.86-23.61-11.08-35.02-4.65-10.16-18.56-11.74-27.36-7.18-4.69,2.43-9.38,4.87-14.06,7.3-13.22,6.86-12.83,27.57,0,34.54,8.16,4.43,18.16,6.18,27.05,2.8,6.09-2.31,12.86-6.85,13.97-13.97,1.45-9.34.71-17.87-4.75-25.86s-13.05-13.19-22.16-15.11c-16.44-3.48-32.62,2.68-45.38,12.85-21.91,17.46-29.51,48.1-21.41,74.47,4.1,13.34,11.59,26.47,22.47,35.4,12.17,9.99,28.84,16.38,44.44,10.6,14.57-5.4,25.19-17.85,28.9-32.95s.66-31.13-2.66-46.27c-3.08-14.06-8.27-27.58-18.16-38.3-11.09-12.02-27.03-17.18-43.01-14.5-31.57,5.29-45.34,37.01-48.1,65.47-2.77,28.58,11.97,55.11,37.76,67.85,13.32,6.58,27.55,9.53,42.34,10.3,12.21.63,26.87.96,38.38-3.54,18.74-7.32,25.77-25.54,20.93-44.47-3.26-12.76-10.04-25.47-16.81-36.71-7.03-11.67-15.42-22.72-24.72-32.67-5.21-5.58-11.01-10.62-18.1-13.61-7.87-3.32-16.14-4.06-24.57-3.05-25.9,3.12-52.48,17.44-60.36,43.98-4.68,15.76-.55,31.82,6.28,46.21,5.37,11.32,12.92,23.11,22.61,31.18,12.88,10.73,27.63,14.09,43.96,15.73,14.18,1.42,29.31,1.38,42.85-3.61,13.46-4.95,25.83-14.01,32.57-26.97,7.87-15.13,6.86-31.97-.81-46.96-6.75-13.19-19.03-22.71-31.3-30.45-11.63-7.34-24.4-14.52-37.99-17.3-14.84-3.04-30.39-1.97-43.81,5.53-12.24,6.84-20.98,19.21-24.27,32.74-3.14,12.9-2.27,26.04.25,38.95s7.66,26.43,16.24,37.21c18.46,23.18,50.21,23.44,77.03,19.6,13.74-1.97,26.61-6.72,37.4-15.6,10.25-8.44,17.08-21.11,20-33.96,5.96-26.25,2.41-57.95-16.2-78.47-8.68-9.57-20.48-15.55-32.03-20.86-3.36,12.42-6.73,24.85-10.09,37.27,4.64.23-2.61-.91-.16-.1.63.21,3.19.34,3.56.98-.69-1.21-3.12-1.57-.03.08,1.1.59,2.13,1.29,3.2,1.92,3.11,1.83-1.38-1.55.12.11.83.93,1.87,1.73,2.73,2.63.4.42,3.19,3.71,1.38,1.45s.96,1.53,1.06,1.67c1.53,2.42,2.77,4.97,4.02,7.54-.81-1.67-.73-1.89-.08-.03.47,1.35.96,2.69,1.4,4.05,1.85,5.74,3.19,11.62,4.5,17.51,12.86-3.54,25.71-7.09,38.57-10.63-3.88-14.06-11.46-26.97-22.02-37.05-6.2-5.92-16.71-7.98-24.24-3.13s-12.11,14.01-9.19,22.59c1.86,5.47,3.73,10.94,5.59,16.41,12.18-5.14,24.37-10.27,36.55-15.41-9.18-17.38-33.57-20.92-48.57-9.32-8.39,6.48-12.61,15.98-13.18,26.47-.58,10.44,4.05,19.71,10.48,27.53,6.49-11.14,12.97-22.29,19.46-33.43-3.92-.78-8.17-1.5-12.21-1.3-3.09.15-.43.38,1.24.83,1.22.65,1.42.74.62.28-1.32-.8-.65-.3,2.02,1.51.38.37,2.74,3.79,1.38,1.48,1.16,3.03,1.54,3.79,1.13,2.28-.24-1.04-.2-.69.1,1.06.21,1.95.28,2.11.22.49l-.49,3.14c.32-.44,1.31-4.24-.01-.72-.71,1.53-.8,1.84-.29.94.81-1.3.32-.65-1.48,1.93-.62.63-3.74,2.47-1.27,1.14-6.24,3.35,1.26.11-2.75,1.09-1.85.21-1.93.3-.22.28l-2.87-.35c3.44.75-2.7-1.69-.65-.51,3.22,1.85-.56-.4-.37-.67.03-.04,1.79,1.79,1.78,1.79-1.09-.9-1.81-2.02-2.15-3.36-2.29-5.25-1.03-10.63,3.78-16.16l8.83-5.14-.88.29h10.63c2.91,1.55,3.14,1.64.71.27l-1.65-.96c-1.93-1.12-3.85-2.23-5.78-3.35-3.58-2.07-7.15-4.14-10.73-6.22,3.3,5.76,6.6,11.51,9.91,17.27.11-1.47.23-2.94.34-4.41.65-8.34-6.64-17.45-14.68-19.29-9.33-2.13-17.08,1.72-22.59,9.19,4.4-2.52,8.79-5.04,13.19-7.56l3.28.53c2.46.75,4.54,2.35,6.06,4.37,3.21,4.28,3.23,8.47,1.22,12.86-1,1.18-.86,1.1.41-.26l-1.7,1.31c-.1-.18,2.52-1.28,2.51-1.45.04.66-3.98,1.08-.8.49.97-.18,4.38-.14,1.54-.43s.22.13.95.12c.98,0,1.97.12,2.94.12,2.6-.02-4.7-1.06-.1.01,1,.23,2,.43,2.99.68,2,.51,3.97,1.14,5.91,1.83.12.04,4.65,1.89,1.91.69s1.64.8,1.76.86c7.46,3.53,15.41,3.69,22.21-1.56,6.07-4.69,9.66-13.41,7.17-21.02-4.63-14.16-13.81-25.9-26.54-33.7-13.07-8-27.76-9.93-42.67-7.59-9.79,1.54-15.52,13.09-14.33,21.94,1.4,10.41,9.59,16.38,19.64,17.34,5.61.53-4.02-.93,1.5.18,1.12.23,2.25.44,3.37.69,3.09.71,6.01,1.86,9.05,2.72,2.86.8-3.94-2,.77.31,1.29.63,2.57,1.26,3.83,1.94,2.78,1.51,5.41,3.21,7.99,5.04,6.9,4.9,18.64,2.96,24.24-3.13,5.87-6.39,8.02-16.55,3.13-24.24-8.66-13.6-22.75-24.31-39-26.58-5.57-.78-10.35-.95-15.41,2.02-4.15,2.43-8.11,7.18-9.19,11.95-2.33,10.23,3.07,22.05,13.97,24.6,2.89.68,5.72,1.49,8.48,2.58-1.85-.74-1.46-.67.07.18s3.09,1.71,4.61,2.65c6.73-11.51,13.46-23.03,20.19-34.54-19.98-8.68-39.64-16.29-61.78-12.42-9.61,1.68-19.89,6.25-26.87,13.25-4.93,4.94-8.04,11.91-7.91,18.95.19,10.37,6.87,17.73,16.3,21.01,9.89,3.44,22.31-3.91,24.6-13.97,2.54-11.15-3.38-20.92-13.97-24.6l-.86-.3,8.83,5.14-.53-.6,5.14,8.83c-.51,3.84-1.02,7.69-1.53,11.53-.62,1.22-1.49,2.19-2.62,2.89-1.03.74-1.09.8-.18.17.63-.44,1.27-.86,1.94-1.24.36-.21,2.37-1.58,2.72-1.42-.91-.41-3.36,1.2.26.13,1.24-.37,2.5-.64,3.76-.93,2.69-.61.29-.52-.68.06,1.62-.96,5.95-.14,7.82-.08,2.27.07,1.11-.17-.44-.16,1.36-.01,3.05.54,4.4.85,2.62.59,5.21,1.32,7.77,2.15,2.86.93,5.65,2.01,8.45,3.1,1.56.61,2.08.84.22.06,1.66.7,3.31,1.42,4.96,2.14,9.57,4.16,21.91,3.15,27.36-7.18,5.17-9.79,2.33-21.48-7.18-27.36-6.96-4.31-14.75-7.57-22.72-9.44-3.54,12.86-7.09,25.71-10.63,38.57,2.26.31,4.46.76,6.63,1.45.72.22,1.44.47,2.14.75l-2.01-.81c.89-.06,2.61,1.39,3.31,1.82.41.25,3.23,2.12,1.08.59-2.34-1.65.98.94,1.43,1.37.21.2,2.17,2.01,2.08,2.2-1.38-1.9-1.65-2.26-.81-1.07.44.61.86,1.25,1.25,1.9l27.36-27.36c-13.85-9.83-29.93-14.75-46.69-16.35,1.77,13.1,3.54,26.19,5.32,39.29-1.18.18-3.84.27-1.18.23,1.16-.02,2.3-.07,3.46-.03.68.03,3.77-.14.78-.05-2.76.08-.13.03.75.22,1.3.29,4.69,2.02,5.97,1.8-.93.16-3.44-1.75-.97-.32,1,.58,2.04,1.09,3.03,1.7.79.48,1.54,1.05,2.32,1.53,2.19,1.34-2.55-2.39-.76-.56.63.65,3.7,4.43,4.4,4.42-.55,0-2.27-3.36-.6-.75.5.78,1.01,1.54,1.48,2.34.24.41,2.61,3.75.85,1.32-1.49-2.06.15.55.47,1.51,9.79-7.53,19.59-15.06,29.38-22.59-20.97-9.92-48.46-16.02-66.9,2.56-10.96,11.04-14.26,30.69-2.03,42.23,5.24,4.95,12.13,7.89,19.36,8,9.46.14,16.48-4.94,21.86-12.24-12.42-3.36-24.85-6.73-37.27-10.09-.11,1.47-.23,2.94-.34,4.41-.53,6.85,4.18,13.95,9.91,17.27,6.77,3.92,13.45,8.16,20.39,11.77,12.96,6.75,30.25,1.1,33.24-14.23,3.95-20.26-15.31-37.6-34.7-37.74-18.34-.13-33.39,14.86-32.88,33.32.23,8.5,3.53,16.61,9.62,22.59,3.59,3.52,8.39,5.97,13.2,7.24,3.09.81,6.4,1.02,9.59,1.13,1.14.04,7.06.82,2.44-.1,8.45,1.69,18.28-1.03,22.59-9.19s2.77-17.07-3.13-24.24c1.66,2.27,1.91,2.49.76.65,1,2.69,1.16,3,.46.92-.94-4.05.77,4.23-.01-.14-.69-3.83-.76,3.67.23,0-.34,1.67-1.14,3.07-2.4,4.2,1.16-1.1,1.05-1.07-.34.1-1.47,1.06-1.52,1.18-.15.36-3.09,1.2-3.63,1.5-1.61.92l-3.09.41c.75-.04,1.5-.03,2.24.04-3.45-.56-4.14-.57-2.07-.02l-2.79-1.13c1.75,1.11,1.25.72-1.49-1.17-1.89-2.71-2.32-3.16-1.29-1.34,4.65,8.81,16.22,11.88,24.98,8.18,8.67-3.66,14.81-14.11,11.58-23.59-1.86-5.47-3.73-10.94-5.59-16.41-11.14,6.49-22.29,12.97-33.43,19.46,1.73,1.65,3.26,3.46,4.92,5.17s-1.71-2.78.25.36c.7,1.12,1.46,2.2,2.14,3.34,1.17,1.96,2.62,4.15,3.29,6.33-.48-1.54-.93-2.5-.26-.35.48,1.52.97,3.01,1.39,4.55,2.78,10.08,14.32,17.3,24.6,13.97,10.73-3.47,16.41-13.65,13.97-24.6-3.29-14.74-7.34-30.01-16.47-42.32-10.69-14.43-25.57-23.94-43.8-24.85-8.38-.42-17.42,6.48-19.29,14.68-1.87,8.2,1.01,18.82,9.19,22.59,3.97,1.83,7.94,3.66,11.79,5.74,2.15,1.16,4.27,2.39,6.32,3.74.51.34,3.39,2.25,1.28.77-2.22-1.54,1.3,1.12,1.71,1.5.95.87,4.81,5.34,2.27,1.92,1.26,1.7,2.38,3.5,3.36,5.37.46.87,1.05,1.9,1.38,2.85-1.43-4.14-.49-1.12-.29-.33.67,2.6,1.53,5.11,2.06,7.75.15.76.63,2.31.57,3.17.27-3.8-.2-1.85-.09-.52.19,2.1.37,4.2.46,6.31.17,4.05.89,9.84-.44,13.7,1.32-3.85.33-2.13.05-.79-.2.99-.38,1.98-.6,2.97-.45,1.96-1.08,3.85-1.63,5.78-1.15,4.07.08-.75.4-.63.03.01-1.11,2.33-1.28,2.66-.46.87-.94,1.72-1.45,2.56-.38.63-.79,1.24-1.21,1.84-.84,1.19-.54.82.89-1.12.15.2-3.82,4.13-4.23,4.25,2.48-.72,1.98-1.34.4-.38-.87.53-1.7,1.09-2.59,1.59s-1.79.94-2.69,1.4c-3.82,1.97.57-.27.56-.23-.14.8-6.51,2.01-7.39,2.23-2.03.49-4.07.85-6.13,1.22-4.21.75.54.06.66-.06-.26.25-2.55.28-3.11.33-4.7.45-9.44.74-14.16.73-2.13,0-4.26-.06-6.38-.21-.63-.04-2.8,0-3.16-.29,1.22.96,3.18.58.65.02-2.03-.45-4.01-1.01-6.02-1.51-3.95-.99.24.38.47.38-.94-.02-3.3-1.65-4.08-2.12-.68-.41-2.16-1.14-2.58-1.71.24.34,3.04,2.99.51.15-.67-.75-1.41-1.47-2.09-2.2-1.45-1.55-1.56-.52.34.45-1.33-.68-2.44-3.92-3.12-5.25-.39-.75-1.1-1.91-1.33-2.78,1.24,4.69.05-.15-.24-1.01-1.33-3.89-2.37-7.88-3.21-11.9-.34-1.63-.28-4.31-1.04-5.77,1.28,2.46.33,3.02.17.91-.11-1.48-.24-2.95-.3-4.44-.08-1.96-.07-3.92.03-5.88.03-.57.4-2.55.22-2.9.23.46-.97,4.71-.09,1.05.44-1.84.9-3.64,1.43-5.46.82-2.81-.64.31-.46.9-.22-.71,1.72-3.09,2.02-3.64,1.32-2.46-.59-.06-.62.68.01-.35,1.9-2,1.96-2.07,1.23-1.31.85-2.08-.54.26.31-.52,2.2-1.36,2.55-1.59.8-.52,3.06-2.31-.69.1.7-.45,2.15-.76,2.86-.98.98-.29,1.97-.49,2.95-.74,3.71-.95-2.44-.05-.01-.04s4.6-.11,6.92-.02c1.68.07,2.63-.67-.76-.15.78-.12,2.81.56,3.42.71,2.27.54,4.46,1.3,6.68,2.01.7.22,3.6,1.37.09-.08,1.35.56,2.67,1.21,3.98,1.85,4.48,2.2,8.79,4.7,13.04,7.3,1.97,1.2,3.93,2.42,5.85,3.69.96.63,1.92,1.28,2.86,1.94.4.28,4.07,3.16,2.13,1.53s.87.81,1.29,1.18c.86.76,1.69,1.54,2.5,2.35s1.52,1.75,2.36,2.5c2.23,2.01-2.11-3.72.4.49,1.12,1.89,2.26,3.7,3.21,5.69-.41-.87-1.05-3.58-.29-.23.13.59,1.1,5.03.64,2.06-.43-2.75-.05.63-.05,1.35,0,1.04-.88,3.87.03,1.2,1.26-3.73-2.73,4.97-.66,1.82,1.76-2.68-.81,1.08-.99,1.43-.6,1.21-.76,2.9.58-.53-.68,1.74-3.34,3.41-4.64,4.68-1.95,1.89,2.92-1.73.52-.45-.86.46-1.66,1.08-2.51,1.57s-1.76.89-2.61,1.38c-2.4,1.4,3.63-1.05.56-.25-2.33.6-4.55,1.44-6.92,1.95-1.04.22-4.98.73-.9.28-1.5.17-3,.28-4.5.35-4.84.25-9.7.07-14.53-.3-2.39-.18-4.76-.48-7.15-.68-3.11-.26,3.12.64.06,0-1.73-.36-3.47-.61-5.19-1.02-1.14-.27-2.27-.57-3.39-.91-.54-.17-4.02-1.38-1.71-.48s-1.04-.57-1.56-.85c-.95-.53-1.83-1.19-2.78-1.71-2.42-1.33,2.18,2.23.3.21-.71-.77-1.57-1.43-2.31-2.18s-1.47-1.53-2.17-2.33c-1.33-1.51-1.93-2.53-.38-.33-2.69-3.81-5.21-7.72-7.47-11.8-1.14-2.04-2.09-4.16-3.18-6.23-1.41-2.66.85,2.83-.01-.04-.41-1.38-.98-2.71-1.38-4.1-.32-1.1-.55-2.21-.85-3.32-.97-3.61-.15-.6-.08.29-.1-1.41-.18-2.8-.15-4.21.02-.73.65-4.08.04-1.56s.22-.42.38-1.01c.24-.86.56-1.69.82-2.55.75-2.47-2.01,3.13-.4,1.15.64-.79,1.15-1.93,1.66-2.84,1.93-3.43-.71,1.09-.78.86-.05-.17,1.5-1.71,1.76-1.99.61-.65,1.25-1.27,1.91-1.88.3-.28,3.75-2.92,1.09-1.03-2.48,1.76,2.49-1.54,3.08-1.89,1.3-.76,4.04-2.85,5.56-2.87-2.38.03-2.93,1.12-.89.43.89-.3,1.76-.63,2.65-.91,1.77-.57,3.57-1.06,5.39-1.47.9-.2,1.82-.35,2.71-.56,4.4-1.03-3.32.09-.04-.02,1.15-.04,2.29-.19,3.45-.22,2.04-.04,3.48.24.66-.32,1.14.23,2.18.52,3.29.83-3.28-.94-1.29-.34-.25.19-2.8-1.44-1.04-.95-.09-.04.82.78,1.63,1.54,2.43,2.34,3.61,3.64,6.92,7.55,10.2,11.49,2.41,2.9.51.6.04-.01.69.91,1.37,1.82,2.05,2.74,1.35,1.84,2.66,3.71,3.93,5.6,2.86,4.26,5.54,8.64,8.01,13.14,2.2,4,4.18,8.1,6.11,12.24,1.61,3.45.32.64.02-.07.44,1.05.87,2.11,1.28,3.17.93,2.43,1.67,4.88,2.31,7.4.27,1.04.5,3.9-.09-.76.42,3.29.2.08.41-.91-.71,3.37.12-.09.49-.73.8-1.38,2.04-2.39,3.41-3.16-3.1,1.76.73-.21,1.17-.16-.49-.05-2.04.67-2.66.82-.1.03-2.46.73-2.78.56,2.73-.34,3.32-.43,1.79-.28-.7.07-1.4.12-2.1.17-4.8.34-9.62.52-14.43.49-2.4-.02-4.81-.08-7.21-.23-1.2-.07-2.39-.16-3.59-.27-.67-.06-6.14-1.12-1.8-.18-4.72-1.02-9.26-2.08-13.88-3.5-3.78-1.17.6,0,.69.4-.03-.14-2.29-1.05-2.67-1.24-2.2-1.09-4.34-2.31-6.4-3.65-.31-.2-2.45-1.61-2.42-1.68.08-.17,3.67,3.24.6.39-1.43-1.33-2.87-2.61-4.2-4.04-.25-.27-1.88-2.2-1.91-2.19.55-.23,2.16,3.19.53.57-.6-.97-2.68-6.01-3.51-6.3.58.2,1.33,4.4.45.71-.27-1.13-.66-2.22-.93-3.36s-.48-2.27-.65-3.41c.14.92.2,3.85.19.12,0-2.34-.1-4.65.03-6.99.06-1.17.18-2.33.27-3.49.45-5.68-.82,3.9.17-1.34.81-4.26,1.85-8.35,3.15-12.48.3-.94,1.56-3.35-.24.32.47-.96.9-1.92,1.4-2.87s1.02-1.86,1.58-2.76c.61-.99,3.62-4.4.61-1.12.8-.87,3.11-4.21,4.37-4.33.02,0-4.08,2.47-.3.4.9-.49,1.79-1.03,2.67-1.53,2.13-1.21.4-1.09-.56.2.26-.35,2.74-.8,2.92-.85,2.75-.82-.14-.65-.85.02.07-.07,5.38-.6,1.85-.24-2.55.26-.01.01,1.04.29l.7.19c2.09.73,1.83.58-.77-.44.33-.08,2.44,1.37,2.5,1.4,1.76.97,1.78.04-.56-.57.47.12,4.14,4.1,4.12,4.11-.16.13-2.67-4.08-.46-.56.65,1.03,1.32,2.04,1.92,3.1.54.96.97,1.99,1.52,2.94,1.47,2.56-.85-2.87-.02-.03.73,2.48,1.66,4.88,2.33,7.38,1.3,4.82,2.28,9.72,3.24,14.62.25,1.26.49,2.52.71,3.78.09.52.7,4.48.38,2.09s.13,1.57.17,2.1c.09,1.27.16,2.54.17,3.81.02,1.59-.03,3.17-.15,4.75.06-.74.75-3.14-.06-.12-.25.93-.51,1.87-.75,2.8-.92,3.53,1.31-2,.1-.07-.49.79-1.05,1.68-1.42,2.53-1.03,2.41,2.43-2.42.58-.59-.66.65-1.37,1.33-1.97,2.04-1.66,1.94,3.03-1.55.69-.58-.88.37-3.3.99-.78.54l1.07-.48c-2.24.53-1.92.58.96.14-.49.42-2.64-.4-2.91.04.35-.57,4.59,1.05.29-.15-.7-.2-3.57-1.42-1.1-.26s-.41-.33-1-.67c-.89-.51-1.71-1.13-2.59-1.65-2.37-1.39,2.25,2.29.38.25-1.36-1.49-2.93-3.02-4.37-4.43-2.1-2.06,2.44,4.05-.2-.3-.71-1.17-1.5-2.3-2.2-3.49-.56-.95-1.09-1.91-1.59-2.89-.28-.54-1.84-3.7-.74-1.35s-.3-.85-.51-1.44c-.37-1.04-.7-2.08-1.01-3.14-.62-2.12-.99-4.26-1.49-6.41-.66-2.88.08,3.39.09.43,0-1.36-.18-2.73-.19-4.09s.19-2.74.14-4.09c-.11-2.93-.76,3.31-.12.44.44-1.99.8-3.96,1.4-5.91.28-.92.65-1.82.94-2.74.82-2.63-1.69,3.16-.3.78,1.09-1.87,2.13-3.79,3.22-5.67,1.8-3.08-.29.05-.57.54.57-.99,1.59-1.9,2.37-2.73,1.32-1.42,2.77-2.65,4.18-3.96,1.99-1.85-2.98,1.84-.61.53.83-.46,1.6-1.05,2.43-1.54s1.72-.87,2.52-1.37c1.99-1.24-3.68,1.13-.15.05.98-.3,2.01-.58,2.98-.91,3.9-1.31.07-.37-.35-.18-.04.02,3.09-.36,3.34-.11l-2.02-.37c.82.13,1.62.34,2.4.61,2.49.47-1.61-1-2.09-1.18-2.81-1.05,1.43,1.59-.54-.64l-.69-.91c.87,1.59.94,1.63.21.13-.24-2.34-.71-3.72-.32-6.25l13.97-13.97c-3.54,1.34,2.55.3.16.34-1.64.03,2.88.49,3.61.89v34.54c4.69-2.43,9.38-4.87,14.06-7.3-9.12-2.39-18.24-4.78-27.36-7.18.74,1.61,1.46,3.22,2.18,4.83-1.81-4.07.5,1.29.68,1.78,1.03,2.76,1.68,5.61,2.58,8.39,1.6,4.92.16-2.33.25.7.04,1.42,0,2.96.14,4.36.44,4.35,1.23-4.06-.02.19-.16.68-.34,1.36-.56,2.03-.47,1.42-.22.92.77-1.51,0,.35-1.69,3.64-2.01,3.65,1.75-.05,2.1-3.19.12-.35-1.36,1.95,4.01-2.03.4-.22-3.94,1.98,4.3-.62-.12.05l1.15-.13c1.71-.15,1.53-.18-.53-.1l1.97.33c-1.11-.22-2.2-.52-3.27-.9,3.5,1.16.92.38-.01-.3-1.25-.81-.77-.4,1.43,1.24-.66-.55-1.29-1.13-1.9-1.75-3.23-2.6,1.92,3.66-.12.03-.41-.72-.88-1.54-1.33-2.22-2.34-3.53.94,4.14,0,.02-.21-.93-.41-2.26-.8-3.12-.99-2.17-.1,4.87.21.87v-1.27c.15-2.21.04-1.7-.33,1.54.03-.02.54-2.14.6-2.46.71-2.03.52-1.61-.58,1.24.38-.73.8-1.44,1.26-2.12.5,1.47-3.25,3.31-.47.95,2.01-1.7-4.38,2.48-.84.61l1-.6c1.88-.96,1.35-.79-1.59.51.42.04,1.72-.6,2.24-.74,3.42-.96,1.94.88-.68-.13.7.27,2.72-.04,3.51-.05,2.6-.03-.39,1.18-1.86-.25.75.16,1.49.36,2.22.6-2.98-1.37-3.52-1.6-1.62-.67.09.06,1.67,1.18,1.95,1.2l-2.25-1.68c1.32,1.39,1.15,1.05-.5-1.03,1.01.85,1.38,2.51,2.11,3.58,1.71,2.53-1.43-4.23.29.61,2.36,6.67,4.32,13.2,6.02,20.06.76,3.08.12-4.42.06,1.01-.02,1.7.02,3.42,0,5.12-.03,4.19.17-.91.17-.91.38.71-.91,3.56-1.09,4.31-1.02,4.36,2.23-3.02-.29.63-.2.29-1.46,2.54-1.52,2.48l1.36-1.76c-.63.73-1.3,1.41-2.02,2.06,2.2-1.58,2.38-1.76.55-.54l-1.26.69,2.18-.91c-.88.31-1.78.56-2.69.76l2.55-.29c-.93.09-1.87.12-2.81.11-2.84.28.33.66,1.08.31-.79.36-3.38-.85-4.19-1.03-4.38-.98,2.37,1.52.06.09-1.01-.62-2.14-1.25-3.19-1.79-4.09-2.12,2.66,2.83-.6-.41-.39-.39-3.11-2.64-3.09-3.2l1.21,1.6c-.6-.84-1.18-1.7-1.71-2.59-.67-1.11-1.2-2.3-1.85-3.41-1.44-2.47,1.12,4.37-.03-.26-.37-1.49-.79-3.03-1.22-4.5-.4-1.36-1.47-2.8,0,.71-.48-1.16-.22-3.42-.2-4.65,0-.23.38-5.3,0-1.98-.35,3.05.75-2.63.87-3.26.86-4.24-2.23,3.21.18-.41.76-1.13,2.02-2.32-.76.62,2.98-3.15-3.85,1.46.05-.3-2.26,1.02-3.54.71-5.76,1l-1.06-.22c2.15.65,2.09.53-.17-.36,1.53.76,2.85,1.78,4.31,2.65-2.97-1.76-.93-.78-.16-.09,1.61,1.44,3.24,2.83,4.76,4.36.95.96,1.79,2.06,2.77,2.98,2.14,2.02-2.2-3.78.33.41.82,1.35,1.64,2.68,2.42,4.06,2.09,3.71-.15-.49-.22-.54l.44,1.45c.48,2.24.49,1.94.04-.89.59.67-.68,6.44.25.74-.44,2.7.81.09.64-.82-.4.84-.86,1.64-1.37,2.42,1.77-2.15,1.94-2.42.49-.8l-1.01.97,1.84-1.38c-.19.48-3.15,2.11-3.67,2.11,3.6-.05,2.11-1.15.1-.43-2.68.96,4.97-.25.42-.16s3.92,1.42-.51-.06c-.66-.22-2.15-.44-2.79-.9l2.1.8c-.87-.46-1.72-.96-2.54-1.5,2.04,1.69,2.22,1.82.55.39-.55-.5-1.08-1.02-1.58-1.57-2.01-1.58,2,3.84-.08-.04-.46-.86-2.18-5.04-.76-.81-.34-1-.59-2.13-.97-3.13-1.7-4.38-.33,3.56-.27-1.16.02-1.27-.5-3.77.07-4.94-.18.37-1.06,4.45.01.42.3-1.14.52-3.89,1.36-4.76-1.07,2.35-1.15,2.55-.22.61l.7-1.28.76-1.25c1.25-1.81,1.08-1.62-.5.56.03-.87,4.96-3.94.24-.62,1.1-.77,3.01-1.15-1.02.15,4.13-1.33-4.1-.7.46-.15l-2.36-.33c1.77.56,1.92.53.47-.09-2.69-.43,1.09.7,1.73,1.01,4.19,2.04-2.38-2.63.96.71,1.12,1.12,2.22,2.25,3.32,3.39,3.56,3.68-2.15-3.48.55.63.55.83,1.11,1.64,1.63,2.48.79,1.27,1.43,2.63,2.2,3.91,2.49,4.15-1.07-3.91.37.69.44,1.41,2.63,5.79,1.93,7.06l-.31-2.47c.08.71.12,1.41.14,2.12.04.7.04,1.41.01,2.11-.16,2.25-.07,1.86.29-1.18.15.11-.83,3.92-1.06,3.99l.47-1.11c.68-1.53.62-1.48-.19.13-3.69,2.87,3.46-2.58-.43.6l1.66-1.35c2.21-1.36,4.49-1.86,6.85-1.51l1.1.1c-2.18-.77-2.03-.69.45.24-.86.07-3.12-1.7-3.84-2.15-.49-.31-2.01-1.09-2.43-1.65,2.09,1.65,2.3,1.78.62.37-.73-.65-1.44-1.32-2.13-2.02-.86-.87-1.63-1.83-2.47-2.72-1.97-2.06,2.34,3.97.03-.06-1.05-1.84-3.29-4.25-3.57-6.41l.89,2.07c-.35-.92-.66-1.84-.94-2.78-.09-.3-.86-4.03-.99-4.05.47.09.16,5.26.3,1.56-.04-.85-.04-1.7,0-2.56.17-2.21.07-1.71-.31,1.51.13-.08.45-2.09.55-2.47.22-.8.48-1.58.78-2.36-1.27,2.88-1.42,3.39-.42,1.53,1.34-2.8-.66.85-1.02,1.28,1.53-1.43,1.06-1.1-1.41.97,1.84-1,1.31-.79-1.61.6l-2.52.23c1.97.04,2.15,0,.55-.1-1.59-.22-1.43-.09.49.4-2.24-.93-2.34-.86-.32.22l1.39.94c-1.76-1.36-1.91-1.4-.44-.12.72.86,2.55,1.95,2.78,3.02l-1.46-1.85c.53.76,1.03,1.53,1.5,2.32.55.92,1.2,2.91,1.92,3.67l-.98-2.23c.31.86.59,1.72.84,2.6,1.4,5.04-.11.06.3-.02.09-.02.12,3.71.14,3.97.22,4.04.85-4.54-.18.46-.84,4.12-.12-.86.36-.55-.41.78-.86,1.54-1.36,2.26.74-1.39,1.81-2.45,3.21-3.17l6.28-.25c6.42.9,8.13.59,5.15-.93,6.15,3.76-1.51-.39-.75-1.16.87-.89,2.2,3.81.92.89-.44-.75-.84-1.51-1.2-2.3,1.13,2.78,1.34,3.15.63,1.1-.21-1.06-.5-2.18-.78-3.23-.28-1.53-.2-.87.25,1.99-.08-.9-.12-1.8-.13-2.7-.01-1.13.11-2.26.13-3.39.14-1.56.05-.9-.28,1.96.16-.88.35-1.76.58-2.63l.37-1.29c.7-2,.52-1.7-.55.88.17-1.27,1.46-2.68,2.01-3.78l.79-1.19c-1.73,2.14-1.87,2.4-.44.78,1.32-1.2,1.34-1.28.06-.25-1.32.96-1.25.96.22,0-5.7,2.29,2.91.33-3.64.71,3.36-.19-2.43-.63-3.68-1.3,3.89,2.1-2.81-3.15.14.06-2.56-2.79-3.74-6.38-2.8-10.16-2.52,10.14,3.26,22.16,13.97,24.6s21.9-3.11,24.6-13.97h0l-.03-.03Z"/>
          </g>
          <path class="cls-3" d="m183.68,458.17c13.33,4.86,22.79,9.5,31.48,20.36-1.06-1.33,1.85,2.61,2.16,3.07.82,1.23,1.62,2.47,2.38,3.74,1.54,2.56,2.97,5.18,4.31,7.85.9,1.8,1.73,3.63,2.58,5.46,1.06,2.3-.06-.31.96,2.24,1.23,3.07,2.39,6.15,3.5,9.27,1.11,3.12,2.14,6.22,3.16,9.35.47,1.43.93,2.86,1.38,4.3s.71,4.31,1.6,5.45c.49.63.16.76.68-.67-.49,1.36-1.59,2.64-2.41,3.8-2.07,2.93-4.1,5.82-5.87,8.95-3.37,5.95-6.66,13.64-10.49,18.35-1.22,1.5-4.04,3.92-5.27,4.69-2.39,1.51.18.08-2.16,1.07-1.71.36-1.92.47-.64.32-1.72-.1-1.97-.02-.76.24-1.24,9.17-2.48,18.33-3.72,27.5,17.74-1.04,35.48-2.08,53.22-3.13,8.95-.53,21.1.88,28.17-5.51,4.55-4.11,6.44-10.18,4.67-16.17-2.07-6.97-7.96-10.34-14.87-11.01,4.5,3.43,9,6.85,13.5,10.28-5.87-18.14-10.44-36.64-13.69-55.43-1.29-7.46-10.44-11.64-17.22-9.78-7.97,2.19-10.95,9.72-9.78,17.22,1.78,11.38,1.7,23.84-.16,35.18h27c-1.23-6.46-2.46-12.93-3.69-19.39-2.39-12.56-19.54-12.69-25.59-3.34-4.49,6.93-8.48,14.11-12.01,21.58-5.32,11.27,3.39,23.06,15.81,20.57,8.27-1.66,16.84-1.19,25.06,1-1.11-8.53-2.23-17.06-3.34-25.59-6.3,2.78-10.76,7.4-14.88,12.76-2.95,3.83-2.28,10.23,0,14.13,2.72,4.64,7.02,6.33,12.09,6.93,8.85,1.05,17.52.38,26.27-1.25,5.73-1.07,10.57-7.78,10.28-13.5-.88-17.26-4.28-34.26-7.39-51.22s-6.02-32.83-9.03-49.24c-1.4-7.65-1.82-16.73-5.03-23.85-4.5-9.99-13.94-11.6-23.8-11.44-17.29.27-34.58.54-51.87.81-13.44.21-19.64,19.36-7.07,26.09,7.63,4.09,15.26,4.67,23.5,6.52,1.05.22,2.08.49,3.1.8,1.66.52,2.02.66,1.08.39.48.24,3.37,2.52,1.82,1.12,2.1,1.9,2.73,2.75,4.7,6.4,3.04,5.61,5.36,12.59,7.83,20.2,2.71,8.32,5,16.75,6.95,25.27,1.68,7.37,10.16,11.72,17.22,9.78,8-2.2,10.92-9.72,9.78-17.22-2.62-17.22-5.25-34.45-7.87-51.67-9,2.48-18,4.96-27,7.44,4.62,18.9,9.24,37.81,13.87,56.71,1.8,7.35,10.08,11.74,17.22,9.78,7.48-2.06,11.58-9.85,9.78-17.22-4.62-18.9-9.24-37.81-13.87-56.71-1.8-7.35-10.08-11.74-17.22-9.78-8,2.2-10.92,9.72-9.78,17.22,2.62,17.22,5.25,34.45,7.87,51.67,9-2.48,18-4.96,27-7.44-4.07-17.83-9.05-37.49-18.32-53.44-4.83-8.32-11.66-14.86-20.64-18.39-4.06-1.6-8.19-2.33-12.48-3.03-3.77-.61-8.19-1.38-10.43-2.58-2.36,8.7-4.71,17.39-7.07,26.09,10.31-.16,20.61-.32,30.92-.48,4.99-.08,9.97-.16,14.96-.23,2.66-.04,5.32-.09,7.98-.12,1.12-.03,2.23-.04,3.35-.03-1.46-.28-1.41-.16.13.37l-6.18-3.6c-1.3-3.28-1.64-3.71-1.01-1.29l.71,3.86c.47,2.57.94,5.15,1.42,7.72.83,4.51,1.65,9.01,2.48,13.52,1.83,9.98,3.66,19.95,5.49,29.93,3.48,18.95,7.89,38,8.87,57.29l10.28-13.5c-6.19,1.15-12.57.99-18.82.25,4.03,7.02,8.06,14.04,12.09,21.07-.96,1.25,1.97-1.32.64-.49,1.36-.85,2.73-1.58,4.2-2.23,4.97-2.19,7.42-9.04,6.68-13.95-.81-5.41-4.56-10.19-10.03-11.64-13.22-3.51-26.57-3.69-39.95-1l15.81,20.57c3.52-7.47,7.52-14.65,12.01-21.58-8.53-1.11-17.06-2.23-25.59-3.34,1.23,6.46,2.46,12.93,3.69,19.39,2.51,13.19,24.78,13.54,27,0,2.76-16.86,2.8-33.2.16-50.07-9,2.48-18,4.96-27,7.44,3.25,18.79,7.82,37.29,13.69,55.43,2.07,6.39,7.06,9.65,13.5,10.28l.81.08c-3.3-1.37-6.6-2.73-9.9-4.1l.56.66-3.6-6.18.19.92v-7.44l-.3.88,3.6-6.18-.96.75,6.18-3.6c1.85-.54.57.01-.75.1-1.64.11-3.29.19-4.93.29-2.96.17-5.91.35-8.87.52-5.91.35-11.83.69-17.74,1.04-11.83.69-23.65,1.39-35.48,2.08-6.92.41-12.9,5.01-13.75,12.14-.74,6.19,3.06,14.35,10.03,15.36,17.49,2.55,31.61-6.17,41.3-20.38,4.03-5.9,6.88-12.49,10.5-18.63,3.72-6.31,8.8-11.53,10.14-19,1.47-8.22-1.26-15.92-3.78-23.63-2.05-6.27-4.21-12.5-6.71-18.6-5.29-12.93-11.53-25.04-20.7-35.69-11.32-13.16-26.45-20.05-42.43-25.88-7.1-2.59-15.33,2.91-17.22,9.78-2.14,7.8,2.65,14.62,9.78,17.22h0v-.03Z"/>
          <g class="cls-1">
            <path class="cls-7" d="m216.38,499.62c6.67,12.56,13.14,25.23,19.38,38.01,3.12,6.39,6.18,12.81,9.19,19.25,1.37,2.93,2.72,5.86,4.06,8.8,0-.03,1.9,4.28,1.4,3.13.92,2.13-.26,1.16.15.03l23.4-6.18c-9.42-9.35-21.69-7.14-33.32-4.32s-23.85,5.79-35.78,8.68c2.48,9,4.96,18,7.44,27,9.81-2.67,19.46-6.67,25.55-15.2,6.84-9.57,5.28-22.83,5.58-34,.2-7.56-6.58-14-14-14-8.27,0-13.15,6.45-14,14,.16-1.43-.11.63-.18.97-.22,1.03-.44,2.06-.71,3.08s-.61,2.02-.9,3.03c-.48,1.66-.21.84-.63,1.8-1.57,3.62-4.28,7.64-6.05,9.66-7.59,8.64-2.92,24.32,9.9,23.9,10.67-.35,21.3-1.22,31.89-2.61,5.08-.67,9.35-2.25,12.09-6.93,2.45-4.19,2.67-9.96,0-14.13-2.97-4.64-5.78-9.38-8.36-14.25-1.15-2.16-2.19-4.38-3.31-6.55l-.79-1.66q.17.52,0,0c-.21-.81-.25-.78-.12.09.33,2.45-.42,4.76-2.26,6.93l-23.4-6.18c3.41,12.04,6.82,24.08,10.23,36.11,4.5-5.91,9-11.81,13.5-17.72-13,1.48-24.86,3.7-35.04,12.52-9.2,7.97-1.8,24.26,9.9,23.9,15.64-.49,31.27-.97,46.91-1.46,11.57-.36,19.19-15.38,9.9-23.9-20.53-18.82-28.29-45.74-36.09-72.88-8.53,3.6-17.06,7.19-25.59,10.79,14.92,25.48,29.83,50.97,44.75,76.45,3.82,6.52,12.63,8.84,19.15,5.02s8.77-12.56,5.02-19.15c-15.74-27.66-31.47-55.32-47.21-82.98l-21.99,16.97c.84.71,2.96,2.82,3.09,2.98-.06-.08,1.45,2.29,1.91,3.03,2.04,3.36,3.97,6.79,5.91,10.21,3.9,6.89,7.69,13.83,11.36,20.84,7.5,14.3,14.5,28.85,21.05,43.6,3.07,6.91,13.15,8.54,19.15,5.02,7.12-4.16,8.1-12.22,5.02-19.15-6.81-15.33-14.1-30.44-21.93-45.28-3.84-7.28-7.8-14.49-11.89-21.64s-7.77-14.24-13.87-19.42c-5.31-4.5-12.65-5.66-18.38-1.09-5.44,4.34-7.13,11.86-3.61,18.06,15.74,27.66,31.47,55.32,47.21,82.98l24.18-14.13c-14.92-25.48-29.83-50.97-44.75-76.45-7.95-13.58-30.03-4.65-25.59,10.79,8.83,30.71,19.02,62.98,43.29,85.23,3.3-7.97,6.6-15.93,9.9-23.9-15.64.49-31.27.97-46.91,1.46,3.3,7.97,6.6,15.93,9.9,23.9-.94.58-.71.42.7-.49.84-.51,1.7-.98,2.58-1.4-1.67.74,2.44-.69,2.96-.83,4.2-1.11,5.91-1.25,9-1.6,8.8-1,16.21-8.16,13.5-17.72-3.41-12.04-6.82-24.08-10.23-36.11-1.33-4.71-5.04-8.47-9.78-9.78-5.29-1.46-9.53.43-13.62,3.6-8.77,6.79-5.91,18.49-2,26.91,3.61,7.77,7.85,15.24,12.46,22.46,4.03-7.02,8.06-14.04,12.09-21.07-10.59,1.39-21.22,2.26-31.89,2.61,3.3,7.97,6.6,15.93,9.9,23.9,9.74-11.08,15.04-23.73,16.67-38.34h-28c-.11,4.23-.23,8.46-.34,12.69-.03,1.24,0,4.1,0,4.47l-.43,1.7c.61-1.38.53-1.37-.25.03.8-1.05.86-1.22.18-.5-.72.66-.59.58.39-.21-1.07.75-2.23,1.34-3.39,1.93,2.31-1.18-1.08.4-1.63.58-1.68.57-3.39,1.05-5.1,1.51-7.3,1.99-11.78,9.95-9.78,17.22s9.85,11.57,17.22,9.78c9.35-2.27,18.7-4.54,28.05-6.8,4.41-1.07,8.8-2.21,13.22-3.2.66-.16,1.32-.3,1.99-.42-1.45.15-1.32.16.37.03,2.72-.38-.6-.01-1.77-1.17,7.91,7.86,19.9,3.53,23.4-6.18,3.26-9.03-1.08-17.53-4.78-25.61-3.36-7.35-6.8-14.66-10.31-21.94-7.02-14.56-14.34-28.97-21.92-43.24-3.55-6.67-12.82-8.73-19.15-5.02-6.76,3.95-8.58,12.45-5.02,19.15h.01Z"/>
          </g>
          <path class="cls-6" d="m392.02,575.56c-.62.25-1.25.5-1.88.73-.42-1.64-1.45-3.01-2.8-4.01,1.68.04,3.31.95,4.28,2.46.17.26.3.54.4.82Z"/>
          <path class="cls-6" d="m568.15,304.86c.65-2.3.27-5.15,1.89-6.9,1.97-2.13,2.81-5.17,2.02-8.07-.72-2.65-2.69-4.74-5.17-5.7-2.35-.92-4.23-2.75-4.94-5.17-3.13-10.68-5.23-15.67-11-30.09-25.93-64.82-52.82-98.57-115.84-144.58-17.08-12.47-55.84-33.81-123.55-36.59-4.86-.2-9.69-.28-14.48-.26-4.25.02-7.82-3.22-8.17-7.45-1.01-12.4,4.37-26.33,11.25-35.42,4.78-6.33,11.51-11.5,19.29-13.46,6.14-1.55,13.81-.71,16.59,5.74,2.54,5.89,11.15.81,8.63-5.05-3.69-8.57-13.66-11.99-22.43-11.26-11.7.97-20.05,7.9-26.96,14.3-3.66,3.39-11.78,11.66-17.09,25.05-4.27,10.77-4.93,20.33-4.89,26.16-14.34,1.9-33.91,5.74-55.91,14.12-22.03,8.39-75.72,32.48-114.07,86.96-36.53,51.91-49.96,118.37-50.26,136.09,0,0-.3,18.08-7.06,32.47-2.62,5.58-6.09,10.58-6.09,10.59-1.09,1.59-2.24,3.11-3.51,4.66-6.83,8.36-16.21,21.54-23.58,39.47-5.8,14.11-16.89,42.05-10.29,76.61,3.73,19.53,13.32,40.31,32.54,61.36,1.83,2,3.65,3.95,5.48,5.84-.02.13-.02.27,0,.41,0,0-.95,41.41,22.88,84.13,49.39,88.54,166.83,103.49,205.79,108.65,7.86,1.04,33.98,4.41,68.37,3.02,95.1-3.85,143.24-33.32,143.24-33.32,0,0,74.04-44.96,99.95-129.6,2.85-9.31,3.39-11.86,3.39-11.86.96-4.53,1.04-6.75,2.54-10.16,1.83-4.16,4.36-6.65,5.08-7.62,7.48-10.04,9.73-21.42,11.86-32.19,5.61-28.37.39-57.48-1.69-68.61-3.88-20.71-9.87-36.7-14.12-46.59-3.64-8.49-7.28-15.46-10.16-20.61-9.16-45.24-10.66-61.03-9.52-65.04v-.03ZM122.52,166.05c14.17-17.61,37.58-46.09,79.06-66.07,45.65-21.99,86.61-21.01,106.73-20.33,26.88.91,74.19,6.96,121.48,36.9,33.13,20.98,52.69,45.14,61.72,56.43,24.37,30.51,37.42,61.05,45.95,80.96,5.94,13.85,10.18,25.72,12.99,34.19-6.26,1.86-12.81,4.02-19.6,6.53-9.9,3.67-18.95,7.6-27.14,11.56-1.56-6.53-4.62-16.83-10.91-28.21-5.89-10.65-27.81-46.53-69.87-54.23-30.9-5.66-62.22,4.39-84.17,26.9-15.97,16.39-26.15,38.12-26.38,60.24-14.55-3.71-25.24-5.61-39.89-2.19-1.25-16.7-7.85-34.01-16.84-48-16.68-25.97-48.95-39.36-79.87-39.88-31.53-.53-62.09,15.32-79.86,41.34-4.8,7.02-8.6,14.71-11.34,22.76-5.23-2.56-10.46-5.11-15.69-7.67,6.39-27.55,20.47-70.02,53.65-111.25l-.02.02Zm405.74,469.27c-63.05,76.14-161.26,80.8-199.6,82.62-22.45,1.07-191.54,6.78-253.02-102.5-11.1-19.73-17.95-41.93-20.45-66.16,14.74,13.58,50.87,42.76,100.17,42.96,9.25.04,17.83-.95,25.64-2.51,3.96,2.16,10.01,5.14,17.72,7.67,23.62,7.76,34.37,1.98,76.78.87,26.14-.68,44.68.92,47.25-6.53,1.04-3.03.42-10.38-2.58-12.88-.92-.77-2.04-1.24-2.04-1.24-1.78-.72-1.5-.77-3.43-.46-3.55-28.06,0-2.95-4.27-30.91,4.85,25.51-1.25-1.71,5.53,23.37,1.68,6.21,16.02,2.46,14.33-3.77-11.58-42.83-22.73-85.71-28.68-129.68-.14-1.05-.52-1.85-1.06-2.42.27-.64.41-1.36.39-2.15-.12-5.86-6.37-6.05-10.58-5.56-3.71.43-7.43.75-11.15.98.03-.47,0-.95-.08-1.43-.59-3.62-1.55-7.42-1.96-11.14-.2.33-.46.65-.77.93-.07.06-.14.13-.21.19-.26.24-.53.44-.81.61-.02-.53-.13-1.06-.35-1.59.47-.19.93-.38,1.4-.57.19-.69.38-1.39.56-2.08.02.83.09,1.67.18,2.51.93-1.54.76-3.51,0-5.13-.65-1.41-2.01-2.42-3.52-2.74-2.26-.47-4.4.34-5.65,2.3-.4.64-.66,1.31-.8,2-3.15,1.02-5.73,4.49-6.07,8.2-.26,2.78-.37,5.6-.39,8.45-3.18-.01-6.35-.05-9.52-.12-2.71-.06-5.42-.14-8.13-.22-.04-.24-.1-.49-.18-.75-1.7-5.47-2.94-11.01-3.74-16.68-.34-2.36-3.06-3.8-5.32-3.63h0c-1.51-1.59-4.23-2.05-6.13-.85-5.63,3.54-4.82,13.22-4.84,19.11,0,.7,0,1.39.02,2.09-5.62-.18-11.22-.32-16.83-.34h0c-.75-2.97-1.34-5.98-1.73-9.03v-.04c-.02-.18-.04-.35-.07-.52-.23-1.75-1.03-3.34-2.38-4.24.05-1.19-.41-2.41-1.6-3.47-2.62-2.32-6.02-3-9.11-1.11-3.79,2.32-4.19,6.87-4.51,10.88-.21,2.67-.25,5.34-.11,8-4.59.26-9.18.66-13.76,1.23-3.24.4-5.67,2.87-4.82,6.33,1.16,4.76,2.33,9.51,3.49,14.27-11.96-2.41-23.33-2.5-31.97-1.93-2.81.19-5.24,2.25-5.66,5.04-.58,3.94,2.6,7.21,6.33,6.94,18.37-1.23,62.7.35,77.39,41.28,5.63,15.68,4.02,32.12-4.54,46.28-9.87,16.32-27.34,27.32-47.94,30.2-43.34,6.04-80.16-10.43-119.4-53.4-11-12.05-26.84-33.44-30.88-64.61-5.56-42.9,15.76-82.28,24.98-92.85,1.24-1.42,6.04-6.66,10.45-14.96,3.81-7.19,5.72-13.88,6.78-17.79,4.62-17.1,7.69-34.71,9.04-42.92,2.64.31,5.85.92,9.38,2.12,2.45.84,4.59,1.8,6.39,2.74-4.44,19.19-3.12,39.72,4.71,57.87,12.49,29,40.77,45.88,71.41,49.09,6.39.67,6.34-9.34,0-10-23.26-2.44-45.66-14.25-57.93-34.63-14.62-24.26-13.82-56.04-.8-80.8,20.75-39.46,64.03-44.57,67.82-44.96,26.21-2.68,58.22,6.19,76.3,31.35,15.59,21.7,19.67,53.94,13.07,65.35-.65,1.13-3.07,4.92-1.76,8.29,1.67,4.3,12.25,9.63,13.57,4.78,1.71-6.28,3.54-14.13,3.77-20.61,14.86-3.87,26.37-3.11,41.04,1.19.98,7.16,3.07,14.28,6.42,21.19,2.8,5.79,11.43.73,8.63-5.04-11.96-24.7-4.52-53.17,12.25-73.71,16-19.59,44.42-33.96,71.54-31.57,41.29,3.64,61.6,37.68,64.2,42.2,14.6,25.48,14.62,56.49,2.01,80.93-8.52,16.53-20.85,26.24-27.83,30.94-3.23-.81-6.51-1.13-9.06.49-1.37.88-2.55,2.25-3.58,3.85-6.45,1.56-13.09,2.31-19.74,2.59-6.41.28-6.44,10.28,0,10,4.8-.21,9.52-.69,14.13-1.49-3.11,5.77-6.23,11.55-9.34,17.32-.77,1.42-.83,2.79-.44,3.95-20.1,1.55-39.97,9.19-49.32,19.25-11.14,11.99-17.98,24.67-20.36,37.69-3.77,20.7,3.88,40.99,22.72,60.31,1.04,1.07,2.11,2.12,3.19,3.14-.64.39-1.18.96-1.5,1.68-2.25,5.01-4.49,10.01-6.74,15.01-2.2,1.48-3.26,4.53-.34,8.36,1.33,5.78,2.46,10.7,3.8,16.49-.64,3.5,3.08,6.3,6.21,5.33,8.66-2.66,17.08-5.91,25.33-9.66.85-.38,1.46-.89,1.89-1.48.86-.37,1.64-1.04,2.24-2.07,1.91-3.29,3.98-6.47,6.23-9.52,10.2,4.38,21.32,7.72,33.31,10,30.43,5.79,55.79,2.53,62.84,1.4,19.58-3.16,39.77-8.24,58.51-26.84-5.64,21.5-17.06,53.04-41.95,83.09h0Zm-333.19-50.11c7.34-3.18,21.39-10.61,31.67-26.14,11.3-17.08,16.48-41.62,7.54-62.33-4.79-11.09-12.49-18.42-20.29-25.86-11.33-10.8-20.84-15.32-24.07-16.72-3.28-1.42-6.6-2.61-9.91-3.6,1.06-1.09,1.63-2.66,1.16-4.57-.72-2.94-1.45-5.88-2.16-8.82,2.94-.27,5.88-.48,8.83-.64.79,3.89,1.94,7.7,3.4,11.39,2.34,5.91,12.02,3.33,9.64-2.66-1.17-2.96-2.18-5.98-2.92-9.08,8.56-.16,17.13.02,25.7.3.5,3.83,1.22,7.64,2.13,11.4,1.52,6.24,11.17,3.6,9.64-2.66-.63-2.6-1.25-5.43-1.75-8.38.1,0,.19.01.29.01,8.97.34,17.94.67,26.92.68.1,3.5.21,7,.21,10.43,0,6.43,10,6.44,10,0v-10.57c2.94-.08,5.87-.21,8.8-.4.59-.04,1.17-.08,1.76-.13,8.07,47.22,15.13,94.61,21.13,142.15-3.98.66-7.96,1.33-11.95,1.99-12,2.01-24,4.12-36.08,5.66-15.31,1.95-23.4,2.94-34.64,2.33-10.49-.57-19.11-2.29-25.05-3.78h0Zm31.65-172.08c.99.13,1.98.25,2.97.38.12.78.24,1.55.38,2.32-.65-.23-1.28-.62-1.88-1.22-.49-.5-.98-.99-1.47-1.48Zm5.13,1.36c.16-.21.33-.43.49-.64.15.02.29.04.44.06-.31.19-.62.39-.93.58h0Zm.75,12.33h-.08c0-.11-.02-.23-.02-.35.03.11.06.23.1.35Zm35.09-16.07c.2-.78.66-1.55,1.43-2.25.07-.07.14-.13.21-.19-.1.76-.2,1.51-.3,2.27-.45,0-.9.06-1.34.17Zm.88,3.4c-.01.07-.02.15-.03.22-.05-.12-.11-.24-.16-.36.06.05.13.1.19.14h0Zm-.44,5.66c.07.47.15.94.22,1.41-.47-.26-.94-.62-1.37-1.1.41-.13.8-.23,1.15-.31Zm2.87-3.58c.06-.02.12-.05.18-.07.06.04.13.09.19.14-.13-.02-.25-.05-.37-.07Zm175.18-7.13c-.74-1.42-2.14-2.48-4.21-2.53-.41-.01-.81.02-1.2.09.84-1.56,1.68-3.12,2.52-4.67.49-.92.98-2.07,1.53-3.22.48-1.03,1.01-2.06,1.62-2.93,1.31.12,2.72.44,4.14.84,2.86.82,5.78,1.98,8.08,2.58,3.54.92,7.09,1.84,10.64,2.77-1.23,4.44-2.72,8.77-4.47,12.99-.11-.04-.24-.07-.36-.1-6.23-1.53-12.35-3.43-18.29-5.82h0Zm14.36,15.14c-.25.49-.51.98-.77,1.47-.65.56-1.16,1.37-1.44,2.43-.05.12-.11.24-.16.36-.28-.12-.56-.23-.84-.35-7.44-3.36-16.14-5-25.15-5.26.16-.26.33-.52.5-.77.41-.64.66-1.26.76-1.87,1.08-1.99,2.15-3.98,3.22-5.96.74,1.36,2.11,2.39,3.61,3.12,6.33,3.09,13.42,5.12,20.27,6.83h0Zm-81.9,141.48c2.31-5.16,4.63-10.31,6.93-15.47.05-.12.1-.24.14-.37,6.33,5.1,13.23,9.6,20.69,13.46-1.97,2.74-3.82,5.57-5.53,8.5-.24.07-.48.16-.72.27-2.68,1.22-5.39,2.37-8.13,3.45-.62.25-1.25.5-1.88.73-.42-1.64-1.45-3.01-2.8-4.01-2.09-1.54-4.93-2.16-7.39-1.41-.43-1.72-.87-3.43-1.31-5.15h0Zm205.24-61.94c-4.24,10.6-13.77,34.07-37.67,48.28-10.53,6.26-21.61,8.53-33.96,10.53-29.4,4.74-91.46,7.29-128.41-30.58-15.97-16.38-22.53-33.13-19.5-49.78,1.95-10.73,7.79-21.39,17.34-31.67,10.99-11.84,47.84-21.87,70.78-11.44l.2.08c23.02,9.48,30.84,23.52,30.9,23.63,1.54,2.93,5.17,4.06,8.1,2.53,2.94-1.54,4.07-5.17,2.53-8.1-.33-.63-7.3-13.59-26.92-24.36,0-.02-.01-.03-.02-.06,5.88-10.35,10.24-21.45,12.96-33.07.28-1.21-1.05-3.93-3.5-6.15-3.67-3.32-8.28-3.02-9.2-2.94,5.82-4.86,12.77-11.75,19.1-21.11,12.61-18.66,16.02-37.23,17.08-47.66,7.74-3.69,16.16-7.38,25.22-10.92,8.8-3.43,17.25-6.34,25.23-8.82,3.84,21.65,7.67,43.3,11.51,64.95,1.02,5.77,2.88,11.34,5.54,16.56,10.13,19.85,32.08,71.63,12.68,120.09h.01Z"/>
          <g>
            <path class="cls-6" d="m230.07,415.83c-.65-.23-1.28-.62-1.88-1.22-.49-.5-.98-.99-1.47-1.48.99.13,1.98.25,2.97.38.12.78.24,1.55.38,2.32Z"/>
            <path class="cls-6" d="m232.78,413.91c-.31.19-.62.39-.93.58.16-.21.33-.43.49-.64.15.02.29.04.44.06h0Z"/>
          </g>
          <g>
            <path class="cls-6" d="m268.35,421.22c-.47-.26-.94-.62-1.37-1.1.41-.13.8-.23,1.15-.31.07.47.15.94.22,1.41Z"/>
            <path class="cls-6" d="m268.57,414.15c-.01.07-.02.15-.03.22-.05-.12-.11-.24-.16-.36.06.05.13.1.19.14h0Z"/>
            <path class="cls-6" d="m271.37,416.3c-.13-.02-.25-.05-.37-.07.06-.02.12-.05.18-.07.06.04.13.09.19.14Z"/>
          </g>
          <path class="cls-6" d="m232.78,413.91c-.31.19-.62.39-.93.58.16-.21.33-.43.49-.64.15.02.29.04.44.06h0Z"/>
          <g>
            <path class="cls-6" d="m268.57,414.15c-.01.07-.02.15-.03.22-.05-.12-.11-.24-.16-.36.06.05.13.1.19.14h0Z"/>
            <path class="cls-6" d="m269.33,408.31c-.1.76-.2,1.51-.3,2.27-.45,0-.9.06-1.34.17.2-.78.66-1.55,1.43-2.25.07-.07.14-.13.21-.19Z"/>
            <path class="cls-6" d="m271.37,416.3c-.13-.02-.25-.05-.37-.07.06-.02.12-.05.18-.07.06.04.13.09.19.14Z"/>
            <path class="cls-6" d="m277.17,414.45c-.2.33-.46.65-.77.93-.07.06-.14.13-.21.19-.26.24-.53.44-.81.61-.02-.53-.13-1.06-.35-1.59.47-.19.93-.38,1.4-.57.19-.69.38-1.39.56-2.08.02.83.09,1.67.18,2.51Z"/>
          </g>
          <g>
            <path class="cls-6" d="m388.63,335.26s.1-.08.14-.13c.3.33.26.38-.14.13Z"/>
            <path class="cls-6" d="m396.59,331.34c-1.33-6.73-3.49-13.24-6.27-19.5-2.18-4.9-4.83-12.08-10.08-14.38-3.07-1.35-6.2-.61-8.39,1.41-8.43,5.03-6.12,20.54-4.39,28.49,2.25,10.36,8.49,26.12,19.99,29.12,14.9,3.88,10.75-17,9.14-25.14h0Zm-7.96,3.92s.1-.08.14-.13c.3.33.26.38-.14.13Z"/>
          </g>
          <g>
            <path class="cls-6" d="m193.32,338.78s0,.05,0,.07c-.05.01-.1.01-.15.02.05-.03.11-.06.16-.09h0Z"/>
            <path class="cls-6" d="m197.52,341.2c-1.24.1-.62-.87.14-1.84.22-.28.45-.55.65-.8.02-.03.05-.06.08-.09v.53h0c.22,1.15.45,2.1-.87,2.2h0Z"/>
            <path class="cls-6" d="m199.2,319.76c-.18.33-.36.66-.53,1-.03-.43-.09-.85-.15-1.28.23.09.45.18.68.28Z"/>
            <path class="cls-6" d="m208.37,298.29c-2-.28-4.16.24-6.08,1.52-1.41.95-2.75,2.15-3.98,3.5,1.54-2.29,3.4-4.2,5.69-5,1.58-.56,3.07-.51,4.37-.02Z"/>
          </g>
          <g>
            <path class="cls-6" d="m289.26,387.01c-12.22-1.37-21.61-18.11-18.85-24.13.31-.68.83-1.61.58-2.42-1.08-3.5-12.14-2.75-12.54,2.63-1.33,17.38,16.66,31.48,34.39,30.35,6.66-.43,12-.8,17.15-3.24.79-.37,2.84-1.46,5.22-3.29,6.41-4.94,14.38-14.85,11.56-20.86-1.27-2.71-4.73-4.63-7.04-3.92-2.33.71-3.17,3.99-3.58,5.28-2.54,8.02-15.21,20.91-26.89,19.6h0Zm34.73-18.48c-.03.18-.06.37-.09.55-.04-.13-.07-.27-.11-.4.07-.05.13-.1.2-.15h0Zm-4.27,3.6c-.18.02-.37.05-.55.07.1-.07.19-.15.29-.22.09.05.17.1.26.15h0Zm-3.99-2.03c-.11-.15-.22-.3-.33-.45.1.06.19.11.29.17.02.09.03.19.04.28h0Z"/>
            <path class="cls-6" d="m314,368.71c.02.09.03.19.04.28-.11-.15-.22-.3-.33-.45.1.06.19.11.29.17h0Z"/>
            <path class="cls-6" d="m317.77,370.87c.09.05.17.1.26.15-.18.02-.37.05-.55.07.1-.07.19-.15.29-.22h0Z"/>
            <path class="cls-6" d="m322.3,367.42c-.03.18-.06.37-.09.55-.04-.13-.07-.27-.11-.4.07-.05.13-.1.2-.15h0Z"/>
          </g>
          <path class="cls-6" d="m214.11,302.89c-1.13-2.74-3.3-4.25-5.72-4.6h-.02c-2-.28-4.16.24-6.08,1.52-1.41.95-2.75,2.15-3.98,3.5-2.98,3.23-5.44,7.31-7.42,10.82-2.82,4.99-5.03,10.43-6.42,16-1.28,5.14-3.06,12.1-.44,17.12,3.19,6.09,7.52,6.17,11.63,3.76,1.12.2,2.32.16,3.57-.2,5.59-1.6,8.62-8.12,10.82-12.97,2.41-5.33,4-10.9,4.77-16.69.75-5.59,1.52-12.89-.71-18.26h0Zm-20.8,35.96c-.05.01-.1.01-.15.02.05-.03.11-.06.16-.09,0,.02,0,.05,0,.07h0Zm4.21,2.35c-1.24.1-.62-.87.14-1.84.22-.28.45-.55.65-.8.02-.03.05-.06.08-.09v.53h0c.22,1.15.45,2.1-.87,2.2h0Zm1.15-20.44c-.03-.43-.09-.85-.15-1.28.23.09.45.18.68.28-.18.33-.36.66-.53,1Z"/>
          <g>
            <path class="cls-5" d="m59.44,278.94c0-.84-1.05-1.41-1.83-1.1s-1.17,1.26-1.03,2.09.71,1.53,1.38,2.04"/>
            <path class="cls-5" d="m64.44,278.94c-.14-1.44-.44-2.56-1.33-3.71-.8-1.03-1.87-1.81-3.13-2.18-2.23-.65-4.77-.13-6.41,1.59-2.96,3.12-2.48,8.19.86,10.86,1.07.86,2.11,1.46,3.54,1.46,1.23,0,2.69-.54,3.54-1.46s1.52-2.2,1.46-3.54c-.06-1.24-.45-2.72-1.46-3.54-.18-.14-.88-.93-.34-.2s-.04-.15-.13-.35l.5,1.19c-.06-.16-.1-.32-.13-.48l.18,1.33c-.03-.22-.03-.41,0-.63l-.18,1.33c.04-.22.1-.4.18-.61l-.5,1.19c.24-.43.1-.27-.43.5-.77.52-.94.67-.5.44l-1.19.5c.12-.05.24-.08.37-.08l-1.33.18h.19c-.44-.06-.89-.12-1.33-.18.21.03.36.07.56.15l-1.19-.5c.44.27.26.07-.54-.6-.66-.8-.86-.98-.62-.53l-.5-1.19.05.18-.18-1.33.02.19c.13,1.36.47,2.54,1.46,3.54.87.87,2.29,1.52,3.54,1.46,2.49-.11,5.27-2.21,5-5h0l-.03.02Z"/>
          </g>
          <path class="cls-3" d="m217.49,312.76s-.02-.04-.03-.07l.45,1.07s0-.04-.02-.06l.16,1.2v-.06l-.16,1.2s0-.03,0-.05l-.45,1.07.03-.06-.7.91s.02-.03.04-.04l-.91.7s.06-.04.1-.06l-1.07.45c.06-.02.11-.03.17-.04l-1.2.16h.23l-1.2-.16c.06,0,.11.02.17.05l-1.07-.45s.06.03.08.05l-.91-.7s.04.03.05.05l-.7-.91s.02.03.03.04l-.45-1.07s0,.03,0,.05l-.16-1.2v.05l.16-1.2s0,.05-.02.08l.45-1.07s-.02.04-.03.07c-.33.52-.51,1.07-.53,1.67-.13.6-.11,1.2.08,1.79.14.59.41,1.1.81,1.53.32.49.74.88,1.26,1.16l1.07.45c.8.21,1.6.21,2.39,0l1.07-.45c.68-.4,1.21-.94,1.61-1.61.44-.74.67-1.6.67-2.46,0-.41-.04-.84-.17-1.23-.06-.19-.37-.92-.46-1.1-.19-.36-.46-.69-.75-.98s-.62-.56-.99-.76c-.18-.09-.48-.2-.57-.24.02,0-.4-.19-.59-.25-.46-.13-.95-.19-1.43-.2-.23,0-.54.06-.71.09-.19.02-.48.04-.71.1-.74.19-1.63.68-2.16,1.25-.14.15-.19.24-.38.48,0,0-.28.32-.38.49-.08.14-.41.94-.46,1.1,0,.02,0,.03,0,.05.28-.91-.18.85-.16,1.23,0,.2.12,1.04.17,1.24.09.41.29.81.5,1.18.28.52.67.95,1.16,1.26.43.4.94.67,1.53.81.6.19,1.2.21,1.79.08.6-.03,1.16-.21,1.67-.53l.91-.7c.56-.56.94-1.22,1.16-1.99l.16-1.2c0-.81-.21-1.57-.61-2.27h0Z"/>
          <path class="cls-3" d="m384.19,313.79l1.13,1.13c.41.44.89.75,1.45.93.54.28,1.11.41,1.73.39.62.02,1.2-.11,1.73-.39.56-.18,1.04-.49,1.45-.93.79-.86,1.37-1.98,1.32-3.18l-.16-1.2c-.21-.76-.6-1.42-1.16-1.99l-1.13-1.13c-.41-.44-.89-.75-1.45-.93-.54-.28-1.11-.41-1.73-.39-.62-.02-1.2.11-1.73.39-.56.18-1.04.49-1.45.93-.79.86-1.37,1.98-1.32,3.18l.16,1.2c.21.76.6,1.42,1.16,1.99h0Z"/>
        </g>
      </g>
    </g>
  </g>
</svg>